<svg width="560" height="574" viewBox="0 0 560 574" fill="none" xmlns="http://www.w3.org/2000/svg">
<path d="M42.8587 189.002C41.942 189.002 41.2036 179.377 41.2036 167.499C41.2036 155.622 41.942 145.997 42.8587 145.997C43.7753 145.997 44.5264 155.622 44.5264 167.499C44.5264 179.377 43.7753 189.002 42.8587 189.002Z" fill="#E0E0E0"/>
<path d="M31.0062 177.137C30.0896 177.137 29.3512 172.554 29.3512 166.952C29.3512 161.351 30.0896 156.768 31.0062 156.768C31.9228 156.768 32.6612 161.351 32.6612 166.952C32.6612 172.554 31.9228 177.137 31.0062 177.137Z" fill="#E0E0E0"/>
<path d="M19.1029 173.827C18.199 173.827 17.3333 171.51 17.1932 168.543C17.0532 165.577 17.677 163.158 18.5809 163.107C19.4848 163.056 20.3632 165.424 20.5032 168.391C20.6433 171.357 20.0195 173.776 19.1029 173.827Z" fill="#E0E0E0"/>
<path d="M55.2453 178.576C54.3287 178.576 53.7049 173.076 53.8322 166.316C53.9595 159.556 54.8125 154.094 55.7291 154.12C56.6457 154.145 57.2823 159.619 57.1422 166.38C57.0022 173.14 56.162 178.601 55.2453 178.576Z" fill="#E0E0E0"/>
<path d="M68.7147 174.082C67.7981 174.082 67.047 171.688 67.047 168.735C67.047 165.781 67.7981 163.375 68.7147 163.375C69.6314 163.375 70.3697 165.768 70.3697 168.735C70.3697 171.701 69.6314 174.082 68.7147 174.082Z" fill="#E0E0E0"/>
<path d="M85.443 168.735C85.443 168.735 85.443 168.493 85.443 168.047C85.443 167.602 85.3666 166.889 85.303 166.023C85.303 165.577 85.303 165.081 85.2139 164.533C85.1248 163.986 85.0356 163.4 84.9465 162.751C84.7574 161.271 84.4595 159.808 84.0554 158.372C83.0645 154.389 81.4718 150.581 79.3322 147.08C76.2382 141.933 72.0914 137.499 67.1637 134.068C62.236 130.636 56.6387 128.285 50.7388 127.168C48.9718 126.848 47.1856 126.643 45.3918 126.557C44.4752 126.557 43.5586 126.43 42.6292 126.456L39.8284 126.596C39.3574 126.596 38.8864 126.596 38.4153 126.685L37.0022 126.901C36.0601 127.067 35.1053 127.168 34.1632 127.372C32.2483 127.797 30.3641 128.35 28.5235 129.027C26.6316 129.703 24.7896 130.512 23.011 131.446C22.1198 131.93 21.2669 132.49 20.3757 133.025C19.4851 133.547 18.6341 134.134 17.8296 134.782C16.141 136.026 14.5415 137.388 13.0428 138.855C11.5081 140.401 10.083 142.051 8.77793 143.795C6.15423 147.324 4.11662 151.253 2.74352 155.431C-0.158977 164.084 -0.158977 173.449 2.74352 182.102C4.1179 186.271 6.15551 190.192 8.77793 193.713C10.0466 195.433 11.4288 197.066 12.9155 198.601C14.4245 200.067 16.0277 201.432 17.715 202.688C18.5258 203.326 19.3762 203.913 20.2611 204.445C21.1523 204.967 22.0053 205.527 22.8964 206.011C24.6773 206.944 26.5189 207.756 28.4089 208.442C30.2514 209.114 32.1352 209.667 34.0486 210.097C34.9907 210.288 35.9583 210.403 36.9003 210.555L38.3007 210.772C38.7718 210.772 39.2428 210.772 39.7139 210.874L42.5146 211.014C43.444 211.014 44.3606 210.937 45.2772 210.912C47.0719 210.829 48.8586 210.62 50.6242 210.288C56.5263 209.177 62.1262 206.829 67.0547 203.397C71.9832 199.965 76.1286 195.527 79.2176 190.377C81.3546 186.878 82.9472 183.075 83.9408 179.098C84.3462 177.658 84.6441 176.19 84.8319 174.705C84.9211 174.069 85.0484 173.432 85.0993 172.923C85.1502 172.414 85.1629 171.892 85.1884 171.446C85.1884 170.568 85.2903 169.906 85.3284 169.422C85.3666 168.938 85.3284 168.735 85.3284 168.735C85.3284 168.735 85.3284 168.964 85.3284 169.422C85.3284 169.88 85.3284 170.581 85.3284 171.446C85.3284 171.892 85.3284 172.401 85.3284 172.949C85.3284 173.496 85.1757 174.082 85.0866 174.731C84.9232 176.226 84.6466 177.707 84.2591 179.161C83.3004 183.196 81.729 187.06 79.5996 190.619C76.5049 195.838 72.3358 200.34 67.3688 203.826C62.4018 207.311 56.7505 209.701 50.7897 210.836C48.9987 211.172 47.1866 211.385 45.3664 211.472C44.4497 211.472 43.5204 211.599 42.5783 211.587L39.7393 211.447C39.2683 211.447 38.7845 211.447 38.3007 211.358L36.8749 211.141C35.9201 210.988 34.9525 210.874 33.985 210.683C32.0448 210.254 30.1352 209.697 28.2688 209.015C26.3496 208.325 24.4783 207.509 22.6673 206.571C21.7634 206.074 20.885 205.501 19.9938 204.979C19.1047 204.445 18.254 203.85 17.4476 203.197C15.7366 201.927 14.1119 200.545 12.5845 199.06C11.0689 197.502 9.66097 195.843 8.37055 194.094C5.70155 190.506 3.6255 186.513 2.22155 182.268C-0.740517 173.484 -0.740517 163.972 2.22155 155.189C3.61584 150.942 5.68803 146.948 8.35781 143.362C9.64824 141.613 11.0561 139.955 12.5717 138.397C14.0994 136.916 15.724 135.538 17.4349 134.272C18.2412 133.62 19.092 133.024 19.9811 132.49C20.885 131.955 21.7507 131.382 22.6545 130.899C24.4648 129.977 26.3364 129.182 28.2561 128.518C30.1224 127.836 32.032 127.279 33.9723 126.85C34.9398 126.647 35.9073 126.545 36.8622 126.379L38.288 126.163C38.7718 126.163 39.2428 126.163 39.7266 126.074L42.5656 125.934C43.4949 125.934 44.437 126.023 45.3536 126.048C47.1736 126.146 48.9853 126.363 50.777 126.697C56.7408 127.838 62.3938 130.233 67.3609 133.725C72.328 137.218 76.4956 141.726 79.5868 146.952C81.7156 150.511 83.2869 154.375 84.2463 158.41C84.6326 159.86 84.9092 161.336 85.0738 162.828C85.1629 163.477 85.2648 164.101 85.3157 164.623C85.3666 165.145 85.3157 165.667 85.3157 166.112C85.3157 166.991 85.3157 167.665 85.3157 168.149C85.3157 168.633 85.443 168.735 85.443 168.735Z" fill="#E0E0E0"/>
<path d="M347.291 78.0271C344.87 78.0271 342.473 77.5503 340.236 76.6238C338 75.6974 335.968 74.3396 334.256 72.6278C332.544 70.916 331.186 68.8838 330.26 66.6473C329.333 64.4108 328.857 62.0136 328.857 59.5928V37.9504C328.855 35.5285 329.33 33.13 330.256 30.892C331.182 28.654 332.539 26.6203 334.251 24.9072C335.963 23.1941 337.996 21.8351 340.233 20.9079C342.471 19.9807 344.869 19.5034 347.291 19.5034C352.18 19.5034 356.869 21.4456 360.326 24.9027C363.783 28.3598 365.725 33.0486 365.725 37.9377V59.5801C365.727 62.002 365.251 64.4005 364.325 66.6385C363.4 68.8765 362.042 70.9102 360.33 72.6233C358.618 74.3364 356.586 75.6954 354.348 76.6226C352.111 77.5498 349.713 78.0271 347.291 78.0271Z" fill="#F5F5F5"/>
<path d="M347.291 89.2561C340.074 89.2494 333.155 86.3796 328.052 81.2766C322.949 76.1736 320.079 69.2543 320.072 62.0376H322.708C322.714 68.5554 325.307 74.8043 329.915 79.4131C334.524 84.0219 340.773 86.6141 347.291 86.6208C361.753 86.6208 371.861 76.4362 371.861 62.0376H374.509C374.509 78.053 363.306 89.2434 347.291 89.2561Z" fill="#F5F5F5"/>
<path d="M348.602 87.9321H345.967V101.261H348.602V87.9321Z" fill="#F5F5F5"/>
<path d="M363.383 99.3516H331.199V101.987H363.383V99.3516Z" fill="#F5F5F5"/>
<path d="M320.111 31.5595C318.449 31.3294 316.839 30.817 315.349 30.0445C311.428 28.3768 310.104 27.4984 310.575 26.1234L310.754 25.576L311.377 25.2578C312.752 24.6339 316.241 26.0725 316.915 26.3653C317.59 26.6581 321.053 28.1731 321.562 29.599L321.753 30.1337L321.486 30.7702C321.365 31.0264 321.168 31.2394 320.922 31.3805C320.676 31.5217 320.393 31.5841 320.111 31.5595Z" fill="#F5F5F5"/>
<path d="M330.639 17.7595C329.798 17.7595 328.525 16.8174 325.877 13.2273C322.733 8.94977 322.886 7.91857 322.949 7.57484L323.026 7.04015L323.955 6.30176L324.579 6.36541C324.922 6.36541 325.966 6.58184 329.098 10.8467C332.777 15.8372 332.357 16.7792 331.466 17.4285C331.234 17.6268 330.943 17.7432 330.639 17.7595Z" fill="#F5F5F5"/>
<path d="M346.884 12.769L346.374 12.3362C346.12 12.0943 345.369 11.3814 345.42 6.35269C345.471 1.32401 346.247 0.623812 346.502 0.381927L346.935 0H347.597C348.399 0.0636542 349.506 0.15277 349.43 6.36542C349.353 12.5781 348.259 12.6672 347.457 12.7308L346.884 12.769Z" fill="#F5F5F5"/>
<path d="M363.052 16.3465L362.504 15.9137C361.346 14.8443 362.39 13.3675 364.656 10.2994C366.922 7.23127 368.093 5.85634 369.455 6.67111L369.964 6.97665L370.143 7.66412C370.461 9.23001 368.131 12.3618 367.864 12.7564C367.597 13.1511 365.229 16.2065 363.65 16.3465H363.052Z" fill="#F5F5F5"/>
<path d="M374.98 31.3559C374.718 31.3798 374.454 31.3216 374.226 31.1894C373.998 31.0571 373.817 30.8573 373.707 30.6176C372.994 29.3445 374.356 28.3133 374.98 27.804C375.934 27.0871 376.934 26.4322 377.972 25.8435C382.861 23.0682 383.764 23.692 384.261 24.5704C384.974 25.8435 383.612 26.8747 382.988 27.3839C382.036 28.1007 381.037 28.7515 379.996 29.3317C377.335 30.8594 375.859 31.3559 374.98 31.3559Z" fill="#F5F5F5"/>
<path d="M423.803 569.005C401.257 558.82 391.976 533.727 388.386 510.303C387.788 506.394 386.604 502.384 387.813 498.629C389.023 494.873 392.906 491.754 396.725 492.747C399.857 493.562 401.741 496.681 403.867 499.112C406.702 502.417 410.42 504.846 414.586 506.114C417.298 506.942 420.506 507.158 422.696 505.363C425.713 502.893 425.242 498.183 424.503 494.326C423.12 487.137 421.737 479.944 420.353 472.747C419.405 468.928 419.079 464.982 419.386 461.06C419.908 457.177 421.932 453.269 425.42 451.563C428.908 449.857 433.835 451.117 435.312 454.758C435.757 456.329 436.093 457.928 436.318 459.545C436.725 461.136 437.807 462.766 439.411 462.931C441.015 463.097 442.378 461.658 443.32 460.385C446.579 455.738 448.412 450.2 449.952 444.752C451.493 439.303 453.059 433.714 455.885 428.787C458.711 423.86 463.091 419.557 468.616 418.221C474.141 416.884 480.621 419.188 483.027 424.37C485.433 429.551 483.295 435.662 480.659 440.716C476.727 448.233 471.728 455.142 465.815 461.225C464.625 462.208 463.781 463.547 463.409 465.045C463.052 467.782 465.955 469.882 468.667 470.252C471.722 470.684 474.79 469.806 477.871 469.59C480.952 469.373 484.466 470.111 486.133 472.747C488.45 476.401 485.917 481.149 483.167 484.472C477.664 491.107 471.062 496.748 463.651 501.149C461.003 502.715 458.177 504.192 456.254 506.611C454.332 509.03 453.593 512.76 455.49 515.23C457.387 517.699 461.092 517.903 463.969 516.795C466.846 515.688 469.201 513.575 471.849 511.983C476.776 508.991 483.702 508.088 487.954 512.047C489.288 513.431 490.281 515.106 490.855 516.94C491.43 518.774 491.57 520.716 491.264 522.613C490.63 526.393 489.245 530.008 487.19 533.244C480.65 544.89 471.14 554.593 459.628 561.366C448.106 567.922 436.916 571.194 423.841 569.005" fill="#EBEBEB"/>
<path d="M425.789 573.244C424.923 563.861 425.866 565.695 427.139 553.32C428.655 539.926 430.941 526.63 433.988 513.498C434.764 510.01 435.541 506.547 436.305 503.148C437.069 499.749 437.845 496.388 438.787 493.142C440.627 486.916 442.807 480.796 445.318 474.809C447.686 469.068 450.131 463.721 452.448 458.73C454.765 453.74 457.056 449.131 459.297 445.019C462.809 438.515 466.832 432.3 471.327 426.432C472.906 424.357 474.192 422.791 475.07 421.734L476.089 420.538C476.197 420.397 476.321 420.269 476.458 420.156C476.36 420.306 476.254 420.451 476.14 420.589C475.91 420.894 475.592 421.314 475.185 421.862C474.345 422.944 473.097 424.548 471.544 426.648C467.153 432.566 463.213 438.805 459.755 445.312C457.54 449.424 455.299 454.033 452.995 459.023C450.691 464.013 448.272 469.373 445.929 475.102C443.448 481.074 441.294 487.177 439.475 493.384C438.533 496.617 437.782 499.953 437.005 503.352C436.228 506.751 435.477 510.201 434.688 513.702C431.659 526.808 429.369 540.073 427.826 553.435C426.553 565.758 425.522 563.887 426.324 573.231" fill="#E0E0E0"/>
<path d="M438.965 493.078C438.677 492.579 438.446 492.05 438.278 491.499C437.883 490.468 437.349 488.953 436.725 487.094C435.452 483.275 433.898 478.106 432.193 472.339C430.487 466.572 428.857 461.365 427.533 457.648C426.884 455.789 426.349 454.287 425.954 453.256C425.718 452.734 425.543 452.188 425.432 451.626C425.745 452.106 426.005 452.618 426.209 453.154C426.68 454.159 427.304 455.636 428.017 457.469C429.455 461.161 431.174 466.381 432.88 472.135C434.586 477.89 436.05 482.995 437.208 486.929C437.73 488.711 438.189 490.213 438.545 491.41C438.75 491.948 438.891 492.507 438.965 493.078Z" fill="#E0E0E0"/>
<path d="M486.91 474.567C486.286 474.832 485.638 475.037 484.975 475.178C483.702 475.522 481.907 476.019 479.679 476.706C475.223 478.043 469.125 480.105 462.505 482.677C455.885 485.249 449.991 487.846 445.777 489.844C443.676 490.825 441.958 491.665 440.812 492.238C440.226 492.579 439.608 492.861 438.966 493.078C439.503 492.663 440.078 492.301 440.684 491.996C441.818 491.334 443.473 490.417 445.56 489.373C449.723 487.26 455.605 484.574 462.238 481.989C467.903 479.77 473.677 477.841 479.539 476.21C481.78 475.586 483.626 475.166 484.911 474.937C485.565 474.752 486.234 474.629 486.91 474.567Z" fill="#E0E0E0"/>
<path d="M427.622 552.289C427.622 552.289 427.444 552.124 427.164 551.754L425.98 550.112C424.961 548.686 423.536 546.573 421.817 543.95C418.354 538.705 413.822 531.309 408.921 523.084C404.019 514.86 399.538 507.426 396.19 502.117L392.218 495.841L391.148 494.122C391.006 493.933 390.894 493.722 390.817 493.498C390.987 493.662 391.137 493.846 391.263 494.045C391.594 494.491 391.976 495.026 392.447 495.688C393.478 497.114 394.891 499.214 396.623 501.837C400.073 507.082 404.618 514.478 409.519 522.715C414.42 530.952 418.889 538.362 422.25 543.67L426.222 549.947L427.304 551.665C427.43 551.863 427.536 552.072 427.622 552.289Z" fill="#E0E0E0"/>
<path d="M489.635 518.756C489.452 518.917 489.246 519.051 489.024 519.151L487.228 520.144L480.583 523.746C474.981 526.802 467.279 531.092 458.788 535.841C450.296 540.589 442.531 544.829 436.865 547.757C434.026 549.221 431.773 550.379 430.105 551.156L428.246 552.034C428.04 552.153 427.817 552.238 427.585 552.289C427.764 552.13 427.966 551.997 428.183 551.894L429.978 550.901L436.623 547.298C442.238 544.256 449.927 539.965 458.431 535.204C466.936 530.443 474.676 526.216 480.341 523.288C483.18 521.824 485.433 520.665 487.101 519.902L488.96 519.023C489.173 518.906 489.399 518.816 489.635 518.756Z" fill="#E0E0E0"/>
<path d="M65.0861 535.905C66.3592 530.634 62.9346 525.376 59.0517 521.582C55.1688 517.789 50.5221 514.389 48.4724 509.348C45.1751 501.2 49.4909 490.583 43.8893 483.785C40.6047 479.8 34.7231 478.489 31.795 474.211C30.4401 471.853 29.5377 469.262 29.1343 466.572C25.9648 453.001 19.2119 440.528 9.57969 430.455C8.99622 442.567 11.6877 454.613 17.371 465.325C19.6498 469.602 22.4633 473.765 23.2144 478.552C24.4875 486.318 20.1717 494.351 22.1196 501.964C24.3602 510.685 34.2011 516.477 34.7104 525.453C35.1432 533.091 28.5614 539.762 29.0961 547.35C29.5138 550.576 30.6919 553.656 32.5334 556.338C38.466 566.064 47.1357 572.748 60.2102 572.455L76.2511 572.824L65.0861 535.905Z" fill="#FF725E"/>
<g opacity="0.3">
<path d="M65.0861 535.905C66.3592 530.634 62.9346 525.376 59.0517 521.582C55.1688 517.789 50.5221 514.389 48.4724 509.348C45.1751 501.2 49.4909 490.583 43.8893 483.785C40.6047 479.8 34.7231 478.489 31.795 474.211C30.4401 471.853 29.5377 469.262 29.1343 466.572C25.9648 453.001 19.2119 440.528 9.57969 430.455C8.99622 442.567 11.6877 454.613 17.371 465.325C19.6498 469.602 22.4633 473.765 23.2144 478.552C24.4875 486.318 20.1717 494.351 22.1196 501.964C24.3602 510.685 34.2011 516.477 34.7104 525.453C35.1432 533.091 28.5614 539.762 29.0961 547.35C29.5138 550.576 30.6919 553.656 32.5334 556.338C38.466 566.064 47.1357 572.748 60.2102 572.455L76.2511 572.824L65.0861 535.905Z" fill="black"/>
</g>
<path d="M79.4719 573.27C79.4719 573.27 79.8666 573.27 80.5923 573.27C81.6982 573.254 82.801 573.147 83.8896 572.952C85.6269 572.644 87.3318 572.176 88.9819 571.551C91.2501 570.715 93.3627 569.506 95.2327 567.974C96.3272 567.07 97.1766 565.906 97.7025 564.587C98.1468 563.074 98.3698 561.505 98.3645 559.928C98.3635 558.175 98.4655 556.424 98.67 554.683C98.9643 552.786 99.6259 550.966 100.618 549.323C102.527 545.898 105.557 542.767 106.461 538.451C107.365 534.135 106.665 529.539 105.863 524.676C105.061 519.813 104.259 514.492 106.118 509.259C107.976 504.027 111.325 499.507 112.954 494.046C114.584 488.584 113.756 482.524 114.074 476.337C114.171 473.155 114.88 470.021 116.162 467.107C117.435 464.166 119.269 461.48 120.605 458.565C123.304 452.721 123.775 445.987 124.501 439.252C124.857 435.879 125.214 432.454 125.583 429.004C125.797 425.477 126.382 421.982 127.327 418.577C128.4 415.156 129.675 411.802 131.146 408.533C131.877 406.918 132.469 405.244 132.916 403.53C133.166 401.757 133.323 399.972 133.387 398.183C133.537 394.534 133.375 390.88 132.903 387.26C132.445 383.606 131.757 379.939 131.337 376.196C131.337 375.98 131.337 375.751 131.261 375.547L131.987 375.955C128.742 377.634 125.928 380.039 123.763 382.982C121.629 385.908 119.915 389.117 118.67 392.517C116.124 399.277 115.156 406.419 113.832 413.345C112.508 420.271 110.815 427.183 107.212 433.091C105.417 436.019 103.304 438.641 101.484 441.378C99.579 443.98 98.2747 446.971 97.6643 450.137C96.735 456.503 100.478 462.41 99.7394 468.813C99.3626 471.883 98.3385 474.838 96.735 477.483C95.2454 480.105 93.5268 482.499 91.9227 484.88C90.3015 487.157 88.891 489.577 87.7088 492.111C86.626 494.572 85.9881 497.205 85.8246 499.889C85.4427 505.173 86.2193 510.303 85.8246 515.255C85.3755 519.947 84.0132 524.505 81.8144 528.674C79.8539 532.646 77.7024 536.21 75.8946 539.648C75.0057 541.303 74.2026 543.002 73.4885 544.74C72.8476 546.335 72.3823 547.996 72.1008 549.692C71.6147 552.674 71.5633 555.71 71.948 558.706C72.3412 562.891 73.8637 566.891 76.3529 570.278C77.2781 571.403 78.324 572.424 79.4719 573.321C79.4719 573.321 79.1537 573.13 78.5553 572.684C78.1724 572.43 77.8182 572.136 77.4987 571.806C77.0378 571.373 76.6121 570.905 76.2256 570.405C73.6258 567.034 72.0167 563.004 71.5788 558.769C71.1343 555.739 71.1343 552.659 71.5788 549.629C71.8558 547.887 72.3167 546.18 72.9538 544.536C73.6696 542.799 74.4726 541.1 75.3599 539.444C77.1422 535.981 79.281 532.404 81.1906 528.457C83.3097 524.351 84.6071 519.871 85.0099 515.268C85.3791 510.418 84.577 505.3 85.0099 499.902C85.1628 497.126 85.814 494.401 86.9322 491.856C88.1234 489.259 89.5466 486.775 91.1843 484.434C92.7884 482.041 94.4943 479.66 95.9329 477.088C97.4711 474.548 98.4518 471.71 98.8101 468.762C99.5485 462.753 95.7801 456.821 96.6968 450.048C97.3052 446.743 98.645 443.615 100.618 440.895C102.451 438.094 104.564 435.484 106.309 432.619C109.797 426.878 111.503 420.092 112.776 413.205C114.049 406.318 115.016 399.099 117.652 392.199C118.928 388.7 120.694 385.4 122.897 382.396C125.152 379.325 128.089 376.819 131.477 375.076L132.127 374.745L132.203 375.483C132.203 375.674 132.203 375.904 132.279 376.12C132.7 379.825 133.387 383.478 133.845 387.17C134.323 390.846 134.485 394.556 134.329 398.259C134.268 400.104 134.106 401.944 133.845 403.771C133.383 405.55 132.774 407.287 132.025 408.966C130.555 412.197 129.28 415.513 128.206 418.896C127.278 422.247 126.702 425.686 126.487 429.157C126.122 432.603 125.757 435.997 125.392 439.341C124.654 446.038 124.195 452.887 121.382 458.934C119.994 461.926 118.212 464.612 116.926 467.464C115.677 470.274 114.985 473.301 114.889 476.375C114.558 482.435 115.411 488.559 113.692 494.275C111.974 499.991 108.486 504.46 106.792 509.552C105.099 514.644 105.736 519.8 106.5 524.6C107.263 529.399 108.091 534.212 107.021 538.604C105.952 542.996 102.909 546.242 101.038 549.603C100.087 551.18 99.4511 552.927 99.1666 554.746C98.9532 556.466 98.8384 558.196 98.8228 559.928C98.8133 561.55 98.5688 563.162 98.0972 564.715C97.5255 566.091 96.625 567.306 95.4746 568.254C93.5619 569.782 91.4116 570.986 89.1092 571.818C87.4183 572.437 85.6697 572.885 83.8896 573.155C82.4353 573.453 80.9397 573.492 79.4719 573.27Z" fill="#263238"/>
<path d="M129.02 384.255C129.045 384.424 129.045 384.595 129.02 384.764C128.944 385.146 128.867 385.63 128.766 386.228C128.524 387.501 128.231 389.398 127.683 391.842C127.136 394.287 125.723 397.024 124.564 400.321C123.406 403.618 122.107 407.425 120.974 411.703C119.841 415.98 118.823 420.703 117.753 425.808C116.684 430.913 115.525 436.477 112.725 441.722C111.452 444.357 109.988 446.992 108.905 449.806C107.806 452.699 107.075 455.719 106.728 458.794C105.965 465.342 104.852 471.844 103.393 478.272L94.4814 515.344L86.8429 545.529C84.6405 554.046 82.8581 560.972 81.6105 565.898L80.0701 571.373C79.9046 571.946 79.7773 572.417 79.6627 572.799C79.5481 573.18 79.5099 573.282 79.4845 573.27C79.4935 573.102 79.5191 572.936 79.5608 572.773C79.6457 572.391 79.7476 571.907 79.8664 571.322C80.1847 569.972 80.6175 568.114 81.1395 565.758L86.0663 545.389C88.1796 536.758 90.7003 526.522 93.4884 515.153C96.2764 503.785 99.1918 491.232 102.336 478.094C103.79 471.69 104.903 465.214 105.672 458.692C106.038 455.542 106.795 452.45 107.925 449.488C109.084 446.598 110.548 443.95 111.846 441.34C114.622 436.248 115.755 430.748 116.939 425.668C118.123 420.589 119.103 415.827 120.3 411.55C121.496 407.272 122.769 403.453 124.042 400.168C125.315 396.884 126.703 394.147 127.314 391.779C127.925 389.411 128.269 387.488 128.587 386.228L128.931 384.777C128.945 384.6 128.974 384.426 129.02 384.255Z" fill="#263238"/>
<path d="M82.3108 573.308C92.7373 567.032 95.6272 548.126 91.2224 536.796C86.8175 525.465 79.1026 515.153 77.855 503.008C76.8875 493.702 79.8919 484.116 77.664 475C74.6723 462.741 62.6162 453.294 62.6926 440.627C62.6926 433.536 66.7155 426.84 66.3591 419.774C65.9135 411.092 59.217 404.242 55.0413 396.617C48.6759 384.942 48.1667 371.155 45.9261 357.991C43.6854 344.828 38.5804 330.938 26.9189 324.573C25.2639 335.725 22.374 343.376 23.3798 358.475C23.7362 363.886 30.1016 374.236 31.0183 386.114C31.5784 393.205 31.9731 400.321 32.4441 407.425C32.9024 414.338 33.3862 421.429 35.9069 427.794C37.842 432.747 40.9101 437.241 42.3487 442.346C45.0604 451.958 41.6358 462.41 43.8382 472.161C45.6969 480.424 51.4767 487.502 52.6734 495.879C54.3793 507.642 46.83 519.927 50.802 531.143C52.7625 536.707 57.3711 541.15 58.7078 546.904C59.739 551.36 58.7078 556.096 59.6117 560.577C61.1267 567.808 74.8887 573.308 82.3108 572.85" fill="#FF725E"/>
<path d="M29.8597 335.572C29.9287 335.771 29.9798 335.975 30.0124 336.183C30.1016 336.642 30.2161 337.24 30.3562 337.991C30.6745 339.582 31.0309 341.963 31.6293 344.968C32.2276 347.972 33.9208 351.333 35.2703 355.56C36.8633 360.263 38.2187 365.043 39.3314 369.882C40.6045 375.254 41.6866 381.2 42.8069 387.578C43.9273 393.956 45.1112 400.792 48.3067 407.336C49.7962 410.646 51.4894 413.994 52.7752 417.635C54.0366 421.341 54.8279 425.19 55.1304 429.093C55.7989 437.259 56.8995 445.384 58.4277 453.434C61.6995 469.921 64.7931 485.631 67.6448 499.927C70.4965 514.224 73.2082 527.031 75.4361 537.84C77.664 548.648 79.3699 557.318 80.6048 563.429C81.1777 566.408 81.636 568.738 81.9543 570.393C82.0943 571.144 82.1961 571.742 82.2853 572.213C82.3278 572.418 82.3534 572.627 82.3616 572.837C82.2779 572.645 82.2181 572.445 82.1834 572.238C82.0688 571.78 81.9288 571.182 81.7506 570.431C81.3814 568.788 80.8721 566.471 80.2101 563.505L74.7231 538.043C72.4443 527.235 69.7327 514.415 66.7282 500.169L57.4219 453.663C55.9203 445.604 54.8494 437.47 54.2138 429.297C53.9377 425.452 53.1763 421.658 51.9477 418.004C50.6746 414.44 49.0196 411.104 47.5428 407.82C44.3219 401.187 43.1761 394.172 42.0558 387.832C40.9355 381.492 39.9425 375.509 38.7203 370.149C37.4982 364.789 36.1742 359.965 34.7992 355.84C33.4243 351.715 31.9093 348.201 31.2983 345.146C30.6872 342.09 30.458 339.735 30.2034 338.131L29.9615 336.298C29.9005 336.061 29.8663 335.817 29.8597 335.572Z" fill="#263238"/>
<path d="M422.734 503.237C424.318 503.992 425.735 505.057 426.9 506.369C428.066 507.681 428.956 509.213 429.519 510.876C430.608 514.229 430.917 517.786 430.423 521.277C429.646 528.024 425.814 534.835 421.69 540.233C415.999 535.281 414.688 526.624 414.306 522.18C413.695 515.179 416.852 502.142 422.734 503.186" fill="#FF725E"/>
<path d="M428.297 551.437C427.907 549.506 428.034 547.507 428.667 545.642C429.3 543.777 430.415 542.113 431.9 540.819C433.405 539.553 435.147 538.599 437.024 538.013C438.902 537.427 440.878 537.221 442.836 537.407C443.744 537.397 444.643 537.583 445.472 537.955C446.301 538.326 447.039 538.874 447.635 539.559C448.075 540.286 448.314 541.117 448.327 541.967C448.341 542.817 448.128 543.656 447.711 544.397C446.844 545.866 445.606 547.082 444.121 547.923C439.195 551.017 433.86 553.104 428.297 551.437Z" fill="#FF725E"/>
<path d="M421.002 572.137C421.022 571.669 421.09 571.204 421.206 570.749C421.384 569.769 421.613 568.509 421.893 566.994C422.514 562.821 423.804 558.776 425.713 555.014C427.721 551.266 430.686 548.117 434.306 545.886C435.409 545.235 436.584 544.713 437.807 544.333C438.142 544.23 438.481 544.145 438.825 544.078C438.943 544.059 439.064 544.059 439.182 544.078C437.548 544.636 435.974 545.357 434.484 546.23C430.984 548.505 428.116 551.627 426.145 555.307C424.245 559.026 422.91 563.008 422.186 567.121C421.842 568.687 421.562 569.96 421.346 570.838C421.275 571.282 421.159 571.717 421.002 572.137Z" fill="#263238"/>
<path d="M421.257 513.384C421.276 513.583 421.276 513.783 421.257 513.982C421.257 514.428 421.321 515.013 421.359 515.726C421.448 517.241 421.537 519.431 421.626 522.092C421.792 527.502 421.932 534.975 421.893 543.238C421.855 551.5 421.664 558.973 421.435 564.384C421.333 567.082 421.219 569.272 421.13 570.749C421.13 571.462 421.041 572.022 421.002 572.493C421 572.694 420.979 572.894 420.939 573.091C420.911 572.889 420.911 572.683 420.939 572.48C420.939 572.035 420.939 571.449 420.939 570.736C420.939 569.17 421.028 566.993 421.091 564.371C421.219 558.96 421.372 551.487 421.41 543.238C421.448 534.988 421.41 527.515 421.27 522.104C421.27 519.444 421.193 517.267 421.168 515.739V513.995C421.177 513.789 421.207 513.584 421.257 513.384Z" fill="#263238"/>
<path d="M418.456 555.535C417.763 551.45 416.109 547.588 413.63 544.267C411.151 540.947 407.918 538.264 404.198 536.439C402.301 535.522 399.818 534.937 398.252 536.35C396.686 537.763 397.043 540.296 397.807 542.27C399.477 546.344 402.316 549.834 405.966 552.298C409.615 554.763 413.912 556.093 418.316 556.121" fill="#FF725E"/>
<path d="M405.114 542.817C405.534 542.95 405.939 543.124 406.324 543.339C406.79 543.558 407.244 543.8 407.686 544.065C408.195 544.383 408.819 544.702 409.43 545.16C410.117 545.622 410.78 546.12 411.416 546.649C412.152 547.254 412.857 547.896 413.529 548.572C415.054 550.135 416.399 551.865 417.539 553.728C418.648 555.614 419.536 557.622 420.187 559.711C420.458 560.624 420.679 561.55 420.849 562.487C421.012 563.302 421.127 564.127 421.193 564.956C421.258 565.633 421.287 566.313 421.282 566.993C421.323 567.51 421.323 568.03 421.282 568.546C421.278 568.975 421.227 569.402 421.129 569.82C421.028 569.82 421.219 567.948 420.888 564.956C420.786 564.218 420.697 563.403 420.493 562.537C420.289 561.672 420.06 560.768 419.793 559.826C419.123 557.782 418.24 555.815 417.157 553.957C416.037 552.124 414.722 550.417 413.236 548.865C412.589 548.187 411.905 547.545 411.187 546.942C410.537 546.344 409.914 545.873 409.264 545.414C406.782 543.696 405.076 542.906 405.114 542.817Z" fill="#263238"/>
<path d="M295.336 573.18L112.801 572.34C102.258 572.29 92.1659 568.054 84.7439 560.565C77.3218 553.077 73.1773 542.947 73.2213 532.403L75.1564 74.7936C75.1781 69.5702 76.2288 64.4024 78.2485 59.5853C80.2682 54.7682 83.2173 50.3963 86.9273 46.7195C90.6373 43.0426 95.0354 40.1328 99.8704 38.1563C104.705 36.1799 109.882 35.1755 115.106 35.2007L297.64 36.0409C302.863 36.0626 308.029 37.1129 312.846 39.1318C317.662 41.1507 322.033 44.0986 325.71 47.8073C329.387 51.5159 332.297 55.9126 334.274 60.7461C336.251 65.5796 337.257 70.7553 337.233 75.9775L335.298 533.587C335.277 538.812 334.225 543.981 332.205 548.799C330.184 553.617 327.234 557.989 323.523 561.666C319.812 565.343 315.412 568.253 310.575 570.228C305.739 572.204 300.561 573.207 295.336 573.18Z" fill="#455A64"/>
<path d="M297.373 51.8397L261.981 51.6742C259.657 51.7177 257.444 52.6795 255.827 54.3493C254.21 56.0192 253.319 58.2613 253.35 60.5858V66.9512C253.384 69.2767 252.494 71.5208 250.876 73.1913C249.258 74.8619 247.044 75.8226 244.718 75.8628L175.743 75.5445C174.588 75.5148 173.45 75.2577 172.395 74.7878C171.34 74.3178 170.387 73.6444 169.593 72.806C168.798 71.9676 168.177 70.9807 167.764 69.9017C167.351 68.8228 167.155 67.6731 167.187 66.5184V60.153C167.242 57.8237 166.373 55.5672 164.771 53.8762C163.168 52.1851 160.961 51.1967 158.632 51.1268H146.182L115.207 50.9867C111.547 50.9666 107.919 51.6681 104.53 53.051C101.141 54.4338 98.0582 56.4711 95.4571 59.0462C92.856 61.6213 90.7879 64.6838 89.371 68.0586C87.9541 71.4334 87.2163 75.0544 87.1996 78.7145L85.3409 525.389C85.3208 529.048 86.0218 532.675 87.4039 536.063C88.786 539.451 90.8221 542.534 93.3958 545.134C95.9696 547.735 99.0306 549.804 102.404 551.221C105.777 552.639 109.397 553.378 113.056 553.396L295.234 554.237C298.894 554.257 302.523 553.555 305.911 552.172C309.3 550.79 312.383 548.752 314.985 546.177C317.586 543.602 319.654 540.54 321.071 537.165C322.488 533.79 323.225 530.169 323.242 526.509L325.126 79.8348C325.146 76.1732 324.444 72.5435 323.059 69.1537C321.675 65.7638 319.635 62.6804 317.057 60.08C314.479 57.4796 311.413 55.4132 308.036 53.9992C304.658 52.5852 301.035 51.8514 297.373 51.8397Z" fill="#FAFAFA"/>
<path d="M206.869 390.913C207.048 390.913 207.2 402.142 207.2 415.98C207.2 429.819 207.048 441.06 206.869 441.06C206.691 441.06 206.538 429.831 206.538 415.98C206.538 402.129 206.691 390.913 206.869 390.913Z" fill="#FF725E"/>
<path d="M200.339 396.425C200.517 396.425 200.67 404.993 200.67 415.522C200.67 426.05 200.517 434.618 200.339 434.618C200.16 434.618 200.008 426.05 200.008 415.522C200.008 404.993 200.148 396.425 200.339 396.425Z" fill="#FF725E"/>
<path d="M192.98 401.899C193.158 401.899 193.311 408.099 193.311 415.751C193.311 423.402 193.158 429.614 192.98 429.614C192.802 429.614 192.649 423.415 192.649 415.751C192.649 408.087 192.802 401.899 192.98 401.899Z" fill="#FF725E"/>
<path d="M186.564 406.61C187.022 411.751 187.022 416.924 186.564 422.065C186.123 416.923 186.123 411.752 186.564 406.61Z" fill="#FF725E"/>
<path d="M180.911 410.378C181.352 413.192 181.352 416.057 180.911 418.87C180.47 416.057 180.47 413.192 180.911 410.378Z" fill="#FF725E"/>
<path d="M174.507 405.859C174.949 411.001 174.949 416.172 174.507 421.314C174.049 416.173 174.049 411 174.507 405.859Z" fill="#FF725E"/>
<path d="M168.473 399.685C168.651 399.685 168.804 406.177 168.804 414.198C168.804 422.218 168.651 428.724 168.473 428.724C168.295 428.724 168.129 422.218 168.129 414.198C168.129 406.177 168.282 399.685 168.473 399.685Z" fill="#FF725E"/>
<path d="M244.985 401.899C245.164 401.899 245.316 408.099 245.316 415.751C245.316 423.402 245.164 429.614 244.985 429.614C244.807 429.614 244.654 423.415 244.654 415.751C244.654 408.087 244.807 401.899 244.985 401.899Z" fill="#FF725E"/>
<path d="M238.569 406.61C239.01 411.752 239.01 416.923 238.569 422.065C238.128 416.923 238.128 411.752 238.569 406.61Z" fill="#FF725E"/>
<path d="M232.917 410.378C233.358 413.192 233.358 416.057 232.917 418.87C232.475 416.057 232.475 413.192 232.917 410.378Z" fill="#FF725E"/>
<path d="M226.475 403.593C226.819 406.912 226.933 410.251 226.818 413.586C226.933 416.922 226.819 420.261 226.475 423.58C226.147 420.26 226.036 416.921 226.144 413.586C226.036 410.252 226.147 406.913 226.475 403.593Z" fill="#FF725E"/>
<path d="M220.466 399.685C220.657 399.685 220.81 406.177 220.81 414.198C220.81 422.218 220.657 428.724 220.466 428.724C220.275 428.724 220.135 422.218 220.135 414.198C220.135 406.177 220.288 399.685 220.466 399.685Z" fill="#FF725E"/>
<path d="M213.12 396.616C213.299 396.616 213.451 404.891 213.451 415.089C213.451 425.286 213.299 433.574 213.12 433.574C212.942 433.574 212.789 425.299 212.789 415.089C212.789 404.879 212.929 396.616 213.12 396.616Z" fill="#FF725E"/>
<path d="M251.835 421.327C251.394 416.185 251.394 411.014 251.835 405.872C252.276 411.014 252.276 416.185 251.835 421.327Z" fill="#FF725E"/>
<path d="M257.5 417.508C257.059 414.694 257.059 411.829 257.5 409.016C257.941 411.829 257.941 414.694 257.5 417.508Z" fill="#FF725E"/>
<path d="M162.566 405.859C163.007 411.001 163.007 416.172 162.566 421.314C162.125 416.172 162.125 411.001 162.566 405.859Z" fill="#FF725E"/>
<path d="M156.901 409.627C157.342 412.436 157.342 415.297 156.901 418.106C156.459 415.297 156.459 412.436 156.901 409.627Z" fill="#FF725E"/>
<path d="M151.261 405.859C151.703 411.001 151.703 416.172 151.261 421.314C150.82 416.172 150.82 411.001 151.261 405.859Z" fill="#FF725E"/>
<path d="M145.227 399.685C145.405 399.685 145.558 406.177 145.558 414.198C145.558 422.218 145.405 428.724 145.227 428.724C145.048 428.724 144.896 422.218 144.896 414.198C144.896 406.177 144.998 399.685 145.227 399.685Z" fill="#FF725E"/>
<path d="M139.319 405.859C139.761 411.001 139.761 416.172 139.319 421.314C138.878 416.172 138.878 411.001 139.319 405.859Z" fill="#FF725E"/>
<path d="M133.667 409.627C134.109 412.436 134.109 415.297 133.667 418.106C133.226 415.297 133.226 412.436 133.667 409.627Z" fill="#FF725E"/>
<path d="M275.425 405.859C275.866 411.001 275.866 416.172 275.425 421.314C274.984 416.172 274.984 411.001 275.425 405.859Z" fill="#FF725E"/>
<path d="M269.39 399.685C269.581 399.685 269.721 406.177 269.721 414.198C269.721 422.218 269.581 428.724 269.39 428.724C269.199 428.724 269.059 422.218 269.059 414.198C269.059 406.177 269.212 399.685 269.39 399.685Z" fill="#FF725E"/>
<path d="M263.496 405.859C263.938 411.001 263.938 416.172 263.496 421.314C263.038 416.173 263.038 411 263.496 405.859Z" fill="#FF725E"/>
<path d="M257.831 409.627C258.272 412.436 258.272 415.297 257.831 418.106C257.389 415.297 257.389 412.436 257.831 409.627Z" fill="#FF725E"/>
<path d="M282.796 409.627C283.238 412.436 283.238 415.297 282.796 418.106C282.355 415.297 282.355 412.436 282.796 409.627Z" fill="#FF725E"/>
<g opacity="0.3">
<path d="M305.189 231.943C305.189 231.943 305.189 231.408 305.113 230.365C305.037 229.321 305.113 227.818 304.909 225.743C304.51 219.832 303.577 213.969 302.121 208.226C301.067 204.076 299.736 200.001 298.137 196.029C296.262 191.303 294.01 186.735 291.402 182.369C285.004 171.713 276.64 162.368 266.755 154.832C254.745 145.703 240.769 139.504 225.94 136.729C217.708 135.193 209.312 134.735 200.962 135.367C196.602 135.678 192.268 136.282 187.989 137.175C183.593 138.125 179.264 139.363 175.029 140.879C157.02 147.444 141.357 159.191 130.013 174.642C127.052 178.672 124.413 182.928 122.12 187.372C120.923 189.588 119.905 191.905 118.861 194.222C117.817 196.539 116.964 198.932 116.2 201.376C112.929 211.232 111.253 221.546 111.235 231.93C111.267 237.153 111.693 242.367 112.508 247.526C113.317 252.614 114.548 257.626 116.187 262.51C116.964 264.954 117.919 267.309 118.861 269.665C119.803 272.02 120.911 274.299 122.107 276.514C133.294 298.099 152.183 314.693 175.029 323.007C179.264 324.524 183.593 325.761 187.989 326.711C200.497 329.306 213.388 329.457 225.953 327.157C240.779 324.385 254.751 318.186 266.755 309.054C276.645 301.513 285.009 292.159 291.402 281.492C294.023 277.13 296.284 272.561 298.162 267.831C299.767 263.865 301.103 259.794 302.159 255.648C303.606 249.903 304.535 244.041 304.935 238.13C305.113 236.106 305.075 234.553 305.138 233.509C305.202 232.465 305.215 231.943 305.215 231.943C305.215 231.943 305.215 232.465 305.215 233.509C305.215 234.553 305.215 236.055 305.075 238.143C304.736 244.069 303.845 249.951 302.414 255.712C300.125 264.839 296.527 273.586 291.733 281.683C285.345 292.409 276.972 301.819 267.061 309.41C261.303 313.824 255.063 317.57 248.461 320.575C241.32 323.863 233.798 326.249 226.067 327.679C217.787 329.239 209.339 329.714 200.937 329.092C196.547 328.78 192.184 328.176 187.875 327.284C183.453 326.334 179.099 325.097 174.838 323.58C156.699 316.981 140.919 305.157 129.491 289.601C126.514 285.55 123.858 281.272 121.547 276.807C120.274 274.566 119.319 272.236 118.263 269.907C117.206 267.577 116.353 265.158 115.576 262.701C113.929 257.782 112.685 252.736 111.859 247.615C111.044 242.422 110.618 237.174 110.586 231.918C110.606 221.461 112.291 211.074 115.576 201.147C116.353 198.69 117.333 196.322 118.275 193.942C119.217 191.561 120.35 189.295 121.547 187.054C123.86 182.608 126.521 178.351 129.504 174.323C140.928 158.771 156.703 146.952 174.838 140.358C179.099 138.84 183.453 137.603 187.875 136.653C192.184 135.76 196.547 135.156 200.937 134.845C209.318 134.193 217.749 134.633 226.016 136.156C240.92 138.954 254.96 145.207 267.01 154.412C276.922 162.006 285.299 171.416 291.695 182.14C294.31 186.528 296.562 191.122 298.429 195.877C300.016 199.867 301.335 203.958 302.376 208.124C303.808 213.884 304.699 219.766 305.037 225.692C305.202 227.729 305.138 229.282 305.177 230.326C305.215 231.37 305.189 231.943 305.189 231.943Z" fill="#FF725E"/>
</g>
<path d="M292.879 229.842C292.879 229.842 292.879 229.384 292.879 228.48C292.879 227.576 292.879 226.239 292.688 224.495C291.879 212.547 288.52 200.911 282.837 190.37C277.154 179.83 269.278 170.629 259.74 163.387C249.382 155.517 237.328 150.177 224.54 147.792C217.441 146.47 210.2 146.072 202.999 146.608C199.234 146.882 195.492 147.405 191.796 148.174C188.009 148.996 184.279 150.063 180.631 151.369C160.936 158.548 144.65 172.854 134.991 191.459C132.965 195.335 131.262 199.372 129.899 203.528C124.212 220.645 124.212 239.142 129.899 256.259C131.251 260.423 132.954 264.465 134.991 268.34C136.969 272.168 139.246 275.833 141.802 279.302C151.585 292.634 165.096 302.774 180.631 308.442C184.28 309.743 188.01 310.806 191.796 311.625C195.491 312.4 199.234 312.923 202.999 313.191C210.2 313.74 217.442 313.342 224.54 312.007C237.328 309.622 249.382 304.282 259.74 296.412C269.296 289.16 277.182 279.939 282.865 269.374C288.547 258.809 291.892 247.147 292.675 235.176C292.841 233.432 292.802 232.096 292.866 231.192C292.93 230.288 292.866 229.842 292.866 229.842C292.866 229.842 292.866 231.688 292.752 235.189C292.007 248.459 288.077 261.354 281.294 272.783C275.78 282.039 268.557 290.161 260.008 296.717C249.605 304.669 237.484 310.071 224.616 312.491C213.711 314.518 202.516 314.402 191.656 312.147C187.84 311.325 184.081 310.258 180.402 308.952C164.747 303.273 151.125 293.084 141.255 279.671C138.672 276.176 136.373 272.481 134.38 268.62C132.341 264.715 130.638 260.643 129.288 256.45C123.55 239.201 123.55 220.559 129.288 203.311C130.638 199.118 132.342 195.046 134.38 191.14C136.377 187.288 138.671 183.598 141.242 180.103C151.111 166.689 164.733 156.499 180.389 150.822C184.066 149.51 187.826 148.442 191.643 147.626C195.358 146.845 199.123 146.322 202.91 146.061C210.149 145.545 217.424 145.973 224.552 147.334C237.414 149.753 249.531 155.151 259.931 163.094C268.469 169.607 275.692 177.681 281.217 186.888C288 198.318 291.93 211.213 292.675 224.483C292.93 227.996 292.879 229.842 292.879 229.842Z" fill="#FF725E"/>
<path d="M208.041 300.957C246.156 300.957 277.055 270.058 277.055 231.943C277.055 193.828 246.156 162.929 208.041 162.929C169.926 162.929 139.027 193.828 139.027 231.943C139.027 270.058 169.926 300.957 208.041 300.957Z" fill="#FF725E"/>
<path d="M208.601 210.988H207.264C202.596 210.988 198.811 214.772 198.811 219.441V231.497C198.811 236.166 202.596 239.95 207.264 239.95H208.601C213.27 239.95 217.054 236.166 217.054 231.497V219.441C217.054 214.772 213.27 210.988 208.601 210.988Z" fill="#FAFAFA"/>
<path d="M207.926 245.476C204.363 245.469 200.947 244.051 198.428 241.531C195.908 239.011 194.489 235.595 194.483 232.032C194.483 231.863 194.55 231.701 194.669 231.582C194.788 231.463 194.95 231.396 195.119 231.396C195.288 231.396 195.45 231.463 195.569 231.582C195.689 231.701 195.756 231.863 195.756 232.032C195.759 235.259 197.042 238.353 199.324 240.634C201.606 242.916 204.699 244.199 207.926 244.203C209.545 244.277 211.161 244.013 212.672 243.428C214.183 242.842 215.555 241.949 216.702 240.804C217.848 239.659 218.743 238.287 219.33 236.777C219.917 235.267 220.182 233.651 220.11 232.032C220.11 231.863 220.177 231.701 220.296 231.582C220.416 231.463 220.577 231.396 220.746 231.396C220.915 231.396 221.077 231.463 221.196 231.582C221.316 231.701 221.383 231.863 221.383 232.032C221.383 239.938 215.845 245.463 207.926 245.476Z" fill="#FAFAFA"/>
<path d="M208.562 244.827H207.289V251.421H208.562V244.827Z" fill="white"/>
<path d="M215.895 251.777H199.969C199.8 251.777 199.638 251.71 199.519 251.591C199.4 251.472 199.332 251.31 199.332 251.141C199.332 250.972 199.4 250.81 199.519 250.691C199.638 250.571 199.8 250.504 199.969 250.504H215.895C216.064 250.504 216.226 250.571 216.345 250.691C216.465 250.81 216.532 250.972 216.532 251.141C216.529 251.309 216.46 251.469 216.342 251.587C216.223 251.706 216.063 251.774 215.895 251.777Z" fill="white"/>
<path d="M194.648 216.259C194.571 216.424 193.604 216.08 192.458 215.597C191.312 215.113 190.396 214.642 190.447 214.464C190.497 214.285 191.541 214.464 192.713 214.985C193.884 215.507 194.648 216.093 194.648 216.259Z" fill="white"/>
<path d="M199.74 209.435C199.6 209.549 198.773 208.671 197.894 207.487C197.016 206.303 196.43 205.246 196.621 205.144C196.812 205.043 197.589 205.908 198.467 207.092C199.345 208.276 199.867 209.333 199.74 209.435Z" fill="white"/>
<path d="M207.977 206.991C207.786 206.991 207.658 205.883 207.671 204.445C207.684 203.006 207.849 201.898 208.028 201.898C208.469 203.537 208.469 205.263 208.028 206.902L207.977 206.991Z" fill="white"/>
<path d="M218.569 205.196C218.722 205.298 218.327 206.24 217.589 207.233C216.851 208.226 216.036 208.862 215.908 208.735C215.781 208.608 216.329 207.793 217.054 206.825C217.78 205.858 218.404 205.107 218.569 205.196Z" fill="white"/>
<path d="M225.686 213.814C225.775 213.98 224.922 214.629 223.789 215.278C222.656 215.928 221.663 216.31 221.574 216.157C221.485 216.004 222.325 215.342 223.458 214.693C224.591 214.043 225.597 213.662 225.686 213.814Z" fill="white"/>
<path d="M154.928 367.692L152.891 364.751H150.637V367.692H148.18V357.112H152.763C155.59 357.112 157.359 358.589 157.359 360.932C157.395 361.649 157.204 362.36 156.813 362.963C156.423 363.567 155.852 364.032 155.182 364.293L157.55 367.692H154.928ZM152.636 359.111H150.65V362.765H152.636C154.138 362.765 154.889 362.065 154.889 360.919C154.889 359.773 154.126 359.111 152.636 359.111Z" fill="#263238"/>
<path d="M167.047 364.293H160.898C161.022 364.802 161.326 365.249 161.755 365.552C162.183 365.854 162.707 365.99 163.228 365.935C163.603 365.947 163.977 365.884 164.327 365.748C164.677 365.612 164.996 365.408 165.265 365.146L166.538 366.508C166.102 366.949 165.576 367.291 164.996 367.511C164.416 367.731 163.796 367.823 163.177 367.781C162.592 367.84 162 367.775 161.441 367.591C160.882 367.408 160.368 367.109 159.931 366.714C159.495 366.32 159.146 365.838 158.907 365.3C158.668 364.763 158.544 364.181 158.543 363.592C158.536 363.028 158.643 362.469 158.86 361.948C159.077 361.427 159.398 360.956 159.803 360.564C160.209 360.172 160.69 359.866 161.218 359.667C161.745 359.467 162.308 359.378 162.872 359.404C163.434 359.373 163.997 359.461 164.524 359.661C165.051 359.862 165.529 360.17 165.929 360.568C166.329 360.965 166.64 361.442 166.844 361.967C167.048 362.493 167.139 363.055 167.111 363.618C167.098 363.847 167.06 364.102 167.047 364.293ZM160.873 362.918H164.87C164.794 362.442 164.551 362.01 164.185 361.697C163.819 361.385 163.353 361.214 162.872 361.214C162.39 361.214 161.925 361.385 161.558 361.697C161.192 362.01 160.949 362.442 160.873 362.918Z" fill="#263238"/>
<path d="M175.641 363.058V367.692H173.426V366.686C173.154 367.079 172.781 367.392 172.346 367.592C171.912 367.791 171.431 367.87 170.956 367.819C169.046 367.819 167.913 366.762 167.913 365.349C167.913 363.936 168.932 362.918 171.401 362.918H173.273C173.273 361.912 172.674 361.314 171.401 361.314C170.559 361.311 169.738 361.579 169.059 362.078L168.219 360.423C169.266 359.762 170.482 359.422 171.72 359.442C174.202 359.442 175.641 360.601 175.641 363.058ZM173.273 365.133V364.293H171.656C170.561 364.293 170.205 364.7 170.205 365.248C170.205 365.795 170.714 366.228 171.478 366.228C171.856 366.27 172.237 366.185 172.562 365.987C172.887 365.789 173.137 365.488 173.273 365.133Z" fill="#263238"/>
<path d="M186.143 356.489V367.692H183.89V366.763C183.576 367.123 183.182 367.405 182.741 367.589C182.299 367.772 181.821 367.851 181.344 367.819C180.233 367.819 179.168 367.378 178.382 366.592C177.597 365.807 177.155 364.742 177.155 363.631C177.155 362.52 177.597 361.455 178.382 360.669C179.168 359.884 180.233 359.442 181.344 359.442C181.796 359.421 182.247 359.498 182.667 359.667C183.086 359.836 183.465 360.094 183.775 360.423V356.489H186.143ZM183.826 363.631C183.794 363.225 183.644 362.838 183.395 362.517C183.146 362.195 182.808 361.954 182.423 361.822C182.039 361.69 181.624 361.673 181.23 361.773C180.836 361.873 180.48 362.087 180.205 362.387C179.93 362.687 179.749 363.06 179.684 363.462C179.619 363.863 179.673 364.275 179.838 364.646C180.004 365.018 180.274 365.333 180.616 365.553C180.958 365.773 181.357 365.888 181.764 365.884C182.052 365.885 182.336 365.826 182.6 365.711C182.864 365.596 183.1 365.426 183.294 365.214C183.488 365.002 183.636 364.751 183.728 364.479C183.819 364.206 183.853 363.917 183.826 363.631Z" fill="#263238"/>
<path d="M196.392 359.57L192.713 368.201C192.531 368.948 192.098 369.609 191.485 370.073C190.873 370.537 190.119 370.775 189.352 370.747C188.534 370.769 187.734 370.508 187.085 370.009L187.938 368.329C188.31 368.652 188.783 368.837 189.275 368.851C189.924 368.851 190.281 368.558 190.548 367.832V367.756L187.022 359.57H189.555L191.834 365.082L194.138 359.57H196.392Z" fill="#263238"/>
<path d="M206.882 367.31C206.306 367.667 205.637 367.844 204.96 367.819C204.558 367.875 204.15 367.839 203.765 367.714C203.38 367.589 203.028 367.379 202.736 367.098C202.444 366.817 202.22 366.474 202.08 366.094C201.941 365.713 201.889 365.307 201.93 364.904V361.568H200.657V359.748H201.93V357.762H204.285V359.748H206.309V361.568H204.285V364.866C204.266 365.006 204.278 365.148 204.321 365.283C204.363 365.418 204.435 365.541 204.531 365.645C204.628 365.748 204.746 365.829 204.877 365.882C205.008 365.934 205.149 365.956 205.291 365.948C205.633 365.95 205.967 365.843 206.245 365.642L206.882 367.31Z" fill="#263238"/>
<path d="M207.378 363.631C207.32 362.734 207.532 361.84 207.988 361.065C208.444 360.29 209.122 359.67 209.935 359.286C210.748 358.902 211.657 358.771 212.545 358.911C213.433 359.05 214.259 359.453 214.915 360.068C215.571 360.683 216.026 361.481 216.223 362.358C216.419 363.235 216.348 364.151 216.017 364.987C215.686 365.823 215.111 366.54 214.368 367.045C213.624 367.55 212.746 367.82 211.847 367.819C211.274 367.857 210.699 367.777 210.158 367.584C209.617 367.391 209.122 367.089 208.702 366.696C208.283 366.303 207.95 365.828 207.722 365.301C207.494 364.773 207.377 364.205 207.378 363.631ZM213.922 363.631C213.89 363.226 213.74 362.839 213.492 362.518C213.243 362.197 212.906 361.955 212.522 361.822C212.138 361.69 211.724 361.672 211.33 361.772C210.936 361.871 210.58 362.083 210.305 362.382C210.03 362.68 209.848 363.053 209.781 363.454C209.715 363.854 209.766 364.266 209.93 364.637C210.094 365.009 210.362 365.325 210.703 365.546C211.043 365.768 211.441 365.885 211.847 365.884C212.133 365.883 212.417 365.823 212.679 365.707C212.941 365.591 213.176 365.421 213.369 365.209C213.562 364.997 213.708 364.747 213.799 364.475C213.89 364.204 213.923 363.916 213.897 363.631H213.922Z" fill="#263238"/>
<path d="M222.134 356.489H224.489V367.692H222.134V356.489Z" fill="#263238"/>
<path d="M226.399 357.113C226.408 356.932 226.454 356.755 226.533 356.592C226.613 356.43 226.724 356.285 226.861 356.166C226.997 356.047 227.156 355.957 227.328 355.901C227.501 355.845 227.682 355.824 227.863 355.84C228.045 355.812 228.231 355.824 228.409 355.876C228.586 355.927 228.75 356.017 228.889 356.138C229.028 356.259 229.14 356.409 229.215 356.577C229.291 356.745 229.329 356.928 229.327 357.113C229.327 357.501 229.172 357.873 228.898 358.148C228.623 358.422 228.251 358.577 227.863 358.577C227.474 358.577 227.102 358.422 226.827 358.148C226.553 357.873 226.399 357.501 226.399 357.113ZM226.691 359.57H229.021V367.692H226.666L226.691 359.57Z" fill="#263238"/>
<path d="M230.447 366.941L231.236 365.248C232.091 365.76 233.067 366.032 234.063 366.037C235.158 366.037 235.565 365.744 235.565 365.299C235.565 363.962 230.651 365.299 230.651 362.078C230.651 360.537 232.039 359.442 234.406 359.442C235.493 359.419 236.569 359.664 237.538 360.155L236.749 361.836C236.037 361.427 235.228 361.216 234.406 361.225C233.35 361.225 232.904 361.568 232.904 361.989C232.904 363.376 237.806 361.989 237.806 365.235C237.806 366.75 236.405 367.781 233.986 367.781C232.753 367.815 231.533 367.526 230.447 366.941Z" fill="#263238"/>
<path d="M244.515 367.31C243.939 367.667 243.269 367.844 242.592 367.819C242.191 367.875 241.782 367.839 241.396 367.714C241.01 367.589 240.658 367.378 240.365 367.098C240.073 366.817 239.847 366.474 239.706 366.094C239.565 365.714 239.511 365.307 239.55 364.904V361.568H238.276V359.748H239.55V357.762H241.905V359.748H243.929V361.568H241.905V364.866C241.885 365.007 241.898 365.15 241.941 365.286C241.985 365.422 242.058 365.546 242.155 365.65C242.253 365.754 242.373 365.834 242.506 365.886C242.638 365.937 242.781 365.958 242.923 365.948C243.265 365.946 243.599 365.839 243.878 365.642L244.515 367.31Z" fill="#263238"/>
<path d="M253.503 364.293H247.354C247.477 364.802 247.782 365.249 248.21 365.552C248.639 365.854 249.162 365.99 249.683 365.935C250.059 365.947 250.432 365.884 250.782 365.748C251.132 365.612 251.451 365.408 251.72 365.146L252.993 366.508C252.561 366.95 252.038 367.293 251.459 367.513C250.881 367.733 250.262 367.824 249.645 367.781C246.832 367.781 244.998 366.011 244.998 363.592C244.991 363.027 245.099 362.467 245.317 361.945C245.534 361.423 245.856 360.951 246.263 360.559C246.67 360.166 247.152 359.862 247.682 359.663C248.211 359.464 248.775 359.376 249.34 359.404C249.902 359.373 250.465 359.461 250.992 359.661C251.519 359.862 251.997 360.17 252.397 360.568C252.797 360.965 253.108 361.442 253.312 361.967C253.516 362.493 253.607 363.055 253.579 363.618C253.554 363.847 253.515 364.102 253.503 364.293ZM247.315 362.918H251.326C251.242 362.447 250.995 362.021 250.628 361.714C250.261 361.408 249.799 361.239 249.321 361.239C248.843 361.239 248.38 361.408 248.013 361.714C247.647 362.021 247.4 362.447 247.315 362.918Z" fill="#263238"/>
<path d="M263.394 363.045V367.692H261.039V363.402C261.039 362.129 260.428 361.492 259.397 361.492C258.366 361.492 257.436 362.179 257.436 363.682V367.692H255.119V359.57H257.373V360.524C257.719 360.165 258.138 359.884 258.601 359.697C259.063 359.511 259.56 359.424 260.059 359.442C260.527 359.418 260.994 359.497 261.428 359.673C261.862 359.849 262.252 360.119 262.57 360.463C262.889 360.806 263.127 361.216 263.27 361.662C263.412 362.108 263.455 362.581 263.394 363.045Z" fill="#263238"/>
<path d="M186.335 492.492C186.327 491.912 186.438 491.337 186.661 490.801C186.885 490.265 187.215 489.781 187.633 489.378C188.05 488.975 188.546 488.662 189.089 488.457C189.632 488.253 190.211 488.162 190.79 488.189C191.383 488.162 191.975 488.261 192.526 488.481C193.077 488.7 193.575 489.035 193.986 489.463L193.197 490.226C192.898 489.901 192.534 489.643 192.127 489.47C191.721 489.296 191.283 489.211 190.841 489.221C189.984 489.221 189.161 489.561 188.555 490.168C187.948 490.774 187.608 491.597 187.608 492.454C187.608 493.312 187.948 494.134 188.555 494.741C189.161 495.347 189.984 495.688 190.841 495.688C191.284 495.695 191.723 495.608 192.129 495.432C192.535 495.257 192.899 494.997 193.197 494.669L193.986 495.433C193.573 495.862 193.073 496.197 192.52 496.417C191.966 496.636 191.372 496.735 190.778 496.706C190.207 496.732 189.636 496.642 189.101 496.443C188.565 496.243 188.075 495.937 187.661 495.544C187.246 495.15 186.915 494.677 186.687 494.153C186.459 493.629 186.339 493.064 186.335 492.492Z" fill="#263238"/>
<path d="M200.491 492.848V496.668H199.396V495.827C199.153 496.143 198.835 496.393 198.47 496.554C198.105 496.714 197.705 496.779 197.308 496.744C195.87 496.744 194.953 495.967 194.953 494.873C194.953 493.778 195.615 493.001 197.499 493.001H199.32V492.772C199.32 491.804 198.76 491.244 197.614 491.244C196.885 491.239 196.176 491.482 195.602 491.932L195.119 491.066C195.881 490.507 196.809 490.221 197.754 490.251C199.498 490.277 200.491 491.117 200.491 492.848ZM199.333 494.745V493.892H197.563C196.417 493.892 196.099 494.338 196.099 494.885C196.099 495.433 196.621 495.916 197.499 495.916C197.89 495.943 198.279 495.843 198.608 495.632C198.938 495.421 199.192 495.111 199.333 494.745Z" fill="#263238"/>
<path d="M208.652 493.027V496.693H207.493V493.167C207.493 491.894 206.869 491.308 205.787 491.308C205.508 491.285 205.227 491.325 204.964 491.424C204.702 491.523 204.466 491.68 204.272 491.883C204.078 492.085 203.931 492.328 203.843 492.594C203.755 492.861 203.728 493.143 203.763 493.421V496.693H202.617V490.328H203.712V491.346C203.986 491.004 204.339 490.733 204.74 490.556C205.141 490.379 205.579 490.301 206.016 490.328C206.375 490.3 206.735 490.351 207.072 490.478C207.409 490.604 207.714 490.803 207.965 491.061C208.217 491.318 208.408 491.628 208.527 491.967C208.645 492.307 208.688 492.669 208.652 493.027Z" fill="#263238"/>
<path d="M210.243 493.511C210.235 493.072 210.318 492.636 210.487 492.231C210.656 491.826 210.906 491.46 211.223 491.156C211.54 490.853 211.916 490.618 212.328 490.467C212.74 490.315 213.179 490.251 213.617 490.277C214.124 490.252 214.628 490.364 215.076 490.601C215.524 490.839 215.9 491.193 216.163 491.627L215.285 492.187C215.1 491.901 214.845 491.667 214.544 491.509C214.243 491.35 213.906 491.273 213.566 491.283C212.972 491.283 212.402 491.519 211.982 491.939C211.561 492.359 211.325 492.929 211.325 493.524C211.325 494.118 211.561 494.688 211.982 495.108C212.402 495.528 212.972 495.764 213.566 495.764C213.907 495.772 214.244 495.692 214.545 495.531C214.846 495.371 215.101 495.135 215.285 494.848L216.163 495.395C215.902 495.832 215.528 496.191 215.079 496.433C214.631 496.675 214.126 496.792 213.617 496.77C213.177 496.795 212.737 496.728 212.324 496.575C211.911 496.421 211.535 496.184 211.218 495.878C210.901 495.572 210.651 495.203 210.483 494.796C210.316 494.389 210.234 493.951 210.243 493.511Z" fill="#263238"/>
<path d="M223.317 493.893H218.161C218.232 494.441 218.51 494.941 218.939 495.29C219.368 495.638 219.915 495.808 220.466 495.764C220.809 495.776 221.151 495.712 221.468 495.578C221.785 495.444 222.068 495.243 222.299 494.988L222.936 495.739C222.464 496.214 221.865 496.542 221.211 496.684C220.557 496.826 219.876 496.777 219.249 496.542C218.623 496.307 218.078 495.895 217.679 495.358C217.281 494.82 217.046 494.179 217.003 493.511C216.987 493.085 217.059 492.661 217.213 492.264C217.368 491.867 217.602 491.506 217.901 491.203C218.201 490.9 218.559 490.662 218.954 490.503C219.349 490.343 219.773 490.267 220.198 490.277C220.625 490.266 221.05 490.344 221.445 490.506C221.841 490.668 222.198 490.91 222.494 491.218C222.79 491.526 223.018 491.893 223.164 492.294C223.311 492.696 223.371 493.123 223.343 493.549C223.341 493.664 223.332 493.779 223.317 493.893ZM218.161 493.066H222.235C222.179 492.565 221.94 492.102 221.565 491.766C221.189 491.43 220.703 491.244 220.198 491.244C219.694 491.244 219.208 491.43 218.832 491.766C218.456 492.102 218.218 492.565 218.161 493.066Z" fill="#263238"/>
<path d="M224.947 487.782H226.093V496.694H224.947V487.782Z" fill="#263238"/>
<path d="M264.553 514.046C264.553 514.046 264.871 514.046 265.482 513.957L266.615 513.88L268.181 513.626C272.627 512.746 276.623 510.333 279.471 506.808C282.319 503.283 283.838 498.87 283.764 494.339C283.803 492.673 283.748 491.007 283.598 489.348C283.374 487.599 282.92 485.887 282.249 484.256C281.501 482.544 280.529 480.938 279.359 479.482C278.085 477.987 276.607 476.68 274.967 475.599C271.375 473.337 267.159 472.272 262.923 472.556H249.06H218.506H148.486C145.404 472.587 142.375 473.356 139.651 474.797C136.983 476.179 134.683 478.178 132.942 480.627C131.202 483.03 130.067 485.816 129.632 488.75C129.507 489.469 129.439 490.197 129.428 490.927C129.428 491.652 129.428 492.403 129.428 493.142C129.382 494.593 129.459 496.045 129.657 497.483C130.062 500.32 131.107 503.028 132.712 505.402C134.307 507.715 136.383 509.656 138.798 511.092C141.166 512.495 143.812 513.364 146.551 513.639L148.575 513.728H154.686L211.886 513.791L250.447 513.893H260.937L250.447 513.957L211.886 514.059L154.686 514.122H148.575L146.487 514.02C143.659 513.74 140.926 512.845 138.48 511.398C135.982 509.917 133.833 507.915 132.178 505.529C130.521 503.073 129.437 500.275 129.008 497.343C128.811 495.871 128.734 494.385 128.779 492.9C128.779 492.149 128.779 491.423 128.779 490.659C128.783 489.904 128.851 489.15 128.982 488.406C129.436 485.374 130.605 482.493 132.394 480.004C134.203 477.469 136.585 475.397 139.345 473.957C142.151 472.517 145.256 471.759 148.41 471.741H218.429H248.983H262.847C266.011 471.515 269.184 472.046 272.102 473.29C275.02 474.534 277.599 476.456 279.626 478.896C282.002 481.776 283.492 485.282 283.917 488.992C284.052 490.685 284.099 492.385 284.057 494.084C284.132 496.92 283.59 499.739 282.466 502.344C281.343 504.949 279.666 507.278 277.551 509.17C274.917 511.527 271.684 513.113 268.207 513.753L266.628 513.97C266.183 513.97 265.788 513.97 265.482 513.97L264.553 514.046Z" fill="#263238"/>
<path d="M305.19 101.185C301.922 101.544 298.633 101.663 295.349 101.541C292.06 101.664 288.766 101.545 285.495 101.185C288.767 100.832 292.06 100.713 295.349 100.828C298.633 100.713 301.922 100.832 305.19 101.185Z" fill="#263238"/>
<path d="M305.19 96.0414C301.922 96.4013 298.633 96.5204 295.349 96.3979C292.06 96.5207 288.766 96.4015 285.495 96.0414C288.767 95.6891 292.06 95.5699 295.349 95.685C298.633 95.5702 301.922 95.6893 305.19 96.0414Z" fill="#263238"/>
<path d="M305.19 90.8979C301.922 91.2577 298.633 91.3769 295.349 91.2544C292.06 91.3771 288.766 91.258 285.495 90.8979C288.767 90.5455 292.06 90.4264 295.349 90.5414C298.633 90.4266 301.922 90.5457 305.19 90.8979Z" fill="#263238"/>
<path d="M108.931 104.507C109.071 104.49 109.212 104.49 109.351 104.507H110.535L114.876 104.405L114.762 104.533C114.762 103.565 114.762 102.521 114.762 101.375C114.762 100.79 114.762 100.242 114.762 99.5675C114.843 99.2291 115.027 98.9245 115.29 98.6962C115.552 98.4679 115.88 98.3274 116.226 98.2945C116.926 98.2945 117.499 98.2945 118.301 98.2945C118.7 98.3583 119.063 98.5628 119.325 98.871C119.586 99.1792 119.729 99.5707 119.727 99.9749C119.727 101.439 119.727 102.979 119.727 104.571L119.523 104.367H125.01L124.794 104.571C124.794 102.368 124.794 100.09 124.794 97.747C124.794 97.1614 124.794 96.5758 124.794 96.0029C124.766 95.748 124.684 95.5022 124.552 95.2824C124.42 95.0626 124.242 94.874 124.03 94.7298L121.636 92.3746L119.319 90.0958L118.199 88.9882C117.817 88.619 117.512 88.2244 117.066 88.1352C116.849 88.0761 116.622 88.0672 116.402 88.1091C116.181 88.151 115.973 88.2427 115.793 88.3771C115.462 88.6572 115.106 89.0519 114.775 89.3829C114.1 90.0576 113.501 90.6559 112.814 91.3689C111.541 92.642 110.268 93.8259 109.338 94.9335C109.063 95.5792 108.97 96.2884 109.071 96.9832C109.071 97.6579 109.071 98.2563 109.071 98.9183C109.071 100.102 109.071 101.133 109.071 102.025C109.071 102.916 109.071 103.476 109.071 104.011C109.089 104.252 109.089 104.495 109.071 104.736C109.053 104.516 109.053 104.295 109.071 104.074C109.071 103.54 109.071 102.903 109.071 102.114C109.071 101.324 109.071 100.166 108.995 98.9819C108.995 98.3581 108.995 97.7088 108.995 97.0086C108.995 96.6522 108.995 96.2957 108.995 95.9265C108.997 95.5247 109.102 95.1301 109.3 94.7807C110.319 93.5077 111.528 92.4383 112.776 91.1143L114.444 88.8864C114.8 88.5426 115.08 88.1989 115.5 87.8424C115.724 87.6725 115.984 87.5556 116.259 87.5004C116.535 87.4453 116.819 87.4534 117.092 87.5242C117.595 87.7135 118.036 88.0398 118.365 88.4662L119.498 89.5738L121.815 91.8399L124.208 94.2079C124.441 94.4036 124.65 94.6257 124.832 94.8699C125.008 95.1438 125.105 95.461 125.112 95.7865C125.112 96.3721 125.112 96.945 125.112 97.5433C125.112 99.8731 125.112 102.165 125.112 104.367V104.583H124.896H119.409H119.218V104.38C119.218 102.788 119.218 101.248 119.218 99.784C119.22 99.4731 119.109 99.1721 118.905 98.9376C118.701 98.703 118.418 98.5513 118.11 98.5109C117.473 98.5109 116.735 98.5109 116.111 98.5109C115.827 98.5408 115.561 98.6607 115.35 98.8531C115.139 99.0455 114.996 99.3003 114.94 99.5803C114.94 100.128 114.94 100.764 114.94 101.324V104.596H114.813H110.395H109.249L108.931 104.507Z" fill="#263238"/>
<path d="M398.812 175.94C398.634 181.911 402.861 182.484 405.776 182.726C408.691 182.968 412.027 181.644 414.688 180.383C420.086 177.837 425.318 175.189 427.495 169.231" fill="#FFBE9D"/>
<path d="M332.586 120.217C332.408 120.217 332.255 129.129 332.255 140.014C332.255 150.899 332.408 159.797 332.586 159.797C332.765 159.797 332.917 150.886 332.917 140.014C332.917 129.142 332.765 120.217 332.586 120.217Z" fill="#FF725E"/>
<path d="M327.43 124.571C327.252 124.571 327.099 131.331 327.099 139.683C327.099 148.034 327.252 154.782 327.43 154.782C327.608 154.782 327.761 148.021 327.761 139.683C327.761 131.344 327.608 124.571 327.43 124.571Z" fill="#FF725E"/>
<path d="M321.625 128.887C321.297 132.522 321.187 136.174 321.294 139.823C321.187 143.475 321.297 147.131 321.625 150.771C321.96 147.132 322.071 143.475 321.956 139.823C322.071 136.174 321.96 132.522 321.625 128.887Z" fill="#FF725E"/>
<path d="M316.571 132.604C316.237 134.623 316.126 136.672 316.24 138.715C316.126 140.753 316.237 142.798 316.571 144.813C316.897 142.798 317.008 140.753 316.902 138.715C317.008 136.672 316.898 134.623 316.571 132.604Z" fill="#FF725E"/>
<path d="M312.103 135.583C311.661 137.793 311.661 140.069 312.103 142.279C312.544 140.069 312.544 137.793 312.103 135.583Z" fill="#FF725E"/>
<path d="M307.036 132.006C306.709 134.025 306.598 136.074 306.705 138.117C306.598 140.155 306.709 142.2 307.036 144.215C307.37 142.2 307.481 140.155 307.367 138.117C307.481 136.074 307.37 134.024 307.036 132.006Z" fill="#FF725E"/>
<path d="M302.274 127.104C301.947 130.914 301.836 134.74 301.943 138.562C301.836 142.385 301.947 146.21 302.274 150.02C302.61 146.211 302.72 142.385 302.605 138.562C302.72 134.74 302.61 130.914 302.274 127.104Z" fill="#FF725E"/>
<path d="M362.669 128.887C362.342 132.522 362.231 136.174 362.338 139.823C362.231 143.475 362.342 147.131 362.669 150.771C363.005 147.132 363.115 143.475 363 139.823C363.115 136.174 363.005 132.522 362.669 128.887Z" fill="#FF725E"/>
<path d="M357.615 132.604C357.281 134.623 357.17 136.672 357.284 138.715C357.17 140.753 357.281 142.798 357.615 144.813C357.941 142.798 358.052 140.753 357.946 138.715C358.052 136.672 357.941 134.623 357.615 132.604Z" fill="#FF725E"/>
<path d="M353.146 135.583C352.705 137.793 352.705 140.069 353.146 142.279C353.477 141.196 353.589 140.058 353.477 138.931C353.589 137.804 353.477 136.666 353.146 135.583Z" fill="#FF725E"/>
<path d="M348.092 130.224C347.758 132.84 347.647 135.481 347.761 138.117C347.647 140.748 347.757 143.385 348.092 145.997C348.42 143.384 348.531 140.748 348.423 138.117C348.53 135.481 348.42 132.841 348.092 130.224Z" fill="#FF725E"/>
<path d="M343.331 127.104C342.987 130.913 342.873 134.74 342.988 138.562C342.873 142.385 342.987 146.211 343.331 150.02C343.659 146.21 343.77 142.385 343.662 138.562C343.77 134.74 343.659 130.914 343.331 127.104Z" fill="#FF725E"/>
<path d="M337.526 124.698C337.335 124.698 337.195 131.229 337.195 139.275C337.195 147.321 337.335 153.865 337.526 153.865C337.717 153.865 337.857 147.334 337.857 139.275C337.857 131.216 337.704 124.698 337.526 124.698Z" fill="#FF725E"/>
<path d="M368.08 144.215C368.414 142.2 368.525 140.155 368.411 138.117C368.525 136.074 368.414 134.024 368.08 132.006C367.753 134.025 367.642 136.074 367.749 138.117C367.642 140.155 367.753 142.2 368.08 144.215Z" fill="#FF725E"/>
<path d="M372.549 141.249C372.99 139.038 372.99 136.763 372.549 134.552C372.107 136.763 372.107 139.038 372.549 141.249Z" fill="#FF725E"/>
<path d="M297.576 132.006C297.25 134.025 297.139 136.074 297.245 138.117C297.138 140.155 297.249 142.2 297.576 144.215C297.911 142.2 298.022 140.155 297.907 138.117C298.022 136.074 297.911 134.024 297.576 132.006Z" fill="#FF725E"/>
<path d="M293.146 134.985C292.705 137.195 292.705 139.471 293.146 141.681C293.478 140.598 293.59 139.46 293.477 138.333C293.589 137.206 293.476 136.068 293.146 134.985Z" fill="#FF725E"/>
<path d="M338.048 521.989L328.767 548.902C328.767 548.902 298.289 548.52 296.1 553.333L347.634 573.18L363.777 531.83L338.048 521.989Z" fill="#FF725E"/>
<path d="M345.572 552.811C346.009 553.154 346.305 553.647 346.401 554.194C346.498 554.742 346.388 555.306 346.094 555.778C345.769 556.226 345.284 556.533 344.739 556.635C344.194 556.737 343.631 556.626 343.166 556.325C342.704 555.96 342.392 555.438 342.291 554.857C342.19 554.277 342.307 553.68 342.618 553.181C343.007 552.746 343.55 552.479 344.132 552.437C344.713 552.394 345.289 552.578 345.737 552.951" fill="#E0E0E0"/>
<g opacity="0.6">
<path d="M347.634 573.18L349.111 569.005L299.142 551.551C299.142 551.551 296.456 551.665 296.099 553.384L347.634 573.18Z" fill="white"/>
</g>
<path d="M328.029 548.317C327.94 548.571 329.162 549.17 330.091 550.456C331.021 551.741 331.262 553.065 331.53 553.002C331.797 552.938 331.988 551.385 330.842 549.857C329.696 548.33 328.067 548.075 328.029 548.317Z" fill="#263238"/>
<path d="M321.765 548.47C321.612 548.699 322.542 549.539 323.038 550.939C323.535 552.34 323.293 553.549 323.547 553.638C323.802 553.727 324.515 552.365 323.929 550.634C323.344 548.902 321.867 548.24 321.765 548.47Z" fill="#263238"/>
<path d="M316.202 553.728C316.406 553.868 317.246 552.747 317.131 551.181C317.017 549.616 316.049 548.546 315.858 548.724C315.667 548.903 316.125 549.908 316.189 551.271C316.253 552.633 315.96 553.639 316.202 553.728Z" fill="#263238"/>
<path d="M330.829 542.423C330.829 542.69 332.102 542.792 333.516 543.428C334.929 544.065 335.845 544.956 336.062 544.79C336.278 544.625 335.565 543.314 333.923 542.575C332.281 541.837 330.778 542.181 330.829 542.423Z" fill="#263238"/>
<path d="M534.141 512.289L534.726 513.053L545.828 527.617L559.641 537.089L541.143 572.735H520.773C520.773 572.735 522.25 567.834 532.04 565.3L532.69 545.733L515.095 526.408" fill="#FF725E"/>
<g opacity="0.6">
<path d="M559.692 537.089L541.194 572.722L520.824 572.748L523.116 569.68L539.679 568.75L556.751 535.064L559.692 537.089Z" fill="white"/>
</g>
<path d="M532.219 556.35C532.371 556.554 533.492 555.892 535.121 555.93C536.751 555.969 537.858 556.631 538.011 556.427C538.164 556.223 537.056 555.052 535.134 555.039C533.212 555.026 532.028 556.185 532.219 556.35Z" fill="#263238"/>
<path d="M532.55 551.5C532.753 551.64 533.657 550.443 535.287 550.125C536.916 549.807 538.202 550.545 538.329 550.329C538.457 550.112 538.164 549.896 537.591 549.59C536.825 549.199 535.949 549.078 535.106 549.247C534.263 549.416 533.501 549.864 532.944 550.52C532.537 551.029 532.448 551.436 532.55 551.5Z" fill="#263238"/>
<path d="M532.409 545.261C532.639 545.376 533.326 544.205 534.739 543.708C536.152 543.212 537.438 543.708 537.54 543.453C537.642 543.199 537.336 543.059 536.776 542.855C536.023 542.586 535.2 542.586 534.446 542.855C533.694 543.122 533.053 543.633 532.626 544.306C532.32 544.816 532.308 545.223 532.409 545.261Z" fill="#263238"/>
<path d="M526.961 540.437C527.202 540.526 527.763 539.368 529.036 538.54C530.309 537.713 531.582 537.598 531.582 537.343C531.582 537.089 530.067 536.77 528.539 537.802C527.012 538.833 526.731 540.411 526.961 540.437Z" fill="#263238"/>
<g opacity="0.6">
<path d="M543.447 536.477C543.447 536.956 543.589 537.424 543.855 537.821C544.121 538.219 544.498 538.529 544.94 538.712C545.382 538.895 545.869 538.943 546.338 538.85C546.807 538.757 547.238 538.526 547.576 538.188C547.915 537.85 548.145 537.419 548.238 536.949C548.332 536.48 548.284 535.994 548.101 535.552C547.918 535.11 547.608 534.732 547.21 534.466C546.812 534.2 546.344 534.059 545.866 534.059C545.225 534.059 544.609 534.313 544.156 534.767C543.702 535.221 543.447 535.836 543.447 536.477Z" fill="white"/>
</g>
<path d="M427.304 350.276C422.491 352.058 445.547 446.916 445.547 446.916L515.146 530.596L538.342 510.608L486.286 430.544L469.952 301.53L432.422 303.567L427.304 350.276Z" fill="#263238"/>
<path d="M395.336 301.53C394.674 303.363 355.998 436.604 355.998 436.604L334.496 527.464L362.504 536.592C362.504 536.592 399.245 451.563 403.662 437.291C408.08 423.02 418.519 402.231 418.519 402.231L438.889 348.379C438.889 348.379 471.454 330.39 469.061 300.002L395.336 301.53Z" fill="#263238"/>
<path d="M331.198 533.969L332.853 523.033L366.565 533.982L362.644 545.541L331.198 533.969Z" fill="#263238"/>
<path d="M468.793 301.53C468.793 301.53 468.73 301.886 468.641 302.599L468.246 305.731C467.784 309.709 467.04 313.648 466.018 317.52C465.261 320.274 464.198 322.934 462.848 325.451C461.233 328.403 459.248 331.136 456.941 333.586C451.295 339.419 444.645 344.188 437.31 347.666L437.196 347.73V347.845C435.922 352.682 434.255 357.686 432.434 362.854C430.614 368.023 428.615 373.357 426.553 378.857C422.402 389.844 417.819 401.454 413.071 413.459C406.451 430.009 400.34 445.91 394.394 460.22C388.449 474.529 383.039 487.349 378.455 498.119C373.872 508.89 370.142 517.598 367.672 523.657C366.399 526.687 365.495 529.055 364.884 530.659L364.197 532.505C364.044 532.913 363.98 533.129 363.98 533.129C363.98 533.129 364.082 532.925 364.261 532.518L364.999 530.71L367.902 523.759C370.448 517.725 374.267 509.03 378.888 498.298C383.51 487.565 389.073 474.746 394.967 460.436C400.862 446.127 407.062 430.239 413.669 413.688C418.418 401.683 422.988 390.073 427.125 379.061C429.201 373.574 431.161 368.214 432.969 363.032C434.777 357.851 436.444 352.848 437.705 347.972L437.565 348.15C444.941 344.621 451.618 339.786 457.272 333.879C459.589 331.39 461.583 328.618 463.205 325.629C464.54 323.076 465.586 320.381 466.324 317.596C467.319 313.704 468.016 309.742 468.412 305.744C468.552 304.381 468.653 303.338 468.73 302.599C468.806 301.861 468.793 301.53 468.793 301.53Z" fill="#455A64"/>
<path d="M411.683 354.121C411.963 354.363 412.288 354.548 412.638 354.668C413.556 355.055 414.533 355.283 415.528 355.343C418.862 355.477 422.122 354.334 424.643 352.148C427.078 349.947 428.98 347.222 430.206 344.178C430.69 343.032 431.021 342.078 431.238 341.416C431.383 341.081 431.465 340.723 431.479 340.359C431.378 340.359 430.843 341.759 429.774 343.974C428.458 346.873 426.565 349.472 424.21 351.613C421.804 353.691 418.733 354.838 415.553 354.847C414.237 354.771 412.937 354.528 411.683 354.121Z" fill="#455A64"/>
<path d="M469.532 435.331C472.015 433.888 474.617 432.662 477.31 431.664C480.073 430.884 482.896 430.339 485.751 430.034C484.917 429.838 484.055 429.79 483.205 429.894C479.044 430.112 475.015 431.43 471.531 433.714C470.774 434.131 470.098 434.678 469.532 435.331Z" fill="#455A64"/>
<path d="M333.223 523.173C333.223 523.339 340.582 525.974 349.773 529.055C358.965 532.136 366.463 534.491 366.527 534.313C366.591 534.134 359.181 531.499 349.977 528.431C340.772 525.363 333.223 522.97 333.223 523.173Z" fill="#455A64"/>
<path d="M545.458 518.4L539.258 507.489L511.964 530.608L520.353 539.762L545.458 518.4Z" fill="#263238"/>
<path d="M511.964 530.609C512.374 530.371 512.75 530.08 513.084 529.743L515.974 527.197C518.406 525.058 521.767 522.104 525.624 519.049C529.481 515.994 532.881 513.066 535.35 510.965C536.623 509.921 537.578 509.055 538.253 508.419C538.928 507.782 539.297 507.464 539.259 507.426C538.843 507.649 538.451 507.913 538.088 508.215C537.362 508.763 536.331 509.565 535.058 510.558C532.511 512.569 529.023 515.37 525.204 518.502C521.385 521.633 518.011 524.587 515.656 526.815C514.472 527.922 513.542 528.839 512.906 529.488C512.547 529.822 512.23 530.198 511.964 530.609Z" fill="#455A64"/>
<path d="M410.881 97.9636C409.71 93.6097 406.438 91.4709 402.186 90.0196C400.041 89.3085 397.756 89.127 395.526 89.4906C393.296 89.8541 391.187 90.752 389.379 92.1074C386.985 93.9279 385.114 96.5759 382.275 97.5562C377.59 99.1858 372.09 95.6848 367.609 97.7854C366.238 98.3916 365.125 99.4621 364.466 100.808C363.807 102.155 363.645 103.69 364.007 105.145C364.369 106.599 365.232 107.879 366.446 108.759C367.659 109.64 369.144 110.063 370.639 109.956C367.584 111.076 366.642 115.43 368.424 118.155C370.206 120.879 373.873 121.898 377.068 121.299C380.246 120.525 383.152 118.896 385.47 116.589C387.889 114.425 390.054 111.955 392.638 109.982C395.15 107.863 398.327 106.696 401.613 106.684C406.005 106.926 409.774 110.236 411.734 114.183C413.695 118.129 414.153 122.636 414.395 127.028C414.637 131.42 414.713 135.94 416.024 140.103C416.177 140.599 416.406 141.147 416.903 141.299C417.616 141.516 418.176 140.765 418.571 140.103C422.586 132.658 425.095 124.495 425.954 116.08C426.451 111.204 426.324 106.595 423.65 102.496C420.977 98.3964 414.204 95.3665 410.919 97.9636" fill="#263238"/>
<path d="M419.36 118.333L421.6 167.652C421.995 176.042 420.836 188.442 407.596 188.442C396.075 187.576 392.663 176.806 392.319 168.976C392.154 165.259 392.001 162.165 391.963 161.783C391.963 161.783 379.346 161.172 377.882 148.785C377.17 142.802 376.698 130.364 376.418 119.097C376.269 113.271 378.317 107.602 382.154 103.215C385.991 98.8285 391.337 96.0452 397.132 95.4176L398.328 95.2903C411.314 94.6411 419.092 105.322 419.36 118.333Z" fill="#FFBE9D"/>
<path d="M391.874 161.618C397.616 161.105 403.073 158.888 407.546 155.252C407.546 155.252 404.681 164.584 392.18 164.788L391.874 161.618Z" fill="#EB996E"/>
<path d="M380.862 126.99C380.907 127.451 381.13 127.877 381.484 128.177C381.839 128.476 382.296 128.626 382.758 128.594C382.986 128.587 383.21 128.535 383.417 128.441C383.624 128.347 383.81 128.212 383.964 128.045C384.118 127.878 384.237 127.681 384.315 127.467C384.392 127.253 384.425 127.026 384.413 126.799C384.368 126.337 384.145 125.911 383.79 125.612C383.436 125.312 382.979 125.163 382.517 125.195C382.289 125.201 382.065 125.253 381.858 125.347C381.651 125.442 381.465 125.576 381.311 125.744C381.157 125.911 381.037 126.107 380.96 126.321C380.883 126.535 380.85 126.763 380.862 126.99Z" fill="#263238"/>
<path d="M379.678 124.864C379.92 125.08 381.155 123.935 383.064 123.744C384.974 123.553 386.463 124.355 386.654 124.1C386.845 123.845 386.476 123.591 385.814 123.209C384.929 122.724 383.915 122.523 382.911 122.636C381.923 122.746 380.994 123.159 380.251 123.82C379.716 124.342 379.551 124.775 379.678 124.864Z" fill="#263238"/>
<path d="M399.627 125.641C399.669 126.105 399.891 126.534 400.246 126.836C400.6 127.138 401.059 127.289 401.524 127.257C401.751 127.249 401.974 127.196 402.18 127.101C402.386 127.007 402.572 126.872 402.726 126.705C402.879 126.538 402.999 126.342 403.077 126.129C403.154 125.916 403.189 125.689 403.179 125.462C403.134 125.001 402.91 124.575 402.556 124.275C402.202 123.976 401.745 123.826 401.282 123.858C401.055 123.863 400.832 123.913 400.625 124.006C400.418 124.099 400.231 124.233 400.077 124.399C399.923 124.565 399.803 124.761 399.726 124.974C399.649 125.187 399.615 125.414 399.627 125.641Z" fill="#263238"/>
<path d="M398.443 123.234C398.698 123.438 399.932 122.305 401.829 122.101C403.726 121.898 405.241 122.712 405.419 122.458C405.598 122.203 405.241 121.948 404.592 121.567C403.705 121.086 402.691 120.89 401.689 121.006C400.695 121.107 399.759 121.522 399.016 122.19C398.481 122.7 398.328 123.132 398.443 123.234Z" fill="#263238"/>
<path d="M393.058 138.104C392.02 137.891 390.958 137.814 389.9 137.875C389.417 137.875 388.946 137.875 388.831 137.505C388.732 137.008 388.789 136.492 388.996 136.029C389.327 134.756 389.671 133.482 390.04 132.209C391.479 126.71 392.459 122.228 392.243 122.165C392.026 122.101 390.677 126.519 389.238 132.006C388.895 133.355 388.564 134.641 388.258 135.825C388.027 136.449 388.027 137.136 388.258 137.76C388.349 137.924 388.474 138.066 388.626 138.177C388.778 138.287 388.952 138.362 389.137 138.397C389.416 138.427 389.697 138.427 389.977 138.397C391.012 138.425 392.046 138.326 393.058 138.104Z" fill="#263238"/>
<path d="M397.157 115.787C397.399 116.283 399.283 115.787 401.549 115.876C403.815 115.965 405.686 116.321 405.928 115.876C406.043 115.634 405.674 115.188 404.884 114.756C403.851 114.234 402.707 113.968 401.549 113.979C400.393 113.956 399.248 114.213 398.213 114.73C397.424 115.125 397.055 115.57 397.157 115.787Z" fill="#263238"/>
<path d="M379.792 119.275C380.174 119.67 381.434 119.084 383.013 118.893C384.592 118.702 385.954 118.893 386.221 118.397C386.336 118.155 386.068 117.747 385.445 117.404C384.614 116.976 383.668 116.824 382.746 116.971C381.819 117.085 380.951 117.485 380.263 118.117C379.754 118.613 379.614 119.084 379.792 119.275Z" fill="#263238"/>
<path d="M419.321 127.601C419.525 127.487 427.571 124.177 428.233 132.693C428.895 141.21 420.187 140.077 420.162 139.835C420.136 139.594 419.321 127.601 419.321 127.601Z" fill="#FFBE9D"/>
<path d="M422.492 136.411C422.492 136.411 422.644 136.5 422.912 136.601C423.267 136.744 423.664 136.744 424.019 136.601C424.545 136.215 424.956 135.694 425.212 135.094C425.467 134.494 425.556 133.836 425.471 133.19C425.439 132.446 425.238 131.719 424.885 131.064C424.789 130.802 424.629 130.569 424.42 130.384C424.211 130.2 423.96 130.07 423.688 130.007C423.513 129.971 423.331 129.999 423.175 130.085C423.019 130.172 422.898 130.311 422.835 130.478C422.746 130.72 422.835 130.885 422.835 130.911C422.835 130.936 422.644 130.771 422.683 130.414C422.715 130.204 422.818 130.01 422.975 129.867C423.083 129.768 423.209 129.692 423.347 129.644C423.485 129.596 423.632 129.576 423.777 129.587C424.131 129.628 424.468 129.759 424.756 129.969C425.044 130.179 425.273 130.459 425.42 130.783C425.84 131.496 426.08 132.3 426.12 133.126C426.219 133.879 426.092 134.645 425.754 135.325C425.416 136.005 424.883 136.569 424.223 136.945C423.999 137.028 423.759 137.059 423.521 137.037C423.283 137.015 423.053 136.94 422.848 136.818C422.53 136.614 422.466 136.423 422.492 136.411Z" fill="#EB996E"/>
<path d="M373.465 116.767C376.286 117.181 379.166 116.92 381.866 116.003C384.566 115.087 387.01 113.542 388.997 111.496C391.734 108.607 393.669 104.685 397.335 103.12C398.589 102.639 399.926 102.412 401.268 102.454C402.61 102.495 403.931 102.804 405.152 103.361C407.576 104.486 409.743 106.098 411.517 108.097C409.799 114.654 412.154 121.528 414.484 127.894C414.664 128.626 415.086 129.276 415.68 129.74C416.763 130.402 418.227 129.651 418.978 128.632C420.102 126.92 420.695 124.913 420.684 122.865C421.087 118.225 420.563 113.551 419.143 109.116C417.702 104.669 414.989 100.743 411.339 97.8235C406.63 94.3251 400.747 92.7915 394.929 93.546C389.135 94.3389 383.74 96.9409 379.512 100.981C377.469 102.754 375.899 105.007 374.942 107.537" fill="#263238"/>
<path d="M392.447 143.489C392.706 144.255 393.074 144.98 393.541 145.641C393.778 145.971 394.081 146.248 394.433 146.452C394.784 146.656 395.174 146.783 395.578 146.825C396.01 146.827 396.435 146.719 396.814 146.512C397.192 146.305 397.512 146.005 397.743 145.641C398.202 144.903 398.416 144.038 398.354 143.171C398.354 142.394 397.959 141.465 397.182 141.376C396.856 141.362 396.532 141.432 396.24 141.579L392.179 143.222" fill="#EB996E"/>
<path d="M394.063 146.824C394.799 146.876 395.538 146.785 396.24 146.557C396.947 146.282 397.527 145.756 397.87 145.08C398.059 144.662 398.157 144.209 398.157 143.75C398.157 143.291 398.059 142.837 397.87 142.42C397.781 142.202 397.666 141.997 397.526 141.809C397.361 141.643 397.386 141.643 397.22 141.668L396.558 141.923L395.896 142.203C395.031 142.547 394.241 142.865 393.579 143.107C392.883 143.448 392.134 143.672 391.364 143.769C391.974 143.292 392.652 142.91 393.376 142.636C394.012 142.33 394.776 141.974 395.629 141.592L396.291 141.287C396.533 141.197 396.711 141.083 397.03 140.981C397.228 140.918 397.442 140.918 397.641 140.981C397.818 141.058 397.972 141.181 398.086 141.337C398.27 141.572 398.424 141.829 398.544 142.101C398.763 142.619 398.865 143.178 398.843 143.739C398.821 144.3 398.676 144.849 398.417 145.348C398.204 145.751 397.911 146.106 397.557 146.393C397.202 146.679 396.793 146.891 396.355 147.015C395.787 147.202 395.179 147.228 394.598 147.092C394.241 147.003 394.051 146.875 394.063 146.824Z" fill="#263238"/>
<path d="M352.256 211.879L375.795 262.191C376.894 264.542 378.571 266.576 380.667 268.105C382.764 269.634 385.213 270.609 387.787 270.937C391.089 271.36 394.439 270.701 397.336 269.06C400.232 267.419 402.519 264.884 403.854 261.835L421.422 221.593L390.868 185.628L387.889 228.824L368.577 201.465L352.256 211.879Z" fill="#FF725E"/>
<path d="M394.764 245.794C393.97 242.753 392.953 239.774 391.721 236.882C390.705 233.928 389.484 231.048 388.068 228.264C388.865 231.283 389.882 234.24 391.11 237.112C392.124 240.088 393.344 242.989 394.764 245.794Z" fill="#263238"/>
<path d="M395.336 301.53L389.837 295.406C388.887 294.356 388.164 293.12 387.715 291.777C387.266 290.434 387.1 289.013 387.227 287.602L390.142 280.218L386.247 192.567C385.852 185.463 385.941 175.227 392.612 172.35L421.447 163.82C421.447 163.82 441.104 168.009 445.751 178.283C449.404 186.341 455.095 240.829 455.095 240.829L463.37 262.943C464.325 267.297 470.639 291.689 471.008 297.316L469.914 301.555L395.336 301.53Z" fill="#FF725E"/>
<path d="M390.142 280.218C390.142 280.218 390.142 280.065 390.142 279.76C390.142 279.454 390.142 278.971 390.142 278.487C390.142 277.214 390.142 275.571 390.142 273.496C390.142 269.155 390.053 263.121 390.002 256.042C389.595 251.103 389.251 245.603 388.92 239.811C388.296 228.646 387.812 218.537 387.29 211.217C387.036 207.563 386.781 204.61 386.59 202.573C386.476 201.605 386.399 200.829 386.336 200.218C386.315 199.942 386.268 199.669 386.196 199.403C386.163 199.678 386.163 199.955 386.196 200.23C386.196 200.841 386.272 201.618 386.323 202.586C386.45 204.712 386.616 207.678 386.819 211.255C387.189 218.639 387.698 228.722 388.258 239.849C388.589 245.641 388.958 251.154 389.404 256.106C389.557 263.184 389.684 269.206 389.786 273.56C389.849 275.635 389.913 277.303 389.951 278.538C389.951 279.06 389.951 279.493 390.015 279.811C390.046 279.95 390.088 280.086 390.142 280.218Z" fill="#263238"/>
<path d="M442.25 318.894L416.202 309.855L438.774 249.142L423.332 196.462C420.976 187.372 425.088 174.59 434.178 172.273C434.573 172.171 435.286 168.912 435.681 169.078C439.258 170.542 448.182 176.589 451.874 182.56C454.676 187.159 456.706 192.187 457.883 197.442L467.253 237.723C469.086 245.599 468.45 253.848 465.433 261.351L442.25 318.894Z" fill="#FF725E"/>
<path d="M466.897 257.099C466.834 257.184 466.787 257.278 466.757 257.379L466.388 258.245L465.025 261.606L459.933 274.273L442.415 318.755L442.81 318.576L416.394 309.512L416.215 310.149C416.508 309.913 416.736 309.606 416.877 309.257L417.145 308.557C417.323 308.099 417.501 307.628 417.692 307.157C418.049 306.215 418.405 305.26 418.774 304.305C419.513 302.383 420.251 300.422 421.002 298.449C427.762 280.448 434.115 263.566 439.513 249.206V249.13V249.041C435.885 233.318 432.855 220.193 430.716 210.95C429.646 206.38 428.793 202.777 428.17 200.282C427.877 199.072 427.648 198.143 427.482 197.481C427.406 197.175 427.342 196.946 427.304 196.755L427.228 196.513C427.213 196.597 427.213 196.684 427.228 196.768C427.228 196.959 427.317 197.188 427.368 197.493C427.52 198.168 427.711 199.11 427.966 200.32C428.526 202.866 429.315 206.443 430.321 211.026L438.889 249.219V249.053C433.478 263.401 427.1 280.269 420.302 298.271L418.087 304.114L416.992 306.979L416.457 308.379L416.19 309.067C416.171 309.092 416.161 309.124 416.161 309.156C416.161 309.188 416.171 309.219 416.19 309.245C416.199 309.287 416.199 309.33 416.19 309.372V309.461V309.525L416.126 309.83L416.012 310.161L442.708 319.175L442.988 319.277L443.09 318.997L460.379 274.439L465.267 261.708L466.54 258.321C466.668 257.952 466.77 257.659 466.859 257.443C466.948 257.227 466.897 257.099 466.897 257.099Z" fill="#263238"/>
<path d="M453.083 250.912C452.586 250.372 451.984 249.938 451.314 249.639C449.756 248.82 448.067 248.282 446.323 248.047C444.581 247.805 442.809 247.873 441.091 248.251C440.366 248.344 439.67 248.596 439.054 248.989C441.425 248.584 443.838 248.485 446.234 248.696C448.601 249.143 450.903 249.888 453.083 250.912Z" fill="#263238"/>
<g opacity="0.3">
<path d="M383.446 222.611L381.307 268.557C383.56 270.263 386.679 270.938 390.219 271.103C390.155 269.664 387.787 228.875 387.787 228.875L383.446 222.611Z" fill="black"/>
</g>
<path d="M386.272 185.628C386.425 185.753 386.591 185.86 386.769 185.947C387.258 186.235 387.764 186.495 388.284 186.723C390.197 187.581 392.206 188.209 394.267 188.595C401.09 189.769 408.094 189.302 414.7 187.232C421.34 185.207 427.394 181.608 432.345 176.742C433.839 175.279 435.214 173.7 436.457 172.019C436.903 171.433 437.208 170.937 437.425 170.619C437.541 170.456 437.639 170.281 437.717 170.097C437.229 170.64 436.77 171.209 436.343 171.803C435.038 173.412 433.626 174.93 432.116 176.348C427.141 181.049 421.146 184.535 414.598 186.532C408.053 188.604 401.121 189.153 394.331 188.136C392.287 187.799 390.286 187.244 388.36 186.481C387.679 186.162 386.982 185.878 386.272 185.628Z" fill="#FAFAFA"/>
<path d="M431.034 210.886C431.455 210.953 431.885 210.953 432.307 210.886C433.444 210.79 434.575 210.629 435.693 210.402C439.389 209.645 442.946 208.318 446.234 206.469C449.506 204.595 452.48 202.244 455.057 199.492C455.837 198.681 456.577 197.831 457.272 196.946C457.545 196.629 457.776 196.278 457.959 195.902C457.87 195.826 456.75 197.175 454.726 199.212C452.09 201.831 449.124 204.095 445.903 205.947C442.667 207.761 439.198 209.123 435.591 209.995C432.791 210.581 431.021 210.772 431.034 210.886Z" fill="#FAFAFA"/>
<path d="M388.806 222.611C389.327 222.873 389.873 223.082 390.435 223.235C391.942 223.76 393.482 224.185 395.044 224.508C397.354 225.014 399.699 225.346 402.059 225.501C404.952 225.681 407.855 225.634 410.741 225.361C415.979 224.767 421.116 223.482 426.018 221.542C427.89 220.803 429.392 220.141 430.385 219.632C430.924 219.403 431.44 219.121 431.925 218.792C431.361 218.941 430.811 219.141 430.283 219.39C429.252 219.836 427.737 220.422 425.853 221.096C420.953 222.877 415.859 224.07 410.677 224.648C407.83 224.921 404.967 224.99 402.11 224.852C399.773 224.71 397.448 224.425 395.146 223.999C391.199 223.286 388.844 222.484 388.806 222.611Z" fill="#FAFAFA"/>
<path d="M390.512 257.316C391.08 257.63 391.677 257.89 392.294 258.092C393.002 258.38 393.724 258.631 394.458 258.843C395.311 259.098 396.266 259.442 397.374 259.683C398.481 259.925 399.653 260.231 400.964 260.435C402.275 260.638 403.675 260.829 405.152 260.995C408.372 261.268 411.608 261.268 414.828 260.995C418.041 260.654 421.218 260.037 424.325 259.149C425.751 258.703 427.1 258.296 428.322 257.799C429.545 257.303 430.69 256.832 431.709 256.361C432.727 255.89 433.618 255.393 434.42 254.986C435.222 254.578 435.859 254.171 436.394 253.827C436.958 253.508 437.495 253.142 437.998 252.732C437.389 252.967 436.805 253.262 436.254 253.611C435.719 253.916 435.044 254.286 434.242 254.655C433.44 255.024 432.562 255.52 431.518 255.928C430.474 256.335 429.379 256.857 428.131 257.277C426.884 257.697 425.585 258.143 424.159 258.55C421.058 259.382 417.895 259.961 414.7 260.282C411.521 260.575 408.324 260.609 405.14 260.384C403.675 260.231 402.288 260.129 400.989 259.887C399.691 259.645 398.507 259.467 397.412 259.225C396.317 258.983 395.35 258.716 394.497 258.487C393.644 258.258 392.905 258.041 392.32 257.85C391.736 257.612 391.131 257.433 390.512 257.316Z" fill="#FAFAFA"/>
<path d="M369.506 251.816C370.672 251.711 371.818 251.437 372.905 251.001C378.284 249.172 383.075 245.937 386.781 241.631C387.585 240.783 388.266 239.828 388.806 238.792C387.965 239.596 387.171 240.446 386.425 241.338C382.59 245.396 377.897 248.545 372.688 250.555C370.766 251.345 369.48 251.714 369.506 251.816Z" fill="#FAFAFA"/>
<path d="M358.684 225.183C359.724 225.041 360.736 224.745 361.689 224.304C364.049 223.384 366.285 222.174 368.347 220.701C370.414 219.238 372.295 217.528 373.948 215.609C374.675 214.852 375.288 213.995 375.769 213.063C373.379 215.657 370.767 218.038 367.965 220.18C365.024 222.117 361.919 223.791 358.684 225.183Z" fill="#FAFAFA"/>
<path d="M438.43 241.822C438.797 241.965 439.183 242.051 439.576 242.077C440.63 242.235 441.693 242.329 442.759 242.357C449.862 242.583 456.877 240.739 462.95 237.048C463.865 236.496 464.745 235.888 465.585 235.227C466.171 234.756 466.489 234.489 466.464 234.451C466.438 234.413 465.05 235.342 462.644 236.641C456.547 240.041 449.689 241.846 442.708 241.886C440.098 241.898 438.443 241.707 438.43 241.822Z" fill="#FAFAFA"/>
<path d="M435.591 261.364C435.591 261.478 437.145 261.453 439.602 261.746C446.048 262.505 452.148 265.073 457.196 269.155C459.131 270.708 460.187 271.841 460.264 271.765C460.34 271.688 460.073 271.421 459.615 270.899C458.962 270.148 458.256 269.446 457.501 268.798C452.524 264.439 446.274 261.801 439.678 261.275C438.686 261.208 437.691 261.208 436.699 261.275C436.327 261.244 435.953 261.274 435.591 261.364Z" fill="#FAFAFA"/>
<path d="M421.855 295.47C421.855 295.597 423.485 295.317 426.095 295.343C427.618 295.368 429.137 295.508 430.639 295.763C434.323 296.388 437.853 297.71 441.041 299.658C442.344 300.446 443.583 301.335 444.745 302.319C446.731 304.012 447.762 305.273 447.864 305.196C447.69 304.852 447.467 304.535 447.202 304.254C446.551 303.439 445.836 302.677 445.063 301.975C443.919 300.923 442.683 299.973 441.372 299.136C439.757 298.131 438.052 297.278 436.279 296.59C434.489 295.933 432.638 295.455 430.754 295.164C429.217 294.924 427.662 294.831 426.107 294.884C425.061 294.899 424.017 295.001 422.988 295.19C422.599 295.228 422.217 295.323 421.855 295.47Z" fill="#FAFAFA"/>
<path d="M455.872 286.278C460.132 286.198 464.372 285.682 468.526 284.738C466.395 284.657 464.261 284.802 462.161 285.17C460.032 285.324 457.925 285.696 455.872 286.278Z" fill="#FAFAFA"/>
<g opacity="0.3">
<path d="M464.821 269.015C464.613 274.935 463.598 280.799 461.804 286.444C460.531 290.62 464.923 297.214 459.755 301.53H449.57C454.522 289.346 459.245 276.565 463.803 265.094" fill="black"/>
</g>
<path d="M391.785 281.122C392.002 281.441 392.259 281.732 392.549 281.988C393.29 282.725 394.086 283.406 394.929 284.025C396.185 284.945 397.518 285.754 398.914 286.444C400.629 287.277 402.419 287.947 404.261 288.442C406.114 288.907 408.006 289.197 409.913 289.308C411.469 289.391 413.028 289.332 414.573 289.13C415.61 289.015 416.636 288.814 417.641 288.531C418.02 288.458 418.385 288.324 418.723 288.137C418.723 288.022 417.119 288.442 414.522 288.672C413.001 288.788 411.473 288.788 409.952 288.672C408.088 288.532 406.239 288.234 404.426 287.78C402.63 287.285 400.876 286.646 399.181 285.871C397.8 285.221 396.472 284.463 395.209 283.605C393.058 282.166 391.912 281.033 391.785 281.122Z" fill="#263238"/>
<path d="M405.292 288.34C406.038 288.868 406.863 289.272 407.737 289.537C409.807 290.286 411.97 290.748 414.166 290.912C416.356 291.069 418.556 290.967 420.722 290.606C421.628 290.523 422.516 290.304 423.357 289.957C423.357 289.728 419.245 290.606 414.217 290.25C411.187 289.905 408.198 289.265 405.292 288.34Z" fill="#FAFAFA"/>
<path d="M346.718 189.18L334.241 188.276C334.241 188.276 331.517 191.739 333.694 194.438C335.871 197.137 340.059 204.228 340.059 204.228L349.773 205.603L353.669 212.643L368.411 203.095L361.714 189.753L350.88 180.269L343.993 180.409L340.174 185.03C340.174 185.03 344.426 187.118 346.463 183.757L349.76 184.406V186.316C349.765 186.708 349.688 187.098 349.534 187.459C349.38 187.821 349.153 188.146 348.867 188.416C348.581 188.685 348.243 188.892 347.873 189.023C347.503 189.155 347.109 189.208 346.718 189.18Z" fill="#FFBE9D"/>
<path d="M334.394 188.747L325.902 186.303C325.377 186.239 324.844 186.304 324.349 186.493C323.854 186.682 323.413 186.988 323.063 187.385L322.809 188.264L333.223 192.77L334.394 188.747Z" fill="#FFBE9D"/>
<path d="M352.943 198.079C352.642 197.417 352.257 196.797 351.797 196.233C350.78 194.867 350.087 193.286 349.773 191.612C349.636 190.706 349.719 189.78 350.015 188.913C350.162 188.499 350.272 188.073 350.346 187.64C350.412 187.252 350.412 186.856 350.346 186.468C350.265 185.735 350.049 185.023 349.709 184.368C349.683 185.093 349.739 185.819 349.875 186.532C349.954 187.276 349.817 188.028 349.48 188.696C349.125 189.651 349.016 190.68 349.162 191.688C349.489 193.468 350.284 195.129 351.466 196.5C352.319 197.557 352.879 198.13 352.943 198.079Z" fill="#EB996E"/>
<path d="M318.29 178.588C318.29 178.83 317.017 181.529 317.017 181.529L351.555 198.677L353.287 195.444L318.29 178.588Z" fill="#263238"/>
<path d="M340.097 203.63C339.913 203.436 339.77 203.207 339.676 202.957C339.582 202.707 339.539 202.44 339.549 202.173C339.56 201.906 339.624 201.644 339.738 201.402C339.852 201.16 340.013 200.944 340.212 200.765C341.053 200.066 342.079 199.624 343.165 199.492C344.892 199.082 346.661 198.873 348.436 198.868C349.019 198.857 349.596 198.988 350.116 199.25C350.375 199.388 350.587 199.599 350.726 199.858C350.864 200.116 350.922 200.41 350.893 200.702C350.753 201.402 350.015 201.784 349.353 202.038C347.563 202.723 345.7 203.201 343.802 203.464" fill="#FFBE9D"/>
<path d="M343.802 203.54C344.949 203.573 346.093 203.418 347.189 203.082C347.698 202.955 348.258 202.789 348.844 202.598C349.523 202.422 350.16 202.111 350.715 201.682C350.88 201.532 351.011 201.349 351.098 201.145C351.186 200.941 351.229 200.72 351.225 200.498C351.187 200.043 350.977 199.62 350.639 199.314C349.953 198.787 349.094 198.537 348.233 198.614C346.707 198.624 345.187 198.803 343.701 199.148C342.429 199.283 341.217 199.753 340.187 200.511C339.847 200.807 339.6 201.196 339.476 201.629C339.352 202.063 339.356 202.523 339.487 202.955C339.716 203.566 340.098 203.693 340.098 203.668C340.098 203.642 339.856 203.426 339.729 202.891C339.666 202.514 339.704 202.128 339.838 201.77C339.972 201.413 340.198 201.097 340.492 200.854C341.494 200.221 342.634 199.841 343.815 199.747C345.265 199.448 346.74 199.29 348.22 199.276C348.918 199.201 349.619 199.382 350.193 199.785C350.308 199.865 350.403 199.97 350.471 200.092C350.539 200.214 350.579 200.35 350.588 200.489C350.596 200.628 350.573 200.768 350.52 200.897C350.468 201.027 350.386 201.143 350.282 201.236C349.802 201.617 349.253 201.903 348.666 202.076C348.093 202.293 347.558 202.471 347.061 202.624C345.075 203.235 343.79 203.426 343.802 203.54Z" fill="#EB996E"/>
<path d="M335.845 196.895C338.57 195.698 340.556 195.062 343.28 193.878C344.124 193.392 345.101 193.191 346.068 193.305C347.023 193.521 347.787 194.667 347.265 195.482C347.05 195.751 346.781 195.972 346.475 196.131L338.557 200.943" fill="#FFBE9D"/>
<path d="M338.557 200.943C339.652 200.503 340.7 199.957 341.689 199.314L344.999 197.391L346.959 196.22C347.173 196.092 347.355 195.918 347.494 195.711C347.633 195.504 347.724 195.27 347.761 195.023C347.772 194.774 347.732 194.525 347.645 194.291C347.557 194.057 347.424 193.843 347.252 193.661C346.925 193.284 346.473 193.035 345.979 192.961C345.559 192.878 345.126 192.878 344.706 192.961C343.966 193.179 343.246 193.46 342.555 193.801L339.028 195.291C337.912 195.677 336.847 196.199 335.858 196.844C337 196.552 338.119 196.177 339.206 195.724C340.225 195.354 341.46 194.922 342.796 194.361C343.462 194.051 344.152 193.795 344.859 193.597C345.187 193.485 345.54 193.467 345.878 193.546C346.215 193.625 346.524 193.797 346.768 194.043C346.991 194.281 347.114 194.595 347.112 194.922C347.088 195.072 347.03 195.214 346.942 195.338C346.853 195.462 346.737 195.563 346.603 195.634L344.693 196.818L341.46 198.868C340.429 199.466 339.457 200.161 338.557 200.943Z" fill="#EB996E"/>
<path d="M333.223 192.77L340.683 190.033C341.56 189.608 342.55 189.474 343.509 189.651C344.438 189.918 345.139 191.115 344.566 191.892C344.339 192.154 344.056 192.363 343.738 192.503L335.527 196.793" fill="#FFBE9D"/>
<path d="M335.54 196.793C336.655 196.417 337.733 195.94 338.761 195.367L342.134 193.661L344.159 192.63C344.381 192.524 344.576 192.369 344.73 192.178C344.885 191.986 344.994 191.762 345.05 191.522C345.087 191.273 345.072 191.019 345.006 190.776C344.94 190.533 344.825 190.306 344.668 190.109C344.382 189.714 343.968 189.43 343.497 189.307C343.076 189.224 342.644 189.224 342.224 189.307C341.467 189.458 340.729 189.688 340.021 189.995L336.457 191.37C335.336 191.737 334.257 192.22 333.236 192.808C334.391 192.575 335.524 192.243 336.622 191.815L340.225 190.542C340.905 190.271 341.608 190.062 342.325 189.918C342.66 189.833 343.012 189.843 343.341 189.949C343.67 190.055 343.962 190.252 344.184 190.517C345.279 191.904 342.987 192.413 341.893 193.139L338.544 194.972C337.487 195.481 336.481 196.091 335.54 196.793Z" fill="#EB996E"/>
<path d="M333.77 179.441C333.846 179.441 333.63 178.69 332.904 177.722C331.936 176.479 330.64 175.531 329.162 174.985C327.68 174.437 326.072 174.323 324.528 174.654C323.356 174.922 322.72 175.329 322.758 175.405C322.796 175.482 323.471 175.253 324.604 175.125C326.065 174.944 327.548 175.11 328.932 175.609C330.307 176.127 331.544 176.955 332.548 178.028C333.312 178.855 333.681 179.441 333.77 179.441Z" fill="#263238"/>
<path d="M336.724 177.875C336.462 176.949 335.972 176.104 335.298 175.418C333.76 173.663 331.735 172.404 329.48 171.802C327.235 171.21 324.879 171.175 322.618 171.701C321.678 171.858 320.775 172.191 319.957 172.681C319.957 172.783 321.014 172.439 322.707 172.172C324.899 171.795 327.147 171.887 329.302 172.439C331.444 173.018 333.395 174.156 334.954 175.736C336.138 176.958 336.622 177.939 336.724 177.875Z" fill="#263238"/>
<path d="M341.002 176.474C341.002 176.474 340.874 176.118 340.505 175.571C339.984 174.8 339.391 174.08 338.736 173.419C336.57 171.193 333.883 169.544 330.919 168.62C327.952 167.716 324.808 167.558 321.765 168.161C320.851 168.34 319.956 168.604 319.092 168.951C318.761 169.046 318.45 169.201 318.175 169.409C318.175 169.523 319.563 168.976 321.842 168.62C324.806 168.147 327.839 168.361 330.708 169.244C333.577 170.126 336.206 171.655 338.392 173.712C340.098 175.329 340.862 176.538 341.002 176.474Z" fill="#263238"/>
<path d="M344.031 175.036C343.959 174.614 343.822 174.206 343.624 173.826C343.143 172.767 342.508 171.785 341.74 170.911C340.607 169.609 339.286 168.485 337.819 167.576C336.027 166.464 334.113 165.563 332.115 164.889C328.475 163.624 324.559 163.369 320.785 164.151C319.652 164.373 318.54 164.693 317.462 165.106C317.053 165.219 316.666 165.4 316.316 165.641C316.316 165.755 318.035 165.08 320.874 164.609C324.567 163.983 328.358 164.294 331.899 165.513C335.48 166.617 338.739 168.574 341.396 171.217C342.408 172.392 343.292 173.672 344.031 175.036Z" fill="#263238"/>
<path d="M414.967 321.059C417.513 320.142 417.297 321.937 416.368 324.051C421.307 327.17 426.705 331.053 432.549 331.091L438.761 317.189L421.065 311.154L420.747 312.045C418.964 313.742 417.03 315.272 414.967 316.616C413.913 317.321 412.746 317.842 411.517 318.156C410.004 318.602 408.436 318.838 406.858 318.856C406.559 318.811 406.253 318.86 405.984 318.997C405.714 319.133 405.494 319.35 405.354 319.618C405.214 319.886 405.16 320.191 405.202 320.49C405.243 320.789 405.377 321.068 405.585 321.288C406.603 322.154 410.575 322.612 414.967 321.059Z" fill="#FFBE9D"/>
<path d="M414.458 322.625C415.069 323.456 415.804 324.19 416.635 324.801C418.554 326.395 420.662 327.747 422.912 328.824C425.159 329.906 427.532 330.701 429.977 331.192C430.978 331.454 432.011 331.57 433.045 331.536C426.215 330.141 419.834 327.079 414.471 322.625H414.458Z" fill="#455A64"/>
</svg>
