<svg width="1024" height="582" viewBox="0 0 1024 582" fill="none" xmlns="http://www.w3.org/2000/svg">
<ellipse cx="512" cy="401" rx="570" ry="310" fill="#EBEBEB"/>
<ellipse cx="519" cy="497" rx="570" ry="310" fill="#DFDFDF"/>
<path d="M340.859 189.002C339.942 189.002 339.204 179.377 339.204 167.499C339.204 155.622 339.942 145.997 340.859 145.997C341.775 145.997 342.526 155.622 342.526 167.499C342.526 179.377 341.775 189.002 340.859 189.002Z" fill="#E0E0E0"/>
<path d="M329.006 177.137C328.09 177.137 327.351 172.554 327.351 166.952C327.351 161.351 328.09 156.768 329.006 156.768C329.923 156.768 330.661 161.351 330.661 166.952C330.661 172.554 329.923 177.137 329.006 177.137Z" fill="#E0E0E0"/>
<path d="M317.103 173.827C316.199 173.827 315.333 171.51 315.193 168.543C315.053 165.577 315.677 163.158 316.581 163.107C317.485 163.056 318.363 165.424 318.503 168.391C318.643 171.357 318.019 173.776 317.103 173.827Z" fill="#E0E0E0"/>
<path d="M353.245 178.576C352.329 178.576 351.705 173.076 351.832 166.316C351.96 159.556 352.812 154.094 353.729 154.12C354.646 154.145 355.282 159.619 355.142 166.38C355.002 173.14 354.162 178.601 353.245 178.576Z" fill="#E0E0E0"/>
<path d="M366.715 174.082C365.798 174.082 365.047 171.688 365.047 168.735C365.047 165.781 365.798 163.375 366.715 163.375C367.631 163.375 368.37 165.768 368.37 168.735C368.37 171.701 367.631 174.082 366.715 174.082Z" fill="#E0E0E0"/>
<path d="M383.443 168.735C383.443 168.735 383.443 168.493 383.443 168.047C383.443 167.602 383.367 166.889 383.303 166.023C383.303 165.577 383.303 165.081 383.214 164.533C383.125 163.986 383.036 163.4 382.947 162.751C382.757 161.271 382.46 159.808 382.055 158.372C381.064 154.389 379.472 150.581 377.332 147.08C374.238 141.933 370.091 137.499 365.164 134.068C360.236 130.636 354.639 128.285 348.739 127.168C346.972 126.848 345.186 126.643 343.392 126.557C342.475 126.557 341.559 126.43 340.629 126.456L337.828 126.596C337.357 126.596 336.886 126.596 336.415 126.685L335.002 126.901C334.06 127.067 333.105 127.168 332.163 127.372C330.248 127.797 328.364 128.35 326.523 129.027C324.632 129.703 322.79 130.512 321.011 131.446C320.12 131.93 319.267 132.49 318.376 133.025C317.485 133.547 316.634 134.134 315.83 134.782C314.141 136.026 312.541 137.388 311.043 138.855C309.508 140.401 308.083 142.051 306.778 143.795C304.154 147.324 302.117 151.253 300.744 155.431C297.841 164.084 297.841 173.449 300.744 182.102C302.118 186.271 304.156 190.192 306.778 193.713C308.047 195.433 309.429 197.066 310.915 198.601C312.424 200.067 314.028 201.432 315.715 202.688C316.526 203.326 317.376 203.913 318.261 204.445C319.152 204.967 320.005 205.527 320.896 206.011C322.677 206.944 324.519 207.756 326.409 208.442C328.251 209.114 330.135 209.667 332.049 210.097C332.991 210.288 333.958 210.403 334.9 210.555L336.301 210.772C336.772 210.772 337.243 210.772 337.714 210.874L340.515 211.014C341.444 211.014 342.361 210.937 343.277 210.912C345.072 210.829 346.859 210.62 348.624 210.288C354.526 209.177 360.126 206.829 365.055 203.397C369.983 199.965 374.129 195.527 377.218 190.377C379.355 186.878 380.947 183.075 381.941 179.098C382.346 177.658 382.644 176.19 382.832 174.705C382.921 174.069 383.048 173.432 383.099 172.923C383.15 172.414 383.163 171.892 383.188 171.446C383.188 170.568 383.29 169.906 383.328 169.422C383.367 168.938 383.328 168.735 383.328 168.735C383.328 168.735 383.328 168.964 383.328 169.422C383.328 169.88 383.328 170.581 383.328 171.446C383.328 171.892 383.328 172.401 383.328 172.949C383.328 173.496 383.176 174.082 383.087 174.731C382.923 176.226 382.647 177.707 382.259 179.161C381.3 183.196 379.729 187.06 377.6 190.619C374.505 195.838 370.336 200.34 365.369 203.826C360.402 207.311 354.75 209.701 348.79 210.836C346.999 211.172 345.187 211.385 343.366 211.472C342.45 211.472 341.52 211.599 340.578 211.587L337.739 211.447C337.268 211.447 336.785 211.447 336.301 211.358L334.875 211.141C333.92 210.988 332.953 210.874 331.985 210.683C330.045 210.254 328.135 209.697 326.269 209.015C324.35 208.325 322.478 207.509 320.667 206.571C319.763 206.074 318.885 205.501 317.994 204.979C317.105 204.445 316.254 203.85 315.448 203.197C313.737 201.927 312.112 200.545 310.584 199.06C309.069 197.502 307.661 195.843 306.371 194.094C303.702 190.506 301.626 186.513 300.222 182.268C297.259 173.484 297.259 163.972 300.222 155.189C301.616 150.942 303.688 146.948 306.358 143.362C307.648 141.613 309.056 139.955 310.572 138.397C312.099 136.916 313.724 135.538 315.435 134.272C316.241 133.62 317.092 133.024 317.981 132.49C318.885 131.955 319.751 131.382 320.655 130.899C322.465 129.977 324.336 129.182 326.256 128.518C328.122 127.836 330.032 127.279 331.972 126.85C332.94 126.647 333.907 126.545 334.862 126.379L336.288 126.163C336.772 126.163 337.243 126.163 337.727 126.074L340.566 125.934C341.495 125.934 342.437 126.023 343.354 126.048C345.174 126.146 346.985 126.363 348.777 126.697C354.741 127.838 360.394 130.233 365.361 133.725C370.328 137.218 374.496 141.726 377.587 146.952C379.716 150.511 381.287 154.375 382.246 158.41C382.633 159.86 382.909 161.336 383.074 162.828C383.163 163.477 383.265 164.101 383.316 164.623C383.367 165.145 383.316 165.667 383.316 166.112C383.316 166.991 383.316 167.665 383.316 168.149C383.316 168.633 383.443 168.735 383.443 168.735Z" fill="#E0E0E0"/>
<path d="M645.291 78.0271C642.87 78.0271 640.473 77.5503 638.236 76.6238C636 75.6974 633.968 74.3396 632.256 72.6278C630.544 70.916 629.186 68.8838 628.26 66.6473C627.333 64.4108 626.857 62.0136 626.857 59.5928V37.9504C626.855 35.5285 627.33 33.13 628.256 30.892C629.182 28.654 630.539 26.6203 632.251 24.9072C633.963 23.1941 635.996 21.8351 638.233 20.9079C640.471 19.9807 642.869 19.5034 645.291 19.5034C650.18 19.5034 654.869 21.4456 658.326 24.9027C661.783 28.3598 663.725 33.0486 663.725 37.9377V59.5801C663.727 62.002 663.251 64.4005 662.325 66.6385C661.4 68.8765 660.042 70.9102 658.33 72.6233C656.618 74.3364 654.586 75.6954 652.348 76.6226C650.111 77.5498 647.713 78.0271 645.291 78.0271Z" fill="#F5F5F5"/>
<path d="M645.291 89.2561C638.074 89.2494 631.155 86.3796 626.052 81.2766C620.949 76.1736 618.079 69.2543 618.072 62.0376H620.708C620.714 68.5554 623.307 74.8043 627.915 79.4131C632.524 84.0219 638.773 86.6141 645.291 86.6208C659.753 86.6208 669.861 76.4362 669.861 62.0376H672.509C672.509 78.053 661.306 89.2434 645.291 89.2561Z" fill="#F5F5F5"/>
<path d="M646.602 87.9321H643.967V101.261H646.602V87.9321Z" fill="#F5F5F5"/>
<path d="M661.383 99.3516H629.199V101.987H661.383V99.3516Z" fill="#F5F5F5"/>
<path d="M618.111 31.5595C616.449 31.3294 614.839 30.817 613.349 30.0445C609.428 28.3768 608.104 27.4984 608.575 26.1234L608.754 25.576L609.377 25.2578C610.752 24.6339 614.241 26.0725 614.915 26.3653C615.59 26.6581 619.053 28.1731 619.562 29.599L619.753 30.1337L619.486 30.7702C619.365 31.0264 619.168 31.2394 618.922 31.3805C618.676 31.5217 618.393 31.5841 618.111 31.5595Z" fill="#F5F5F5"/>
<path d="M628.639 17.7595C627.798 17.7595 626.525 16.8174 623.877 13.2273C620.733 8.94977 620.886 7.91857 620.949 7.57484L621.026 7.04015L621.955 6.30176L622.579 6.36541C622.922 6.36541 623.966 6.58184 627.098 10.8467C630.777 15.8372 630.357 16.7792 629.466 17.4285C629.234 17.6268 628.943 17.7432 628.639 17.7595Z" fill="#F5F5F5"/>
<path d="M644.884 12.769L644.374 12.3362C644.12 12.0943 643.369 11.3814 643.42 6.35269C643.471 1.32401 644.247 0.623812 644.502 0.381927L644.935 0H645.597C646.399 0.0636542 647.506 0.15277 647.43 6.36542C647.353 12.5781 646.259 12.6672 645.457 12.7308L644.884 12.769Z" fill="#F5F5F5"/>
<path d="M661.052 16.3465L660.504 15.9137C659.346 14.8443 660.39 13.3675 662.656 10.2994C664.922 7.23127 666.093 5.85634 667.455 6.67111L667.964 6.97665L668.143 7.66412C668.461 9.23001 666.131 12.3618 665.864 12.7564C665.597 13.1511 663.229 16.2065 661.65 16.3465H661.052Z" fill="#F5F5F5"/>
<path d="M672.98 31.3559C672.718 31.3798 672.454 31.3216 672.226 31.1894C671.998 31.0571 671.817 30.8573 671.707 30.6176C670.994 29.3445 672.356 28.3133 672.98 27.804C673.934 27.0871 674.934 26.4322 675.972 25.8435C680.861 23.0682 681.764 23.692 682.261 24.5704C682.974 25.8435 681.612 26.8747 680.988 27.3839C680.036 28.1007 679.037 28.7515 677.996 29.3317C675.335 30.8594 673.859 31.3559 672.98 31.3559Z" fill="#F5F5F5"/>
<path d="M721.803 569.005C699.257 558.82 689.976 533.727 686.386 510.303C685.788 506.394 684.604 502.384 685.813 498.629C687.023 494.873 690.906 491.754 694.725 492.747C697.857 493.562 699.741 496.681 701.867 499.112C704.702 502.417 708.42 504.846 712.586 506.114C715.298 506.942 718.506 507.158 720.696 505.363C723.713 502.893 723.242 498.183 722.503 494.326C721.12 487.137 719.737 479.944 718.353 472.747C717.405 468.928 717.079 464.982 717.386 461.06C717.908 457.177 719.932 453.269 723.42 451.563C726.908 449.857 731.835 451.117 733.312 454.758C733.757 456.329 734.093 457.928 734.318 459.545C734.725 461.136 735.807 462.766 737.411 462.931C739.015 463.097 740.378 461.658 741.32 460.385C744.579 455.738 746.412 450.2 747.952 444.752C749.493 439.303 751.059 433.714 753.885 428.787C756.711 423.86 761.091 419.557 766.616 418.221C772.141 416.884 778.621 419.188 781.027 424.37C783.433 429.551 781.295 435.662 778.659 440.716C774.727 448.233 769.728 455.142 763.815 461.225C762.625 462.208 761.781 463.547 761.409 465.045C761.052 467.782 763.955 469.882 766.667 470.252C769.722 470.684 772.79 469.806 775.871 469.59C778.952 469.373 782.466 470.111 784.133 472.747C786.45 476.401 783.917 481.149 781.167 484.472C775.664 491.107 769.062 496.748 761.651 501.149C759.003 502.715 756.177 504.192 754.254 506.611C752.332 509.03 751.593 512.76 753.49 515.23C755.387 517.699 759.092 517.903 761.969 516.795C764.846 515.688 767.201 513.575 769.849 511.983C774.776 508.991 781.702 508.088 785.954 512.047C787.288 513.431 788.281 515.106 788.855 516.94C789.43 518.774 789.57 520.716 789.264 522.613C788.63 526.393 787.245 530.008 785.19 533.244C778.65 544.89 769.14 554.593 757.628 561.366C746.106 567.922 734.916 571.194 721.841 569.005" fill="#EBEBEB"/>
<path d="M723.789 573.244C722.923 563.861 723.866 565.695 725.139 553.32C726.655 539.926 728.941 526.63 731.988 513.498C732.764 510.01 733.541 506.547 734.305 503.148C735.069 499.749 735.845 496.388 736.787 493.142C738.627 486.916 740.807 480.796 743.318 474.809C745.686 469.068 748.131 463.721 750.448 458.73C752.765 453.74 755.056 449.131 757.297 445.019C760.809 438.515 764.832 432.3 769.327 426.432C770.906 424.357 772.192 422.791 773.07 421.734L774.089 420.538C774.197 420.397 774.321 420.269 774.458 420.156C774.36 420.306 774.254 420.451 774.14 420.589C773.91 420.894 773.592 421.314 773.185 421.862C772.345 422.944 771.097 424.548 769.544 426.648C765.153 432.566 761.213 438.805 757.755 445.312C755.54 449.424 753.299 454.033 750.995 459.023C748.691 464.013 746.272 469.373 743.929 475.102C741.448 481.074 739.294 487.177 737.475 493.384C736.533 496.617 735.782 499.953 735.005 503.352C734.228 506.751 733.477 510.201 732.688 513.702C729.659 526.808 727.369 540.073 725.826 553.435C724.553 565.758 723.522 563.887 724.324 573.231" fill="#E0E0E0"/>
<path d="M736.965 493.078C736.677 492.579 736.446 492.05 736.278 491.499C735.883 490.468 735.349 488.953 734.725 487.094C733.452 483.275 731.898 478.106 730.193 472.339C728.487 466.572 726.857 461.365 725.533 457.648C724.884 455.789 724.349 454.287 723.954 453.256C723.718 452.734 723.543 452.188 723.432 451.626C723.745 452.106 724.005 452.618 724.209 453.154C724.68 454.159 725.304 455.636 726.017 457.469C727.455 461.161 729.174 466.381 730.88 472.135C732.586 477.89 734.05 482.995 735.208 486.929C735.73 488.711 736.189 490.213 736.545 491.41C736.75 491.948 736.891 492.507 736.965 493.078Z" fill="#E0E0E0"/>
<path d="M784.91 474.567C784.286 474.832 783.638 475.037 782.975 475.178C781.702 475.522 779.907 476.019 777.679 476.706C773.223 478.043 767.125 480.105 760.505 482.677C753.885 485.249 747.991 487.846 743.777 489.844C741.676 490.825 739.958 491.665 738.812 492.238C738.226 492.579 737.608 492.861 736.966 493.078C737.503 492.663 738.078 492.301 738.684 491.996C739.818 491.334 741.473 490.417 743.56 489.373C747.723 487.26 753.605 484.574 760.238 481.989C765.903 479.77 771.677 477.841 777.539 476.21C779.78 475.586 781.626 475.166 782.911 474.937C783.565 474.752 784.234 474.629 784.91 474.567Z" fill="#E0E0E0"/>
<path d="M725.622 552.289C725.622 552.289 725.444 552.124 725.164 551.754L723.98 550.112C722.961 548.686 721.536 546.573 719.817 543.95C716.354 538.705 711.822 531.309 706.921 523.084C702.019 514.86 697.538 507.426 694.19 502.117L690.218 495.841L689.148 494.122C689.006 493.933 688.894 493.722 688.817 493.498C688.987 493.662 689.137 493.846 689.263 494.045C689.594 494.491 689.976 495.026 690.447 495.688C691.478 497.114 692.891 499.214 694.623 501.837C698.073 507.082 702.618 514.478 707.519 522.715C712.42 530.952 716.889 538.362 720.25 543.67L724.222 549.947L725.304 551.665C725.43 551.863 725.536 552.072 725.622 552.289Z" fill="#E0E0E0"/>
<path d="M787.635 518.756C787.452 518.917 787.246 519.051 787.024 519.151L785.228 520.144L778.583 523.746C772.981 526.802 765.279 531.092 756.788 535.841C748.296 540.589 740.531 544.829 734.865 547.757C732.026 549.221 729.773 550.379 728.105 551.156L726.246 552.034C726.04 552.153 725.817 552.238 725.585 552.289C725.764 552.13 725.966 551.997 726.183 551.894L727.978 550.901L734.623 547.298C740.238 544.256 747.927 539.965 756.431 535.204C764.936 530.443 772.676 526.216 778.341 523.288C781.18 521.824 783.433 520.665 785.101 519.902L786.96 519.023C787.173 518.906 787.399 518.816 787.635 518.756Z" fill="#E0E0E0"/>
<path d="M363.086 535.905C364.359 530.634 360.935 525.376 357.052 521.582C353.169 517.789 348.522 514.389 346.472 509.348C343.175 501.2 347.491 490.583 341.889 483.785C338.605 479.8 332.723 478.489 329.795 474.211C328.44 471.853 327.538 469.262 327.134 466.572C323.965 453.001 317.212 440.528 307.58 430.455C306.996 442.567 309.688 454.613 315.371 465.325C317.65 469.602 320.463 473.765 321.214 478.552C322.487 486.318 318.172 494.351 320.12 501.964C322.36 510.685 332.201 516.477 332.71 525.453C333.143 533.091 326.561 539.762 327.096 547.35C327.514 550.576 328.692 553.656 330.533 556.338C336.466 566.064 345.136 572.748 358.21 572.455L374.251 572.824L363.086 535.905Z" fill="#FF725E"/>
<g opacity="0.3">
<path d="M363.086 535.905C364.359 530.634 360.935 525.376 357.052 521.582C353.169 517.789 348.522 514.389 346.472 509.348C343.175 501.2 347.491 490.583 341.889 483.785C338.605 479.8 332.723 478.489 329.795 474.211C328.44 471.853 327.538 469.262 327.134 466.572C323.965 453.001 317.212 440.528 307.58 430.455C306.996 442.567 309.688 454.613 315.371 465.325C317.65 469.602 320.463 473.765 321.214 478.552C322.487 486.318 318.172 494.351 320.12 501.964C322.36 510.685 332.201 516.477 332.71 525.453C333.143 533.091 326.561 539.762 327.096 547.35C327.514 550.576 328.692 553.656 330.533 556.338C336.466 566.064 345.136 572.748 358.21 572.455L374.251 572.824L363.086 535.905Z" fill="black"/>
</g>
<path d="M377.472 573.27C377.472 573.27 377.867 573.27 378.592 573.27C379.698 573.254 380.801 573.147 381.89 572.952C383.627 572.644 385.332 572.176 386.982 571.551C389.25 570.715 391.363 569.506 393.233 567.974C394.327 567.07 395.177 565.906 395.703 564.587C396.147 563.074 396.37 561.505 396.365 559.928C396.364 558.175 396.466 556.424 396.67 554.683C396.964 552.786 397.626 550.966 398.618 549.323C400.527 545.898 403.557 542.767 404.461 538.451C405.365 534.135 404.665 529.539 403.863 524.676C403.061 519.813 402.259 514.492 404.118 509.259C405.976 504.027 409.325 499.507 410.954 494.046C412.584 488.584 411.756 482.524 412.074 476.337C412.171 473.155 412.88 470.021 414.162 467.107C415.435 464.166 417.269 461.48 418.605 458.565C421.304 452.721 421.775 445.987 422.501 439.252C422.857 435.879 423.214 432.454 423.583 429.004C423.797 425.477 424.382 421.982 425.327 418.577C426.4 415.156 427.675 411.802 429.146 408.533C429.877 406.918 430.469 405.244 430.916 403.53C431.166 401.757 431.323 399.972 431.387 398.183C431.537 394.534 431.375 390.88 430.903 387.26C430.445 383.606 429.757 379.939 429.337 376.196C429.337 375.98 429.337 375.751 429.261 375.547L429.987 375.955C426.742 377.634 423.928 380.039 421.763 382.982C419.629 385.908 417.915 389.117 416.67 392.517C414.124 399.277 413.156 406.419 411.832 413.345C410.508 420.271 408.815 427.183 405.212 433.091C403.417 436.019 401.304 438.641 399.484 441.378C397.579 443.98 396.275 446.971 395.664 450.137C394.735 456.503 398.478 462.41 397.739 468.813C397.363 471.883 396.339 474.838 394.735 477.483C393.245 480.105 391.527 482.499 389.923 484.88C388.301 487.157 386.891 489.577 385.709 492.111C384.626 494.572 383.988 497.205 383.825 499.889C383.443 505.173 384.219 510.303 383.825 515.255C383.376 519.947 382.013 524.505 379.814 528.674C377.854 532.646 375.702 536.21 373.895 539.648C373.006 541.303 372.203 543.002 371.488 544.74C370.848 546.335 370.382 547.996 370.101 549.692C369.615 552.674 369.563 555.71 369.948 558.706C370.341 562.891 371.864 566.891 374.353 570.278C375.278 571.403 376.324 572.424 377.472 573.321C377.472 573.321 377.154 573.13 376.555 572.684C376.172 572.43 375.818 572.136 375.499 571.806C375.038 571.373 374.612 570.905 374.226 570.405C371.626 567.034 370.017 563.004 369.579 558.769C369.134 555.739 369.134 552.659 369.579 549.629C369.856 547.887 370.317 546.18 370.954 544.536C371.67 542.799 372.473 541.1 373.36 539.444C375.142 535.981 377.281 532.404 379.191 528.457C381.31 524.351 382.607 519.871 383.01 515.268C383.379 510.418 382.577 505.3 383.01 499.902C383.163 497.126 383.814 494.401 384.932 491.856C386.123 489.259 387.547 486.775 389.184 484.434C390.788 482.041 392.494 479.66 393.933 477.088C395.471 474.548 396.452 471.71 396.81 468.762C397.548 462.753 393.78 456.821 394.697 450.048C395.305 446.743 396.645 443.615 398.618 440.895C400.451 438.094 402.564 435.484 404.309 432.619C407.797 426.878 409.503 420.092 410.776 413.205C412.049 406.318 413.016 399.099 415.652 392.199C416.928 388.7 418.694 385.4 420.897 382.396C423.152 379.325 426.089 376.819 429.477 375.076L430.127 374.745L430.203 375.483C430.203 375.674 430.203 375.904 430.279 376.12C430.7 379.825 431.387 383.478 431.845 387.17C432.323 390.846 432.485 394.556 432.329 398.259C432.268 400.104 432.106 401.944 431.845 403.771C431.383 405.55 430.774 407.287 430.025 408.966C428.555 412.197 427.28 415.513 426.206 418.896C425.278 422.247 424.702 425.686 424.487 429.157C424.122 432.603 423.757 435.997 423.392 439.341C422.654 446.038 422.195 452.887 419.382 458.934C417.994 461.926 416.212 464.612 414.926 467.464C413.677 470.274 412.985 473.301 412.889 476.375C412.558 482.435 413.411 488.559 411.692 494.275C409.974 499.991 406.486 504.46 404.792 509.552C403.099 514.644 403.736 519.8 404.5 524.6C405.263 529.399 406.091 534.212 405.021 538.604C403.952 542.996 400.909 546.242 399.038 549.603C398.087 551.18 397.451 552.927 397.167 554.746C396.953 556.466 396.838 558.196 396.823 559.928C396.813 561.55 396.569 563.162 396.097 564.715C395.525 566.091 394.625 567.306 393.475 568.254C391.562 569.782 389.412 570.986 387.109 571.818C385.418 572.437 383.67 572.885 381.89 573.155C380.435 573.453 378.94 573.492 377.472 573.27Z" fill="#263238"/>
<path d="M427.02 384.255C427.045 384.424 427.045 384.595 427.02 384.764C426.944 385.146 426.867 385.63 426.766 386.228C426.524 387.501 426.231 389.398 425.683 391.842C425.136 394.287 423.723 397.024 422.564 400.321C421.406 403.618 420.107 407.425 418.974 411.703C417.841 415.98 416.823 420.703 415.753 425.808C414.684 430.913 413.525 436.477 410.725 441.722C409.452 444.357 407.988 446.992 406.905 449.806C405.806 452.699 405.075 455.719 404.728 458.794C403.965 465.342 402.852 471.844 401.393 478.272L392.481 515.344L384.843 545.529C382.64 554.046 380.858 560.972 379.611 565.898L378.07 571.373C377.905 571.946 377.777 572.417 377.663 572.799C377.548 573.18 377.51 573.282 377.484 573.27C377.493 573.102 377.519 572.936 377.561 572.773C377.646 572.391 377.748 571.907 377.866 571.322C378.185 569.972 378.618 568.114 379.139 565.758L384.066 545.389C386.18 536.758 388.7 526.522 391.488 515.153C394.276 503.785 397.192 491.232 400.336 478.094C401.79 471.69 402.903 465.214 403.672 458.692C404.038 455.542 404.795 452.45 405.925 449.488C407.084 446.598 408.548 443.95 409.846 441.34C412.622 436.248 413.755 430.748 414.939 425.668C416.123 420.589 417.103 415.827 418.3 411.55C419.496 407.272 420.769 403.453 422.042 400.168C423.315 396.884 424.703 394.147 425.314 391.779C425.925 389.411 426.269 387.488 426.587 386.228L426.931 384.777C426.945 384.6 426.974 384.426 427.02 384.255Z" fill="#263238"/>
<path d="M380.311 573.308C390.737 567.032 393.627 548.126 389.222 536.796C384.818 525.465 377.103 515.153 375.855 503.008C374.887 493.702 377.892 484.116 375.664 475C372.672 462.741 360.616 453.294 360.693 440.627C360.693 433.536 364.716 426.84 364.359 419.774C363.913 411.092 357.217 404.242 353.041 396.617C346.676 384.942 346.167 371.155 343.926 357.991C341.685 344.828 336.58 330.938 324.919 324.573C323.264 335.725 320.374 343.376 321.38 358.475C321.736 363.886 328.102 374.236 329.018 386.114C329.578 393.205 329.973 400.321 330.444 407.425C330.902 414.338 331.386 421.429 333.907 427.794C335.842 432.747 338.91 437.241 340.349 442.346C343.06 451.958 339.636 462.41 341.838 472.161C343.697 480.424 349.477 487.502 350.673 495.879C352.379 507.642 344.83 519.927 348.802 531.143C350.763 536.707 355.371 541.15 356.708 546.904C357.739 551.36 356.708 556.096 357.612 560.577C359.127 567.808 372.889 573.308 380.311 572.85" fill="#FF725E"/>
<path d="M327.86 335.572C327.929 335.771 327.98 335.975 328.012 336.183C328.102 336.642 328.216 337.24 328.356 337.991C328.674 339.582 329.031 341.963 329.629 344.968C330.228 347.972 331.921 351.333 333.27 355.56C334.863 360.263 336.219 365.043 337.331 369.882C338.605 375.254 339.687 381.2 340.807 387.578C341.927 393.956 343.111 400.792 346.307 407.336C347.796 410.646 349.489 413.994 350.775 417.635C352.037 421.341 352.828 425.19 353.13 429.093C353.799 437.259 354.9 445.384 356.428 453.434C359.699 469.921 362.793 485.631 365.645 499.927C368.497 514.224 371.208 527.031 373.436 537.84C375.664 548.648 377.37 557.318 378.605 563.429C379.178 566.408 379.636 568.738 379.954 570.393C380.094 571.144 380.196 571.742 380.285 572.213C380.328 572.418 380.353 572.627 380.362 572.837C380.278 572.645 380.218 572.445 380.183 572.238C380.069 571.78 379.929 571.182 379.751 570.431C379.381 568.788 378.872 566.471 378.21 563.505L372.723 538.043C370.444 527.235 367.733 514.415 364.728 500.169L355.422 453.663C353.92 445.604 352.849 437.47 352.214 429.297C351.938 425.452 351.176 421.658 349.948 418.004C348.675 414.44 347.02 411.104 345.543 407.82C342.322 401.187 341.176 394.172 340.056 387.832C338.936 381.492 337.943 375.509 336.72 370.149C335.498 364.789 334.174 359.965 332.799 355.84C331.424 351.715 329.909 348.201 329.298 345.146C328.687 342.09 328.458 339.735 328.203 338.131L327.962 336.298C327.901 336.061 327.866 335.817 327.86 335.572Z" fill="#263238"/>
<path d="M720.734 503.237C722.318 503.992 723.735 505.057 724.9 506.369C726.066 507.681 726.956 509.213 727.519 510.876C728.608 514.229 728.917 517.786 728.423 521.277C727.646 528.024 723.814 534.835 719.69 540.233C713.999 535.281 712.688 526.624 712.306 522.18C711.695 515.179 714.852 502.142 720.734 503.186" fill="#FF725E"/>
<path d="M726.297 551.437C725.907 549.506 726.034 547.507 726.667 545.642C727.3 543.777 728.415 542.113 729.9 540.819C731.405 539.553 733.147 538.599 735.024 538.013C736.902 537.427 738.878 537.221 740.836 537.407C741.744 537.397 742.643 537.583 743.472 537.955C744.301 538.326 745.039 538.874 745.635 539.559C746.075 540.286 746.314 541.117 746.327 541.967C746.341 542.817 746.128 543.656 745.711 544.397C744.844 545.866 743.606 547.082 742.121 547.923C737.195 551.017 731.86 553.104 726.297 551.437Z" fill="#FF725E"/>
<path d="M719.002 572.137C719.022 571.669 719.09 571.204 719.206 570.749C719.384 569.769 719.613 568.509 719.893 566.994C720.514 562.821 721.804 558.776 723.713 555.014C725.721 551.266 728.686 548.117 732.306 545.886C733.409 545.235 734.584 544.713 735.807 544.333C736.142 544.23 736.481 544.145 736.825 544.078C736.943 544.059 737.064 544.059 737.182 544.078C735.548 544.636 733.974 545.357 732.484 546.23C728.984 548.505 726.116 551.627 724.145 555.307C722.245 559.026 720.91 563.008 720.186 567.121C719.842 568.687 719.562 569.96 719.346 570.838C719.275 571.282 719.159 571.717 719.002 572.137Z" fill="#263238"/>
<path d="M719.257 513.384C719.276 513.583 719.276 513.783 719.257 513.982C719.257 514.428 719.321 515.013 719.359 515.726C719.448 517.241 719.537 519.431 719.626 522.092C719.792 527.502 719.932 534.975 719.893 543.238C719.855 551.5 719.664 558.973 719.435 564.384C719.333 567.082 719.219 569.272 719.13 570.749C719.13 571.462 719.041 572.022 719.002 572.493C719 572.694 718.979 572.894 718.939 573.091C718.911 572.889 718.911 572.683 718.939 572.48C718.939 572.035 718.939 571.449 718.939 570.736C718.939 569.17 719.028 566.993 719.091 564.371C719.219 558.96 719.372 551.487 719.41 543.238C719.448 534.988 719.41 527.515 719.27 522.104C719.27 519.444 719.193 517.267 719.168 515.739V513.995C719.177 513.789 719.207 513.584 719.257 513.384Z" fill="#263238"/>
<path d="M716.456 555.535C715.763 551.45 714.109 547.588 711.63 544.267C709.151 540.947 705.918 538.264 702.198 536.439C700.301 535.522 697.818 534.937 696.252 536.35C694.686 537.763 695.043 540.296 695.807 542.27C697.477 546.344 700.316 549.834 703.966 552.298C707.615 554.763 711.912 556.093 716.316 556.121" fill="#FF725E"/>
<path d="M703.114 542.817C703.534 542.95 703.939 543.124 704.324 543.339C704.79 543.558 705.244 543.8 705.686 544.065C706.195 544.383 706.819 544.702 707.43 545.16C708.117 545.622 708.78 546.12 709.416 546.649C710.152 547.254 710.857 547.896 711.529 548.572C713.054 550.135 714.399 551.865 715.539 553.728C716.648 555.614 717.536 557.622 718.187 559.711C718.458 560.624 718.679 561.55 718.849 562.487C719.012 563.302 719.127 564.127 719.193 564.956C719.258 565.633 719.287 566.313 719.282 566.993C719.323 567.51 719.323 568.03 719.282 568.546C719.278 568.975 719.227 569.402 719.129 569.82C719.028 569.82 719.219 567.948 718.888 564.956C718.786 564.218 718.697 563.403 718.493 562.537C718.289 561.672 718.06 560.768 717.793 559.826C717.123 557.782 716.24 555.815 715.157 553.957C714.037 552.124 712.722 550.417 711.236 548.865C710.589 548.187 709.905 547.545 709.187 546.942C708.537 546.344 707.914 545.873 707.264 545.414C704.782 543.696 703.076 542.906 703.114 542.817Z" fill="#263238"/>
<path d="M593.336 573.18L410.801 572.34C400.258 572.29 390.166 568.054 382.744 560.565C375.322 553.077 371.177 542.947 371.221 532.403L373.156 74.7936C373.178 69.5702 374.229 64.4024 376.248 59.5853C378.268 54.7682 381.217 50.3963 384.927 46.7195C388.637 43.0426 393.035 40.1328 397.87 38.1563C402.705 36.1799 407.882 35.1755 413.106 35.2007L595.64 36.0409C600.863 36.0626 606.029 37.1129 610.846 39.1318C615.662 41.1507 620.033 44.0986 623.71 47.8073C627.387 51.5159 630.297 55.9126 632.274 60.7461C634.251 65.5796 635.257 70.7553 635.233 75.9775L633.298 533.587C633.277 538.812 632.225 543.981 630.205 548.799C628.184 553.617 625.234 557.989 621.523 561.666C617.812 565.343 613.412 568.253 608.575 570.228C603.739 572.204 598.561 573.207 593.336 573.18Z" fill="#455A64"/>
<path d="M595.373 51.8397L559.981 51.6742C557.657 51.7177 555.444 52.6795 553.827 54.3493C552.21 56.0192 551.319 58.2613 551.35 60.5858V66.9512C551.384 69.2767 550.494 71.5208 548.876 73.1913C547.258 74.8619 545.044 75.8226 542.718 75.8628L473.743 75.5445C472.588 75.5148 471.45 75.2577 470.395 74.7878C469.34 74.3178 468.387 73.6444 467.593 72.806C466.798 71.9676 466.177 70.9807 465.764 69.9017C465.351 68.8228 465.155 67.6731 465.187 66.5184V60.153C465.242 57.8237 464.373 55.5672 462.771 53.8762C461.168 52.1851 458.961 51.1967 456.632 51.1268H444.182L413.207 50.9867C409.547 50.9666 405.919 51.6681 402.53 53.051C399.141 54.4338 396.058 56.4711 393.457 59.0462C390.856 61.6213 388.788 64.6838 387.371 68.0586C385.954 71.4334 385.216 75.0544 385.2 78.7145L383.341 525.389C383.321 529.048 384.022 532.675 385.404 536.063C386.786 539.451 388.822 542.534 391.396 545.134C393.97 547.735 397.031 549.804 400.404 551.221C403.777 552.639 407.397 553.378 411.056 553.396L593.234 554.237C596.894 554.257 600.523 553.555 603.911 552.172C607.3 550.79 610.383 548.752 612.985 546.177C615.586 543.602 617.654 540.54 619.071 537.165C620.488 533.79 621.225 530.169 621.242 526.509L623.126 79.8348C623.146 76.1732 622.444 72.5435 621.059 69.1537C619.675 65.7638 617.635 62.6804 615.057 60.08C612.479 57.4796 609.413 55.4132 606.036 53.9992C602.658 52.5852 599.035 51.8514 595.373 51.8397Z" fill="#FAFAFA"/>
<path d="M504.869 390.913C505.048 390.913 505.2 402.142 505.2 415.98C505.2 429.819 505.048 441.06 504.869 441.06C504.691 441.06 504.538 429.831 504.538 415.98C504.538 402.129 504.691 390.913 504.869 390.913Z" fill="#FF725E"/>
<path d="M498.339 396.425C498.517 396.425 498.67 404.993 498.67 415.522C498.67 426.05 498.517 434.618 498.339 434.618C498.16 434.618 498.008 426.05 498.008 415.522C498.008 404.993 498.148 396.425 498.339 396.425Z" fill="#FF725E"/>
<path d="M490.98 401.899C491.158 401.899 491.311 408.099 491.311 415.751C491.311 423.402 491.158 429.614 490.98 429.614C490.802 429.614 490.649 423.415 490.649 415.751C490.649 408.087 490.802 401.899 490.98 401.899Z" fill="#FF725E"/>
<path d="M484.564 406.61C485.022 411.751 485.022 416.924 484.564 422.065C484.123 416.923 484.123 411.752 484.564 406.61Z" fill="#FF725E"/>
<path d="M478.911 410.378C479.352 413.192 479.352 416.057 478.911 418.87C478.47 416.057 478.47 413.192 478.911 410.378Z" fill="#FF725E"/>
<path d="M472.507 405.859C472.949 411.001 472.949 416.172 472.507 421.314C472.049 416.173 472.049 411 472.507 405.859Z" fill="#FF725E"/>
<path d="M466.473 399.685C466.651 399.685 466.804 406.177 466.804 414.198C466.804 422.218 466.651 428.724 466.473 428.724C466.295 428.724 466.129 422.218 466.129 414.198C466.129 406.177 466.282 399.685 466.473 399.685Z" fill="#FF725E"/>
<path d="M542.985 401.899C543.164 401.899 543.316 408.099 543.316 415.751C543.316 423.402 543.164 429.614 542.985 429.614C542.807 429.614 542.654 423.415 542.654 415.751C542.654 408.087 542.807 401.899 542.985 401.899Z" fill="#FF725E"/>
<path d="M536.569 406.61C537.01 411.752 537.01 416.923 536.569 422.065C536.128 416.923 536.128 411.752 536.569 406.61Z" fill="#FF725E"/>
<path d="M530.917 410.378C531.358 413.192 531.358 416.057 530.917 418.87C530.475 416.057 530.475 413.192 530.917 410.378Z" fill="#FF725E"/>
<path d="M524.475 403.593C524.819 406.912 524.933 410.251 524.818 413.586C524.933 416.922 524.819 420.261 524.475 423.58C524.147 420.26 524.036 416.921 524.144 413.586C524.036 410.252 524.147 406.913 524.475 403.593Z" fill="#FF725E"/>
<path d="M518.466 399.685C518.657 399.685 518.81 406.177 518.81 414.198C518.81 422.218 518.657 428.724 518.466 428.724C518.275 428.724 518.135 422.218 518.135 414.198C518.135 406.177 518.288 399.685 518.466 399.685Z" fill="#FF725E"/>
<path d="M511.12 396.616C511.299 396.616 511.451 404.891 511.451 415.089C511.451 425.286 511.299 433.574 511.12 433.574C510.942 433.574 510.789 425.299 510.789 415.089C510.789 404.879 510.929 396.616 511.12 396.616Z" fill="#FF725E"/>
<path d="M549.835 421.327C549.394 416.185 549.394 411.014 549.835 405.872C550.276 411.014 550.276 416.185 549.835 421.327Z" fill="#FF725E"/>
<path d="M555.5 417.508C555.059 414.694 555.059 411.829 555.5 409.016C555.941 411.829 555.941 414.694 555.5 417.508Z" fill="#FF725E"/>
<path d="M460.566 405.859C461.007 411.001 461.007 416.172 460.566 421.314C460.125 416.172 460.125 411.001 460.566 405.859Z" fill="#FF725E"/>
<path d="M454.901 409.627C455.342 412.436 455.342 415.297 454.901 418.106C454.459 415.297 454.459 412.436 454.901 409.627Z" fill="#FF725E"/>
<path d="M449.261 405.859C449.703 411.001 449.703 416.172 449.261 421.314C448.82 416.172 448.82 411.001 449.261 405.859Z" fill="#FF725E"/>
<path d="M443.227 399.685C443.405 399.685 443.558 406.177 443.558 414.198C443.558 422.218 443.405 428.724 443.227 428.724C443.048 428.724 442.896 422.218 442.896 414.198C442.896 406.177 442.998 399.685 443.227 399.685Z" fill="#FF725E"/>
<path d="M437.319 405.859C437.761 411.001 437.761 416.172 437.319 421.314C436.878 416.172 436.878 411.001 437.319 405.859Z" fill="#FF725E"/>
<path d="M431.667 409.627C432.109 412.436 432.109 415.297 431.667 418.106C431.226 415.297 431.226 412.436 431.667 409.627Z" fill="#FF725E"/>
<path d="M573.425 405.859C573.866 411.001 573.866 416.172 573.425 421.314C572.984 416.172 572.984 411.001 573.425 405.859Z" fill="#FF725E"/>
<path d="M567.39 399.685C567.581 399.685 567.721 406.177 567.721 414.198C567.721 422.218 567.581 428.724 567.39 428.724C567.199 428.724 567.059 422.218 567.059 414.198C567.059 406.177 567.212 399.685 567.39 399.685Z" fill="#FF725E"/>
<path d="M561.496 405.859C561.938 411.001 561.938 416.172 561.496 421.314C561.038 416.173 561.038 411 561.496 405.859Z" fill="#FF725E"/>
<path d="M555.831 409.627C556.272 412.436 556.272 415.297 555.831 418.106C555.389 415.297 555.389 412.436 555.831 409.627Z" fill="#FF725E"/>
<path d="M580.796 409.627C581.238 412.436 581.238 415.297 580.796 418.106C580.355 415.297 580.355 412.436 580.796 409.627Z" fill="#FF725E"/>
<g opacity="0.3">
<path d="M603.189 231.943C603.189 231.943 603.189 231.408 603.113 230.365C603.037 229.321 603.113 227.818 602.909 225.743C602.51 219.832 601.577 213.969 600.121 208.226C599.067 204.076 597.736 200.001 596.137 196.029C594.262 191.303 592.01 186.735 589.402 182.369C583.004 171.713 574.64 162.368 564.755 154.832C552.745 145.703 538.769 139.504 523.94 136.729C515.708 135.193 507.312 134.735 498.962 135.367C494.602 135.678 490.268 136.282 485.989 137.175C481.593 138.125 477.264 139.363 473.029 140.879C455.02 147.444 439.357 159.191 428.013 174.642C425.052 178.672 422.413 182.928 420.12 187.372C418.923 189.588 417.905 191.905 416.861 194.222C415.817 196.539 414.964 198.932 414.2 201.376C410.929 211.232 409.253 221.546 409.235 231.93C409.267 237.153 409.693 242.367 410.508 247.526C411.317 252.614 412.548 257.626 414.187 262.51C414.964 264.954 415.919 267.309 416.861 269.665C417.803 272.02 418.911 274.299 420.107 276.514C431.294 298.099 450.183 314.693 473.029 323.007C477.264 324.524 481.593 325.761 485.989 326.711C498.497 329.306 511.388 329.457 523.953 327.157C538.779 324.385 552.751 318.186 564.755 309.054C574.645 301.513 583.009 292.159 589.402 281.492C592.023 277.13 594.284 272.561 596.162 267.831C597.767 263.865 599.103 259.794 600.159 255.648C601.606 249.903 602.535 244.041 602.935 238.13C603.113 236.106 603.075 234.553 603.138 233.509C603.202 232.465 603.215 231.943 603.215 231.943C603.215 231.943 603.215 232.465 603.215 233.509C603.215 234.553 603.215 236.055 603.075 238.143C602.736 244.069 601.845 249.951 600.414 255.712C598.125 264.839 594.527 273.586 589.733 281.683C583.345 292.409 574.972 301.819 565.061 309.41C559.303 313.824 553.063 317.57 546.461 320.575C539.32 323.863 531.798 326.249 524.067 327.679C515.787 329.239 507.339 329.714 498.937 329.092C494.547 328.78 490.184 328.176 485.875 327.284C481.453 326.334 477.099 325.097 472.838 323.58C454.699 316.981 438.919 305.157 427.491 289.601C424.514 285.55 421.858 281.272 419.547 276.807C418.274 274.566 417.319 272.236 416.263 269.907C415.206 267.577 414.353 265.158 413.576 262.701C411.929 257.782 410.685 252.736 409.859 247.615C409.044 242.422 408.618 237.174 408.586 231.918C408.606 221.461 410.291 211.074 413.576 201.147C414.353 198.69 415.333 196.322 416.275 193.942C417.217 191.561 418.35 189.295 419.547 187.054C421.86 182.608 424.521 178.351 427.504 174.323C438.928 158.771 454.703 146.952 472.838 140.358C477.099 138.84 481.453 137.603 485.875 136.653C490.184 135.76 494.547 135.156 498.937 134.845C507.318 134.193 515.749 134.633 524.016 136.156C538.92 138.954 552.96 145.207 565.01 154.412C574.922 162.006 583.299 171.416 589.695 182.14C592.31 186.528 594.562 191.122 596.429 195.877C598.016 199.867 599.335 203.958 600.376 208.124C601.808 213.884 602.699 219.766 603.037 225.692C603.202 227.729 603.138 229.282 603.177 230.326C603.215 231.37 603.189 231.943 603.189 231.943Z" fill="#FF725E"/>
</g>
<path d="M590.879 229.842C590.879 229.842 590.879 229.384 590.879 228.48C590.879 227.576 590.879 226.239 590.688 224.495C589.879 212.547 586.52 200.911 580.837 190.37C575.154 179.83 567.278 170.629 557.74 163.387C547.382 155.517 535.328 150.177 522.54 147.792C515.441 146.47 508.2 146.072 500.999 146.608C497.234 146.882 493.492 147.405 489.796 148.174C486.009 148.996 482.279 150.063 478.631 151.369C458.936 158.548 442.65 172.854 432.991 191.459C430.965 195.335 429.262 199.372 427.899 203.528C422.212 220.645 422.212 239.142 427.899 256.259C429.251 260.423 430.954 264.465 432.991 268.34C434.969 272.168 437.246 275.833 439.802 279.302C449.585 292.634 463.096 302.774 478.631 308.442C482.28 309.743 486.01 310.806 489.796 311.625C493.491 312.4 497.234 312.923 500.999 313.191C508.2 313.74 515.442 313.342 522.54 312.007C535.328 309.622 547.382 304.282 557.74 296.412C567.296 289.16 575.182 279.939 580.865 269.374C586.547 258.809 589.892 247.147 590.675 235.176C590.841 233.432 590.802 232.096 590.866 231.192C590.93 230.288 590.866 229.842 590.866 229.842C590.866 229.842 590.866 231.688 590.752 235.189C590.007 248.459 586.077 261.354 579.294 272.783C573.78 282.039 566.557 290.161 558.008 296.717C547.605 304.669 535.484 310.071 522.616 312.491C511.711 314.518 500.516 314.402 489.656 312.147C485.84 311.325 482.081 310.258 478.402 308.952C462.747 303.273 449.125 293.084 439.255 279.671C436.672 276.176 434.373 272.481 432.38 268.62C430.341 264.715 428.638 260.643 427.288 256.45C421.55 239.201 421.55 220.559 427.288 203.311C428.638 199.118 430.342 195.046 432.38 191.14C434.377 187.288 436.671 183.598 439.242 180.103C449.111 166.689 462.733 156.499 478.389 150.822C482.066 149.51 485.826 148.442 489.643 147.626C493.358 146.845 497.123 146.322 500.91 146.061C508.149 145.545 515.424 145.973 522.552 147.334C535.414 149.753 547.531 155.151 557.931 163.094C566.469 169.607 573.692 177.681 579.217 186.888C586 198.318 589.93 211.213 590.675 224.483C590.93 227.996 590.879 229.842 590.879 229.842Z" fill="#FF725E"/>
<path d="M506.041 300.957C544.156 300.957 575.055 270.058 575.055 231.943C575.055 193.828 544.156 162.929 506.041 162.929C467.926 162.929 437.027 193.828 437.027 231.943C437.027 270.058 467.926 300.957 506.041 300.957Z" fill="#FF725E"/>
<path d="M506.601 210.988H505.264C500.596 210.988 496.811 214.772 496.811 219.441V231.497C496.811 236.166 500.596 239.95 505.264 239.95H506.601C511.27 239.95 515.054 236.166 515.054 231.497V219.441C515.054 214.772 511.27 210.988 506.601 210.988Z" fill="#FAFAFA"/>
<path d="M505.926 245.476C502.363 245.469 498.947 244.051 496.428 241.531C493.908 239.011 492.489 235.595 492.483 232.032C492.483 231.863 492.55 231.701 492.669 231.582C492.788 231.463 492.95 231.396 493.119 231.396C493.288 231.396 493.45 231.463 493.569 231.582C493.689 231.701 493.756 231.863 493.756 232.032C493.759 235.259 495.042 238.353 497.324 240.634C499.606 242.916 502.699 244.199 505.926 244.203C507.545 244.277 509.161 244.013 510.672 243.428C512.183 242.842 513.555 241.949 514.702 240.804C515.848 239.659 516.743 238.287 517.33 236.777C517.917 235.267 518.182 233.651 518.11 232.032C518.11 231.863 518.177 231.701 518.296 231.582C518.416 231.463 518.577 231.396 518.746 231.396C518.915 231.396 519.077 231.463 519.196 231.582C519.316 231.701 519.383 231.863 519.383 232.032C519.383 239.938 513.845 245.463 505.926 245.476Z" fill="#FAFAFA"/>
<path d="M506.562 244.827H505.289V251.421H506.562V244.827Z" fill="white"/>
<path d="M513.895 251.777H497.969C497.8 251.777 497.638 251.71 497.519 251.591C497.4 251.472 497.332 251.31 497.332 251.141C497.332 250.972 497.4 250.81 497.519 250.691C497.638 250.571 497.8 250.504 497.969 250.504H513.895C514.064 250.504 514.226 250.571 514.345 250.691C514.465 250.81 514.532 250.972 514.532 251.141C514.529 251.309 514.46 251.469 514.342 251.587C514.223 251.706 514.063 251.774 513.895 251.777Z" fill="white"/>
<path d="M492.648 216.259C492.571 216.424 491.604 216.08 490.458 215.597C489.312 215.113 488.396 214.642 488.447 214.464C488.497 214.285 489.541 214.464 490.713 214.985C491.884 215.507 492.648 216.093 492.648 216.259Z" fill="white"/>
<path d="M497.74 209.435C497.6 209.549 496.773 208.671 495.894 207.487C495.016 206.303 494.43 205.246 494.621 205.144C494.812 205.043 495.589 205.908 496.467 207.092C497.345 208.276 497.867 209.333 497.74 209.435Z" fill="white"/>
<path d="M505.977 206.991C505.786 206.991 505.658 205.883 505.671 204.445C505.684 203.006 505.849 201.898 506.028 201.898C506.469 203.537 506.469 205.263 506.028 206.902L505.977 206.991Z" fill="white"/>
<path d="M516.569 205.196C516.722 205.298 516.327 206.24 515.589 207.233C514.851 208.226 514.036 208.862 513.908 208.735C513.781 208.608 514.329 207.793 515.054 206.825C515.78 205.858 516.404 205.107 516.569 205.196Z" fill="white"/>
<path d="M523.686 213.814C523.775 213.98 522.922 214.629 521.789 215.278C520.656 215.928 519.663 216.31 519.574 216.157C519.485 216.004 520.325 215.342 521.458 214.693C522.591 214.043 523.597 213.662 523.686 213.814Z" fill="white"/>
<path d="M452.928 367.692L450.891 364.751H448.637V367.692H446.18V357.112H450.763C453.59 357.112 455.359 358.589 455.359 360.932C455.395 361.649 455.204 362.36 454.813 362.963C454.423 363.567 453.852 364.032 453.182 364.293L455.55 367.692H452.928ZM450.636 359.111H448.65V362.765H450.636C452.138 362.765 452.889 362.065 452.889 360.919C452.889 359.773 452.126 359.111 450.636 359.111Z" fill="#263238"/>
<path d="M465.047 364.293H458.898C459.022 364.802 459.326 365.249 459.755 365.552C460.183 365.854 460.707 365.99 461.228 365.935C461.603 365.947 461.977 365.884 462.327 365.748C462.677 365.612 462.996 365.408 463.265 365.146L464.538 366.508C464.102 366.949 463.576 367.291 462.996 367.511C462.416 367.731 461.796 367.823 461.177 367.781C460.592 367.84 460 367.775 459.441 367.591C458.882 367.408 458.368 367.109 457.931 366.714C457.495 366.32 457.146 365.838 456.907 365.3C456.668 364.763 456.544 364.181 456.543 363.592C456.536 363.028 456.643 362.469 456.86 361.948C457.077 361.427 457.398 360.956 457.803 360.564C458.209 360.172 458.69 359.866 459.218 359.667C459.745 359.467 460.308 359.378 460.872 359.404C461.434 359.373 461.997 359.461 462.524 359.661C463.051 359.862 463.529 360.17 463.929 360.568C464.329 360.965 464.64 361.442 464.844 361.967C465.048 362.493 465.139 363.055 465.111 363.618C465.098 363.847 465.06 364.102 465.047 364.293ZM458.873 362.918H462.87C462.794 362.442 462.551 362.01 462.185 361.697C461.819 361.385 461.353 361.214 460.872 361.214C460.39 361.214 459.925 361.385 459.558 361.697C459.192 362.01 458.949 362.442 458.873 362.918Z" fill="#263238"/>
<path d="M473.641 363.058V367.692H471.426V366.686C471.154 367.079 470.781 367.392 470.346 367.592C469.912 367.791 469.431 367.87 468.956 367.819C467.046 367.819 465.913 366.762 465.913 365.349C465.913 363.936 466.932 362.918 469.401 362.918H471.273C471.273 361.912 470.674 361.314 469.401 361.314C468.559 361.311 467.738 361.579 467.059 362.078L466.219 360.423C467.266 359.762 468.482 359.422 469.72 359.442C472.202 359.442 473.641 360.601 473.641 363.058ZM471.273 365.133V364.293H469.656C468.561 364.293 468.205 364.7 468.205 365.248C468.205 365.795 468.714 366.228 469.478 366.228C469.856 366.27 470.237 366.185 470.562 365.987C470.887 365.789 471.137 365.488 471.273 365.133Z" fill="#263238"/>
<path d="M484.143 356.489V367.692H481.89V366.763C481.576 367.123 481.182 367.405 480.741 367.589C480.299 367.772 479.821 367.851 479.344 367.819C478.233 367.819 477.168 367.378 476.382 366.592C475.597 365.807 475.155 364.742 475.155 363.631C475.155 362.52 475.597 361.455 476.382 360.669C477.168 359.884 478.233 359.442 479.344 359.442C479.796 359.421 480.247 359.498 480.667 359.667C481.086 359.836 481.465 360.094 481.775 360.423V356.489H484.143ZM481.826 363.631C481.794 363.225 481.644 362.838 481.395 362.517C481.146 362.195 480.808 361.954 480.423 361.822C480.039 361.69 479.624 361.673 479.23 361.773C478.836 361.873 478.48 362.087 478.205 362.387C477.93 362.687 477.749 363.06 477.684 363.462C477.619 363.863 477.673 364.275 477.838 364.646C478.004 365.018 478.274 365.333 478.616 365.553C478.958 365.773 479.357 365.888 479.764 365.884C480.052 365.885 480.336 365.826 480.6 365.711C480.864 365.596 481.1 365.426 481.294 365.214C481.488 365.002 481.636 364.751 481.728 364.479C481.819 364.206 481.853 363.917 481.826 363.631Z" fill="#263238"/>
<path d="M494.392 359.57L490.713 368.201C490.531 368.948 490.098 369.609 489.485 370.073C488.873 370.537 488.119 370.775 487.352 370.747C486.534 370.769 485.734 370.508 485.085 370.009L485.938 368.329C486.31 368.652 486.783 368.837 487.275 368.851C487.924 368.851 488.281 368.558 488.548 367.832V367.756L485.022 359.57H487.555L489.834 365.082L492.138 359.57H494.392Z" fill="#263238"/>
<path d="M504.882 367.31C504.306 367.667 503.637 367.844 502.96 367.819C502.558 367.875 502.15 367.839 501.765 367.714C501.38 367.589 501.028 367.379 500.736 367.098C500.444 366.817 500.22 366.474 500.08 366.094C499.941 365.713 499.889 365.307 499.93 364.904V361.568H498.657V359.748H499.93V357.762H502.285V359.748H504.309V361.568H502.285V364.866C502.266 365.006 502.278 365.148 502.321 365.283C502.363 365.418 502.435 365.541 502.531 365.645C502.628 365.748 502.746 365.829 502.877 365.882C503.008 365.934 503.149 365.956 503.291 365.948C503.633 365.95 503.967 365.843 504.245 365.642L504.882 367.31Z" fill="#263238"/>
<path d="M505.378 363.631C505.32 362.734 505.532 361.84 505.988 361.065C506.444 360.29 507.122 359.67 507.935 359.286C508.748 358.902 509.657 358.771 510.545 358.911C511.433 359.05 512.259 359.453 512.915 360.068C513.571 360.683 514.026 361.481 514.223 362.358C514.419 363.235 514.348 364.151 514.017 364.987C513.686 365.823 513.111 366.54 512.368 367.045C511.624 367.55 510.746 367.82 509.847 367.819C509.274 367.857 508.699 367.777 508.158 367.584C507.617 367.391 507.122 367.089 506.702 366.696C506.283 366.303 505.95 365.828 505.722 365.301C505.494 364.773 505.377 364.205 505.378 363.631ZM511.922 363.631C511.89 363.226 511.74 362.839 511.492 362.518C511.243 362.197 510.906 361.955 510.522 361.822C510.138 361.69 509.724 361.672 509.33 361.772C508.936 361.871 508.58 362.083 508.305 362.382C508.03 362.68 507.848 363.053 507.781 363.454C507.715 363.854 507.766 364.266 507.93 364.637C508.094 365.009 508.362 365.325 508.703 365.546C509.043 365.768 509.441 365.885 509.847 365.884C510.133 365.883 510.417 365.823 510.679 365.707C510.941 365.591 511.176 365.421 511.369 365.209C511.562 364.997 511.708 364.747 511.799 364.475C511.89 364.204 511.923 363.916 511.897 363.631H511.922Z" fill="#263238"/>
<path d="M520.134 356.489H522.489V367.692H520.134V356.489Z" fill="#263238"/>
<path d="M524.399 357.113C524.408 356.932 524.454 356.755 524.533 356.592C524.613 356.43 524.724 356.285 524.861 356.166C524.997 356.047 525.156 355.957 525.328 355.901C525.501 355.845 525.682 355.824 525.863 355.84C526.045 355.812 526.231 355.824 526.409 355.876C526.586 355.927 526.75 356.017 526.889 356.138C527.028 356.259 527.14 356.409 527.215 356.577C527.291 356.745 527.329 356.928 527.327 357.113C527.327 357.501 527.172 357.873 526.898 358.148C526.623 358.422 526.251 358.577 525.863 358.577C525.474 358.577 525.102 358.422 524.827 358.148C524.553 357.873 524.399 357.501 524.399 357.113ZM524.691 359.57H527.021V367.692H524.666L524.691 359.57Z" fill="#263238"/>
<path d="M528.447 366.941L529.236 365.248C530.091 365.76 531.067 366.032 532.063 366.037C533.158 366.037 533.565 365.744 533.565 365.299C533.565 363.962 528.651 365.299 528.651 362.078C528.651 360.537 530.039 359.442 532.406 359.442C533.493 359.419 534.569 359.664 535.538 360.155L534.749 361.836C534.037 361.427 533.228 361.216 532.406 361.225C531.35 361.225 530.904 361.568 530.904 361.989C530.904 363.376 535.806 361.989 535.806 365.235C535.806 366.75 534.405 367.781 531.986 367.781C530.753 367.815 529.533 367.526 528.447 366.941Z" fill="#263238"/>
<path d="M542.515 367.31C541.939 367.667 541.269 367.844 540.592 367.819C540.191 367.875 539.782 367.839 539.396 367.714C539.01 367.589 538.658 367.378 538.365 367.098C538.073 366.817 537.847 366.474 537.706 366.094C537.565 365.714 537.511 365.307 537.55 364.904V361.568H536.276V359.748H537.55V357.762H539.905V359.748H541.929V361.568H539.905V364.866C539.885 365.007 539.898 365.15 539.941 365.286C539.985 365.422 540.058 365.546 540.155 365.65C540.253 365.754 540.373 365.834 540.506 365.886C540.638 365.937 540.781 365.958 540.923 365.948C541.265 365.946 541.599 365.839 541.878 365.642L542.515 367.31Z" fill="#263238"/>
<path d="M551.503 364.293H545.354C545.477 364.802 545.782 365.249 546.21 365.552C546.639 365.854 547.162 365.99 547.683 365.935C548.059 365.947 548.432 365.884 548.782 365.748C549.132 365.612 549.451 365.408 549.72 365.146L550.993 366.508C550.561 366.95 550.038 367.293 549.459 367.513C548.881 367.733 548.262 367.824 547.645 367.781C544.832 367.781 542.998 366.011 542.998 363.592C542.991 363.027 543.099 362.467 543.317 361.945C543.534 361.423 543.856 360.951 544.263 360.559C544.67 360.166 545.152 359.862 545.682 359.663C546.211 359.464 546.775 359.376 547.34 359.404C547.902 359.373 548.465 359.461 548.992 359.661C549.519 359.862 549.997 360.17 550.397 360.568C550.797 360.965 551.108 361.442 551.312 361.967C551.516 362.493 551.607 363.055 551.579 363.618C551.554 363.847 551.515 364.102 551.503 364.293ZM545.315 362.918H549.326C549.242 362.447 548.995 362.021 548.628 361.714C548.261 361.408 547.799 361.239 547.321 361.239C546.843 361.239 546.38 361.408 546.013 361.714C545.647 362.021 545.4 362.447 545.315 362.918Z" fill="#263238"/>
<path d="M561.394 363.045V367.692H559.039V363.402C559.039 362.129 558.428 361.492 557.397 361.492C556.366 361.492 555.436 362.179 555.436 363.682V367.692H553.119V359.57H555.373V360.524C555.719 360.165 556.138 359.884 556.601 359.697C557.063 359.511 557.56 359.424 558.059 359.442C558.527 359.418 558.994 359.497 559.428 359.673C559.862 359.849 560.252 360.119 560.57 360.463C560.889 360.806 561.127 361.216 561.27 361.662C561.412 362.108 561.455 362.581 561.394 363.045Z" fill="#263238"/>
<path d="M484.335 492.492C484.327 491.912 484.438 491.337 484.661 490.801C484.885 490.265 485.215 489.781 485.633 489.378C486.05 488.975 486.546 488.662 487.089 488.457C487.632 488.253 488.211 488.162 488.79 488.189C489.383 488.162 489.975 488.261 490.526 488.481C491.077 488.7 491.575 489.035 491.986 489.463L491.197 490.226C490.898 489.901 490.534 489.643 490.127 489.47C489.721 489.296 489.283 489.211 488.841 489.221C487.984 489.221 487.161 489.561 486.555 490.168C485.948 490.774 485.608 491.597 485.608 492.454C485.608 493.312 485.948 494.134 486.555 494.741C487.161 495.347 487.984 495.688 488.841 495.688C489.284 495.695 489.723 495.608 490.129 495.432C490.535 495.257 490.899 494.997 491.197 494.669L491.986 495.433C491.573 495.862 491.073 496.197 490.52 496.417C489.966 496.636 489.372 496.735 488.778 496.706C488.207 496.732 487.636 496.642 487.101 496.443C486.565 496.243 486.075 495.937 485.661 495.544C485.246 495.15 484.915 494.677 484.687 494.153C484.459 493.629 484.339 493.064 484.335 492.492Z" fill="#263238"/>
<path d="M498.491 492.848V496.668H497.396V495.827C497.153 496.143 496.835 496.393 496.47 496.554C496.105 496.714 495.705 496.779 495.308 496.744C493.87 496.744 492.953 495.967 492.953 494.873C492.953 493.778 493.615 493.001 495.499 493.001H497.32V492.772C497.32 491.804 496.76 491.244 495.614 491.244C494.885 491.239 494.176 491.482 493.602 491.932L493.119 491.066C493.881 490.507 494.809 490.221 495.754 490.251C497.498 490.277 498.491 491.117 498.491 492.848ZM497.333 494.745V493.892H495.563C494.417 493.892 494.099 494.338 494.099 494.885C494.099 495.433 494.621 495.916 495.499 495.916C495.89 495.943 496.279 495.843 496.608 495.632C496.938 495.421 497.192 495.111 497.333 494.745Z" fill="#263238"/>
<path d="M506.652 493.027V496.693H505.493V493.167C505.493 491.894 504.869 491.308 503.787 491.308C503.508 491.285 503.227 491.325 502.964 491.424C502.702 491.523 502.466 491.68 502.272 491.883C502.078 492.085 501.931 492.328 501.843 492.594C501.755 492.861 501.728 493.143 501.763 493.421V496.693H500.617V490.328H501.712V491.346C501.986 491.004 502.339 490.733 502.74 490.556C503.141 490.379 503.579 490.301 504.016 490.328C504.375 490.3 504.735 490.351 505.072 490.478C505.409 490.604 505.714 490.803 505.965 491.061C506.217 491.318 506.408 491.628 506.527 491.967C506.645 492.307 506.688 492.669 506.652 493.027Z" fill="#263238"/>
<path d="M508.243 493.511C508.235 493.072 508.318 492.636 508.487 492.231C508.656 491.826 508.906 491.46 509.223 491.156C509.54 490.853 509.916 490.618 510.328 490.467C510.74 490.315 511.179 490.251 511.617 490.277C512.124 490.252 512.628 490.364 513.076 490.601C513.524 490.839 513.9 491.193 514.163 491.627L513.285 492.187C513.1 491.901 512.845 491.667 512.544 491.509C512.243 491.35 511.906 491.273 511.566 491.283C510.972 491.283 510.402 491.519 509.982 491.939C509.561 492.359 509.325 492.929 509.325 493.524C509.325 494.118 509.561 494.688 509.982 495.108C510.402 495.528 510.972 495.764 511.566 495.764C511.907 495.772 512.244 495.692 512.545 495.531C512.846 495.371 513.101 495.135 513.285 494.848L514.163 495.395C513.902 495.832 513.528 496.191 513.079 496.433C512.631 496.675 512.126 496.792 511.617 496.77C511.177 496.795 510.737 496.728 510.324 496.575C509.911 496.421 509.535 496.184 509.218 495.878C508.901 495.572 508.651 495.203 508.483 494.796C508.316 494.389 508.234 493.951 508.243 493.511Z" fill="#263238"/>
<path d="M521.317 493.893H516.161C516.232 494.441 516.51 494.941 516.939 495.29C517.368 495.638 517.915 495.808 518.466 495.764C518.809 495.776 519.151 495.712 519.468 495.578C519.785 495.444 520.068 495.243 520.299 494.988L520.936 495.739C520.464 496.214 519.865 496.542 519.211 496.684C518.557 496.826 517.876 496.777 517.249 496.542C516.623 496.307 516.078 495.895 515.679 495.358C515.281 494.82 515.046 494.179 515.003 493.511C514.987 493.085 515.059 492.661 515.213 492.264C515.368 491.867 515.602 491.506 515.901 491.203C516.201 490.9 516.559 490.662 516.954 490.503C517.349 490.343 517.773 490.267 518.198 490.277C518.625 490.266 519.05 490.344 519.445 490.506C519.841 490.668 520.198 490.91 520.494 491.218C520.79 491.526 521.018 491.893 521.164 492.294C521.311 492.696 521.371 493.123 521.343 493.549C521.341 493.664 521.332 493.779 521.317 493.893ZM516.161 493.066H520.235C520.179 492.565 519.94 492.102 519.565 491.766C519.189 491.43 518.703 491.244 518.198 491.244C517.694 491.244 517.208 491.43 516.832 491.766C516.456 492.102 516.218 492.565 516.161 493.066Z" fill="#263238"/>
<path d="M522.947 487.782H524.093V496.694H522.947V487.782Z" fill="#263238"/>
<path d="M562.553 514.046C562.553 514.046 562.871 514.046 563.482 513.957L564.615 513.88L566.181 513.626C570.627 512.746 574.623 510.333 577.471 506.808C580.319 503.283 581.838 498.87 581.764 494.339C581.803 492.673 581.748 491.007 581.598 489.348C581.374 487.599 580.92 485.887 580.249 484.256C579.501 482.544 578.529 480.938 577.359 479.482C576.085 477.987 574.607 476.68 572.967 475.599C569.375 473.337 565.159 472.272 560.923 472.556H547.06H516.506H446.486C443.404 472.587 440.375 473.356 437.651 474.797C434.983 476.179 432.683 478.178 430.942 480.627C429.202 483.03 428.067 485.816 427.632 488.75C427.507 489.469 427.439 490.197 427.428 490.927C427.428 491.652 427.428 492.403 427.428 493.142C427.382 494.593 427.459 496.045 427.657 497.483C428.062 500.32 429.107 503.028 430.712 505.402C432.307 507.715 434.383 509.656 436.798 511.092C439.166 512.495 441.812 513.364 444.551 513.639L446.575 513.728H452.686L509.886 513.791L548.447 513.893H558.937L548.447 513.957L509.886 514.059L452.686 514.122H446.575L444.487 514.02C441.659 513.74 438.926 512.845 436.48 511.398C433.982 509.917 431.833 507.915 430.178 505.529C428.521 503.073 427.437 500.275 427.008 497.343C426.811 495.871 426.734 494.385 426.779 492.9C426.779 492.149 426.779 491.423 426.779 490.659C426.783 489.904 426.851 489.15 426.982 488.406C427.436 485.374 428.605 482.493 430.394 480.004C432.203 477.469 434.585 475.397 437.345 473.957C440.151 472.517 443.256 471.759 446.41 471.741H516.429H546.983H560.847C564.011 471.515 567.184 472.046 570.102 473.29C573.02 474.534 575.599 476.456 577.626 478.896C580.002 481.776 581.492 485.282 581.917 488.992C582.052 490.685 582.099 492.385 582.057 494.084C582.132 496.92 581.59 499.739 580.466 502.344C579.343 504.949 577.666 507.278 575.551 509.17C572.917 511.527 569.684 513.113 566.207 513.753L564.628 513.97C564.183 513.97 563.788 513.97 563.482 513.97L562.553 514.046Z" fill="#263238"/>
<path d="M603.19 101.185C599.922 101.544 596.633 101.663 593.349 101.541C590.06 101.664 586.766 101.545 583.495 101.185C586.767 100.832 590.06 100.713 593.349 100.828C596.633 100.713 599.922 100.832 603.19 101.185Z" fill="#263238"/>
<path d="M603.19 96.0414C599.922 96.4013 596.633 96.5204 593.349 96.3979C590.06 96.5207 586.766 96.4015 583.495 96.0414C586.767 95.6891 590.06 95.5699 593.349 95.685C596.633 95.5702 599.922 95.6893 603.19 96.0414Z" fill="#263238"/>
<path d="M603.19 90.8979C599.922 91.2577 596.633 91.3769 593.349 91.2544C590.06 91.3771 586.766 91.258 583.495 90.8979C586.767 90.5455 590.06 90.4264 593.349 90.5414C596.633 90.4266 599.922 90.5457 603.19 90.8979Z" fill="#263238"/>
<path d="M406.931 104.507C407.071 104.49 407.212 104.49 407.351 104.507H408.535L412.876 104.405L412.762 104.533C412.762 103.565 412.762 102.521 412.762 101.375C412.762 100.79 412.762 100.242 412.762 99.5675C412.843 99.2291 413.027 98.9245 413.29 98.6962C413.552 98.4679 413.88 98.3274 414.226 98.2945C414.926 98.2945 415.499 98.2945 416.301 98.2945C416.7 98.3583 417.063 98.5628 417.325 98.871C417.586 99.1792 417.729 99.5707 417.727 99.9749C417.727 101.439 417.727 102.979 417.727 104.571L417.523 104.367H423.01L422.794 104.571C422.794 102.368 422.794 100.09 422.794 97.747C422.794 97.1614 422.794 96.5758 422.794 96.0029C422.766 95.748 422.684 95.5022 422.552 95.2824C422.42 95.0626 422.242 94.874 422.03 94.7298L419.636 92.3746L417.319 90.0958L416.199 88.9882C415.817 88.619 415.512 88.2244 415.066 88.1352C414.849 88.0761 414.622 88.0672 414.402 88.1091C414.181 88.151 413.973 88.2427 413.793 88.3771C413.462 88.6572 413.106 89.0519 412.775 89.3829C412.1 90.0576 411.501 90.6559 410.814 91.3689C409.541 92.642 408.268 93.8259 407.338 94.9335C407.063 95.5792 406.97 96.2884 407.071 96.9832C407.071 97.6579 407.071 98.2563 407.071 98.9183C407.071 100.102 407.071 101.133 407.071 102.025C407.071 102.916 407.071 103.476 407.071 104.011C407.089 104.252 407.089 104.495 407.071 104.736C407.053 104.516 407.053 104.295 407.071 104.074C407.071 103.54 407.071 102.903 407.071 102.114C407.071 101.324 407.071 100.166 406.995 98.9819C406.995 98.3581 406.995 97.7088 406.995 97.0086C406.995 96.6522 406.995 96.2957 406.995 95.9265C406.997 95.5247 407.102 95.1301 407.3 94.7807C408.319 93.5077 409.528 92.4383 410.776 91.1143L412.444 88.8864C412.8 88.5426 413.08 88.1989 413.5 87.8424C413.724 87.6725 413.984 87.5556 414.259 87.5004C414.535 87.4453 414.819 87.4534 415.092 87.5242C415.595 87.7135 416.036 88.0398 416.365 88.4662L417.498 89.5738L419.815 91.8399L422.208 94.2079C422.441 94.4036 422.65 94.6257 422.832 94.8699C423.008 95.1438 423.105 95.461 423.112 95.7865C423.112 96.3721 423.112 96.945 423.112 97.5433C423.112 99.8731 423.112 102.165 423.112 104.367V104.583H422.896H417.409H417.218V104.38C417.218 102.788 417.218 101.248 417.218 99.784C417.22 99.4731 417.109 99.1721 416.905 98.9376C416.701 98.703 416.418 98.5513 416.11 98.5109C415.473 98.5109 414.735 98.5109 414.111 98.5109C413.827 98.5408 413.561 98.6607 413.35 98.8531C413.139 99.0455 412.996 99.3003 412.94 99.5803C412.94 100.128 412.94 100.764 412.94 101.324V104.596H412.813H408.395H407.249L406.931 104.507Z" fill="#263238"/>
<path d="M696.812 175.94C696.634 181.911 700.861 182.484 703.776 182.726C706.691 182.968 710.027 181.644 712.688 180.383C718.086 177.837 723.318 175.189 725.495 169.231" fill="#FFBE9D"/>
<path d="M630.586 120.217C630.408 120.217 630.255 129.129 630.255 140.014C630.255 150.899 630.408 159.797 630.586 159.797C630.765 159.797 630.917 150.886 630.917 140.014C630.917 129.142 630.765 120.217 630.586 120.217Z" fill="#FF725E"/>
<path d="M625.43 124.571C625.252 124.571 625.099 131.331 625.099 139.683C625.099 148.034 625.252 154.782 625.43 154.782C625.608 154.782 625.761 148.021 625.761 139.683C625.761 131.344 625.608 124.571 625.43 124.571Z" fill="#FF725E"/>
<path d="M619.625 128.887C619.297 132.522 619.187 136.174 619.294 139.823C619.187 143.475 619.297 147.131 619.625 150.771C619.96 147.132 620.071 143.475 619.956 139.823C620.071 136.174 619.96 132.522 619.625 128.887Z" fill="#FF725E"/>
<path d="M614.571 132.604C614.237 134.623 614.126 136.672 614.24 138.715C614.126 140.753 614.237 142.798 614.571 144.813C614.897 142.798 615.008 140.753 614.902 138.715C615.008 136.672 614.898 134.623 614.571 132.604Z" fill="#FF725E"/>
<path d="M610.103 135.583C609.661 137.793 609.661 140.069 610.103 142.279C610.544 140.069 610.544 137.793 610.103 135.583Z" fill="#FF725E"/>
<path d="M605.036 132.006C604.709 134.025 604.598 136.074 604.705 138.117C604.598 140.155 604.709 142.2 605.036 144.215C605.37 142.2 605.481 140.155 605.367 138.117C605.481 136.074 605.37 134.024 605.036 132.006Z" fill="#FF725E"/>
<path d="M600.274 127.104C599.947 130.914 599.836 134.74 599.943 138.562C599.836 142.385 599.947 146.21 600.274 150.02C600.61 146.211 600.72 142.385 600.605 138.562C600.72 134.74 600.61 130.914 600.274 127.104Z" fill="#FF725E"/>
<path d="M660.669 128.887C660.342 132.522 660.231 136.174 660.338 139.823C660.231 143.475 660.342 147.131 660.669 150.771C661.005 147.132 661.115 143.475 661 139.823C661.115 136.174 661.005 132.522 660.669 128.887Z" fill="#FF725E"/>
<path d="M655.615 132.604C655.281 134.623 655.17 136.672 655.284 138.715C655.17 140.753 655.281 142.798 655.615 144.813C655.941 142.798 656.052 140.753 655.946 138.715C656.052 136.672 655.941 134.623 655.615 132.604Z" fill="#FF725E"/>
<path d="M651.146 135.583C650.705 137.793 650.705 140.069 651.146 142.279C651.477 141.196 651.589 140.058 651.477 138.931C651.589 137.804 651.477 136.666 651.146 135.583Z" fill="#FF725E"/>
<path d="M646.092 130.224C645.758 132.84 645.647 135.481 645.761 138.117C645.647 140.748 645.757 143.385 646.092 145.997C646.42 143.384 646.531 140.748 646.423 138.117C646.53 135.481 646.42 132.841 646.092 130.224Z" fill="#FF725E"/>
<path d="M641.331 127.104C640.987 130.913 640.873 134.74 640.988 138.562C640.873 142.385 640.987 146.211 641.331 150.02C641.659 146.21 641.77 142.385 641.662 138.562C641.77 134.74 641.659 130.914 641.331 127.104Z" fill="#FF725E"/>
<path d="M635.526 124.698C635.335 124.698 635.195 131.229 635.195 139.275C635.195 147.321 635.335 153.865 635.526 153.865C635.717 153.865 635.857 147.334 635.857 139.275C635.857 131.216 635.704 124.698 635.526 124.698Z" fill="#FF725E"/>
<path d="M666.08 144.215C666.414 142.2 666.525 140.155 666.411 138.117C666.525 136.074 666.414 134.024 666.08 132.006C665.753 134.025 665.642 136.074 665.749 138.117C665.642 140.155 665.753 142.2 666.08 144.215Z" fill="#FF725E"/>
<path d="M670.549 141.249C670.99 139.038 670.99 136.763 670.549 134.552C670.107 136.763 670.107 139.038 670.549 141.249Z" fill="#FF725E"/>
<path d="M595.576 132.006C595.25 134.025 595.139 136.074 595.245 138.117C595.138 140.155 595.249 142.2 595.576 144.215C595.911 142.2 596.022 140.155 595.907 138.117C596.022 136.074 595.911 134.024 595.576 132.006Z" fill="#FF725E"/>
<path d="M591.146 134.985C590.705 137.195 590.705 139.471 591.146 141.681C591.478 140.598 591.59 139.46 591.477 138.333C591.589 137.206 591.476 136.068 591.146 134.985Z" fill="#FF725E"/>
<path d="M636.048 521.989L626.767 548.902C626.767 548.902 596.289 548.52 594.1 553.333L645.634 573.18L661.777 531.83L636.048 521.989Z" fill="#FF725E"/>
<path d="M643.572 552.811C644.009 553.154 644.305 553.647 644.401 554.194C644.498 554.742 644.388 555.306 644.094 555.778C643.769 556.226 643.284 556.533 642.739 556.635C642.194 556.737 641.631 556.626 641.166 556.325C640.704 555.96 640.392 555.438 640.291 554.857C640.19 554.277 640.307 553.68 640.618 553.181C641.007 552.746 641.55 552.479 642.132 552.437C642.713 552.394 643.289 552.578 643.737 552.951" fill="#E0E0E0"/>
<g opacity="0.6">
<path d="M645.634 573.18L647.111 569.005L597.142 551.551C597.142 551.551 594.456 551.665 594.099 553.384L645.634 573.18Z" fill="white"/>
</g>
<path d="M626.029 548.317C625.94 548.571 627.162 549.17 628.091 550.456C629.021 551.741 629.262 553.065 629.53 553.002C629.797 552.938 629.988 551.385 628.842 549.857C627.696 548.33 626.067 548.075 626.029 548.317Z" fill="#263238"/>
<path d="M619.765 548.47C619.612 548.699 620.542 549.539 621.038 550.939C621.535 552.34 621.293 553.549 621.547 553.638C621.802 553.727 622.515 552.365 621.929 550.634C621.344 548.902 619.867 548.24 619.765 548.47Z" fill="#263238"/>
<path d="M614.202 553.728C614.406 553.868 615.246 552.747 615.131 551.181C615.017 549.616 614.049 548.546 613.858 548.724C613.667 548.903 614.125 549.908 614.189 551.271C614.253 552.633 613.96 553.639 614.202 553.728Z" fill="#263238"/>
<path d="M628.829 542.423C628.829 542.69 630.102 542.792 631.516 543.428C632.929 544.065 633.845 544.956 634.062 544.79C634.278 544.625 633.565 543.314 631.923 542.575C630.281 541.837 628.778 542.181 628.829 542.423Z" fill="#263238"/>
<path d="M832.141 512.289L832.726 513.053L843.828 527.617L857.641 537.089L839.143 572.735H818.773C818.773 572.735 820.25 567.834 830.04 565.3L830.69 545.733L813.095 526.408" fill="#FF725E"/>
<g opacity="0.6">
<path d="M857.692 537.089L839.194 572.722L818.824 572.748L821.116 569.68L837.679 568.75L854.751 535.064L857.692 537.089Z" fill="white"/>
</g>
<path d="M830.219 556.35C830.371 556.554 831.492 555.892 833.121 555.93C834.751 555.969 835.858 556.631 836.011 556.427C836.164 556.223 835.056 555.052 833.134 555.039C831.212 555.026 830.028 556.185 830.219 556.35Z" fill="#263238"/>
<path d="M830.55 551.5C830.753 551.64 831.657 550.443 833.287 550.125C834.916 549.807 836.202 550.545 836.329 550.329C836.457 550.112 836.164 549.896 835.591 549.59C834.825 549.199 833.949 549.078 833.106 549.247C832.263 549.416 831.501 549.864 830.944 550.52C830.537 551.029 830.448 551.436 830.55 551.5Z" fill="#263238"/>
<path d="M830.409 545.261C830.639 545.376 831.326 544.205 832.739 543.708C834.152 543.212 835.438 543.708 835.54 543.453C835.642 543.199 835.336 543.059 834.776 542.855C834.023 542.586 833.2 542.586 832.446 542.855C831.694 543.122 831.053 543.633 830.626 544.306C830.32 544.816 830.308 545.223 830.409 545.261Z" fill="#263238"/>
<path d="M824.961 540.437C825.202 540.526 825.763 539.368 827.036 538.54C828.309 537.713 829.582 537.598 829.582 537.343C829.582 537.089 828.067 536.77 826.539 537.802C825.012 538.833 824.731 540.411 824.961 540.437Z" fill="#263238"/>
<g opacity="0.6">
<path d="M841.447 536.477C841.447 536.956 841.589 537.424 841.855 537.821C842.121 538.219 842.498 538.529 842.94 538.712C843.382 538.895 843.869 538.943 844.338 538.85C844.807 538.757 845.238 538.526 845.576 538.188C845.915 537.85 846.145 537.419 846.238 536.949C846.332 536.48 846.284 535.994 846.101 535.552C845.918 535.11 845.608 534.732 845.21 534.466C844.812 534.2 844.344 534.059 843.866 534.059C843.225 534.059 842.609 534.313 842.156 534.767C841.702 535.221 841.447 535.836 841.447 536.477Z" fill="white"/>
</g>
<path d="M725.304 350.276C720.491 352.058 743.547 446.916 743.547 446.916L813.146 530.596L836.342 510.608L784.286 430.544L767.952 301.53L730.422 303.567L725.304 350.276Z" fill="#263238"/>
<path d="M693.336 301.53C692.674 303.363 653.998 436.604 653.998 436.604L632.496 527.464L660.504 536.592C660.504 536.592 697.245 451.563 701.662 437.291C706.08 423.02 716.519 402.231 716.519 402.231L736.889 348.379C736.889 348.379 769.454 330.39 767.061 300.002L693.336 301.53Z" fill="#263238"/>
<path d="M629.198 533.969L630.853 523.033L664.565 533.982L660.644 545.541L629.198 533.969Z" fill="#263238"/>
<path d="M766.793 301.53C766.793 301.53 766.73 301.886 766.641 302.599L766.246 305.731C765.784 309.709 765.04 313.648 764.018 317.52C763.261 320.274 762.198 322.934 760.848 325.451C759.233 328.403 757.248 331.136 754.941 333.586C749.295 339.419 742.645 344.188 735.31 347.666L735.196 347.73V347.845C733.922 352.682 732.255 357.686 730.434 362.854C728.614 368.023 726.615 373.357 724.553 378.857C720.402 389.844 715.819 401.454 711.071 413.459C704.451 430.009 698.34 445.91 692.394 460.22C686.449 474.529 681.039 487.349 676.455 498.119C671.872 508.89 668.142 517.598 665.672 523.657C664.399 526.687 663.495 529.055 662.884 530.659L662.197 532.505C662.044 532.913 661.98 533.129 661.98 533.129C661.98 533.129 662.082 532.925 662.261 532.518L662.999 530.71L665.902 523.759C668.448 517.725 672.267 509.03 676.888 498.298C681.51 487.565 687.073 474.746 692.967 460.436C698.862 446.127 705.062 430.239 711.669 413.688C716.418 401.683 720.988 390.073 725.125 379.061C727.201 373.574 729.161 368.214 730.969 363.032C732.777 357.851 734.444 352.848 735.705 347.972L735.565 348.15C742.941 344.621 749.618 339.786 755.272 333.879C757.589 331.39 759.583 328.618 761.205 325.629C762.54 323.076 763.586 320.381 764.324 317.596C765.319 313.704 766.016 309.742 766.412 305.744C766.552 304.381 766.653 303.338 766.73 302.599C766.806 301.861 766.793 301.53 766.793 301.53Z" fill="#455A64"/>
<path d="M709.683 354.121C709.963 354.363 710.288 354.548 710.638 354.668C711.556 355.055 712.533 355.283 713.528 355.343C716.862 355.477 720.122 354.334 722.643 352.148C725.078 349.947 726.98 347.222 728.206 344.178C728.69 343.032 729.021 342.078 729.238 341.416C729.383 341.081 729.465 340.723 729.479 340.359C729.378 340.359 728.843 341.759 727.774 343.974C726.458 346.873 724.565 349.472 722.21 351.613C719.804 353.691 716.733 354.838 713.553 354.847C712.237 354.771 710.937 354.528 709.683 354.121Z" fill="#455A64"/>
<path d="M767.532 435.331C770.015 433.888 772.617 432.662 775.31 431.664C778.073 430.884 780.896 430.339 783.751 430.034C782.917 429.838 782.055 429.79 781.205 429.894C777.044 430.112 773.015 431.43 769.531 433.714C768.774 434.131 768.098 434.678 767.532 435.331Z" fill="#455A64"/>
<path d="M631.223 523.173C631.223 523.339 638.582 525.974 647.773 529.055C656.965 532.136 664.463 534.491 664.527 534.313C664.591 534.134 657.181 531.499 647.977 528.431C638.772 525.363 631.223 522.97 631.223 523.173Z" fill="#455A64"/>
<path d="M843.458 518.4L837.258 507.489L809.964 530.608L818.353 539.762L843.458 518.4Z" fill="#263238"/>
<path d="M809.964 530.609C810.374 530.371 810.75 530.08 811.084 529.743L813.974 527.197C816.406 525.058 819.767 522.104 823.624 519.049C827.481 515.994 830.881 513.066 833.35 510.965C834.623 509.921 835.578 509.055 836.253 508.419C836.928 507.782 837.297 507.464 837.259 507.426C836.843 507.649 836.451 507.913 836.088 508.215C835.362 508.763 834.331 509.565 833.058 510.558C830.511 512.569 827.023 515.37 823.204 518.502C819.385 521.633 816.011 524.587 813.656 526.815C812.472 527.922 811.542 528.839 810.906 529.488C810.547 529.822 810.23 530.198 809.964 530.609Z" fill="#455A64"/>
<path d="M708.881 97.9636C707.71 93.6097 704.438 91.4709 700.186 90.0196C698.041 89.3085 695.756 89.127 693.526 89.4906C691.296 89.8541 689.187 90.752 687.379 92.1074C684.985 93.9279 683.114 96.5759 680.275 97.5562C675.59 99.1858 670.09 95.6848 665.609 97.7854C664.238 98.3916 663.125 99.4621 662.466 100.808C661.807 102.155 661.645 103.69 662.007 105.145C662.369 106.599 663.232 107.879 664.446 108.759C665.659 109.64 667.144 110.063 668.639 109.956C665.584 111.076 664.642 115.43 666.424 118.155C668.206 120.879 671.873 121.898 675.068 121.299C678.246 120.525 681.152 118.896 683.47 116.589C685.889 114.425 688.054 111.955 690.638 109.982C693.15 107.863 696.327 106.696 699.613 106.684C704.005 106.926 707.774 110.236 709.734 114.183C711.695 118.129 712.153 122.636 712.395 127.028C712.637 131.42 712.713 135.94 714.024 140.103C714.177 140.599 714.406 141.147 714.903 141.299C715.616 141.516 716.176 140.765 716.571 140.103C720.586 132.658 723.095 124.495 723.954 116.08C724.451 111.204 724.324 106.595 721.65 102.496C718.977 98.3964 712.204 95.3665 708.919 97.9636" fill="#263238"/>
<path d="M717.36 118.333L719.6 167.652C719.995 176.042 718.836 188.442 705.596 188.442C694.075 187.576 690.663 176.806 690.319 168.976C690.154 165.259 690.001 162.165 689.963 161.783C689.963 161.783 677.346 161.172 675.882 148.785C675.17 142.802 674.698 130.364 674.418 119.097C674.269 113.271 676.317 107.602 680.154 103.215C683.991 98.8285 689.337 96.0452 695.132 95.4176L696.328 95.2903C709.314 94.6411 717.092 105.322 717.36 118.333Z" fill="#FFBE9D"/>
<path d="M689.874 161.618C695.616 161.105 701.073 158.888 705.546 155.252C705.546 155.252 702.681 164.584 690.18 164.788L689.874 161.618Z" fill="#EB996E"/>
<path d="M678.862 126.99C678.907 127.451 679.13 127.877 679.484 128.177C679.839 128.476 680.296 128.626 680.758 128.594C680.986 128.587 681.21 128.535 681.417 128.441C681.624 128.347 681.81 128.212 681.964 128.045C682.118 127.878 682.237 127.681 682.315 127.467C682.392 127.253 682.425 127.026 682.413 126.799C682.368 126.337 682.145 125.911 681.79 125.612C681.436 125.312 680.979 125.163 680.517 125.195C680.289 125.201 680.065 125.253 679.858 125.347C679.651 125.442 679.465 125.576 679.311 125.744C679.157 125.911 679.037 126.107 678.96 126.321C678.883 126.535 678.85 126.763 678.862 126.99Z" fill="#263238"/>
<path d="M677.678 124.864C677.92 125.08 679.155 123.935 681.064 123.744C682.974 123.553 684.463 124.355 684.654 124.1C684.845 123.845 684.476 123.591 683.814 123.209C682.929 122.724 681.915 122.523 680.911 122.636C679.923 122.746 678.994 123.159 678.251 123.82C677.716 124.342 677.551 124.775 677.678 124.864Z" fill="#263238"/>
<path d="M697.627 125.641C697.669 126.105 697.891 126.534 698.246 126.836C698.6 127.138 699.059 127.289 699.524 127.257C699.751 127.249 699.974 127.196 700.18 127.101C700.386 127.007 700.572 126.872 700.726 126.705C700.879 126.538 700.999 126.342 701.077 126.129C701.154 125.916 701.189 125.689 701.179 125.462C701.134 125.001 700.91 124.575 700.556 124.275C700.202 123.976 699.745 123.826 699.282 123.858C699.055 123.863 698.832 123.913 698.625 124.006C698.418 124.099 698.231 124.233 698.077 124.399C697.923 124.565 697.803 124.761 697.726 124.974C697.649 125.187 697.615 125.414 697.627 125.641Z" fill="#263238"/>
<path d="M696.443 123.234C696.698 123.438 697.932 122.305 699.829 122.101C701.726 121.898 703.241 122.712 703.419 122.458C703.598 122.203 703.241 121.948 702.592 121.567C701.705 121.086 700.691 120.89 699.689 121.006C698.695 121.107 697.759 121.522 697.016 122.19C696.481 122.7 696.328 123.132 696.443 123.234Z" fill="#263238"/>
<path d="M691.058 138.104C690.02 137.891 688.958 137.814 687.9 137.875C687.417 137.875 686.946 137.875 686.831 137.505C686.732 137.008 686.789 136.492 686.996 136.029C687.327 134.756 687.671 133.482 688.04 132.209C689.479 126.71 690.459 122.228 690.243 122.165C690.026 122.101 688.677 126.519 687.238 132.006C686.895 133.355 686.564 134.641 686.258 135.825C686.027 136.449 686.027 137.136 686.258 137.76C686.349 137.924 686.474 138.066 686.626 138.177C686.778 138.287 686.952 138.362 687.137 138.397C687.416 138.427 687.697 138.427 687.977 138.397C689.012 138.425 690.046 138.326 691.058 138.104Z" fill="#263238"/>
<path d="M695.157 115.787C695.399 116.283 697.283 115.787 699.549 115.876C701.815 115.965 703.686 116.321 703.928 115.876C704.043 115.634 703.674 115.188 702.884 114.756C701.851 114.234 700.707 113.968 699.549 113.979C698.393 113.956 697.248 114.213 696.213 114.73C695.424 115.125 695.055 115.57 695.157 115.787Z" fill="#263238"/>
<path d="M677.792 119.275C678.174 119.67 679.434 119.084 681.013 118.893C682.592 118.702 683.954 118.893 684.221 118.397C684.336 118.155 684.068 117.747 683.445 117.404C682.614 116.976 681.668 116.824 680.746 116.971C679.819 117.085 678.951 117.485 678.263 118.117C677.754 118.613 677.614 119.084 677.792 119.275Z" fill="#263238"/>
<path d="M717.321 127.601C717.525 127.487 725.571 124.177 726.233 132.693C726.895 141.21 718.187 140.077 718.162 139.835C718.136 139.594 717.321 127.601 717.321 127.601Z" fill="#FFBE9D"/>
<path d="M720.492 136.411C720.492 136.411 720.644 136.5 720.912 136.601C721.267 136.744 721.664 136.744 722.019 136.601C722.545 136.215 722.956 135.694 723.212 135.094C723.467 134.494 723.556 133.836 723.471 133.19C723.439 132.446 723.238 131.719 722.885 131.064C722.789 130.802 722.629 130.569 722.42 130.384C722.211 130.2 721.96 130.07 721.688 130.007C721.513 129.971 721.331 129.999 721.175 130.085C721.019 130.172 720.898 130.311 720.835 130.478C720.746 130.72 720.835 130.885 720.835 130.911C720.835 130.936 720.644 130.771 720.683 130.414C720.715 130.204 720.818 130.01 720.975 129.867C721.083 129.768 721.209 129.692 721.347 129.644C721.485 129.596 721.632 129.576 721.777 129.587C722.131 129.628 722.468 129.759 722.756 129.969C723.044 130.179 723.273 130.459 723.42 130.783C723.84 131.496 724.08 132.3 724.12 133.126C724.219 133.879 724.092 134.645 723.754 135.325C723.416 136.005 722.883 136.569 722.223 136.945C721.999 137.028 721.759 137.059 721.521 137.037C721.283 137.015 721.053 136.94 720.848 136.818C720.53 136.614 720.466 136.423 720.492 136.411Z" fill="#EB996E"/>
<path d="M671.465 116.767C674.286 117.181 677.166 116.92 679.866 116.003C682.566 115.087 685.01 113.542 686.997 111.496C689.734 108.607 691.669 104.685 695.335 103.12C696.589 102.639 697.926 102.412 699.268 102.454C700.61 102.495 701.931 102.804 703.152 103.361C705.576 104.486 707.743 106.098 709.517 108.097C707.799 114.654 710.154 121.528 712.484 127.894C712.664 128.626 713.086 129.276 713.68 129.74C714.763 130.402 716.227 129.651 716.978 128.632C718.102 126.92 718.695 124.913 718.684 122.865C719.087 118.225 718.563 113.551 717.143 109.116C715.702 104.669 712.989 100.743 709.339 97.8235C704.63 94.3251 698.747 92.7915 692.929 93.546C687.135 94.3389 681.74 96.9409 677.512 100.981C675.469 102.754 673.899 105.007 672.942 107.537" fill="#263238"/>
<path d="M690.447 143.489C690.706 144.255 691.074 144.98 691.541 145.641C691.778 145.971 692.081 146.248 692.433 146.452C692.784 146.656 693.174 146.783 693.578 146.825C694.01 146.827 694.435 146.719 694.814 146.512C695.192 146.305 695.512 146.005 695.743 145.641C696.202 144.903 696.416 144.038 696.354 143.171C696.354 142.394 695.959 141.465 695.182 141.376C694.856 141.362 694.532 141.432 694.24 141.579L690.179 143.222" fill="#EB996E"/>
<path d="M692.063 146.824C692.799 146.876 693.538 146.785 694.24 146.557C694.947 146.282 695.527 145.756 695.87 145.08C696.059 144.662 696.157 144.209 696.157 143.75C696.157 143.291 696.059 142.837 695.87 142.42C695.781 142.202 695.666 141.997 695.526 141.809C695.361 141.643 695.386 141.643 695.22 141.668L694.558 141.923L693.896 142.203C693.031 142.547 692.241 142.865 691.579 143.107C690.883 143.448 690.134 143.672 689.364 143.769C689.974 143.292 690.652 142.91 691.376 142.636C692.012 142.33 692.776 141.974 693.629 141.592L694.291 141.287C694.533 141.197 694.711 141.083 695.03 140.981C695.228 140.918 695.442 140.918 695.641 140.981C695.818 141.058 695.972 141.181 696.086 141.337C696.27 141.572 696.424 141.829 696.544 142.101C696.763 142.619 696.865 143.178 696.843 143.739C696.821 144.3 696.676 144.849 696.417 145.348C696.204 145.751 695.911 146.106 695.557 146.393C695.202 146.679 694.793 146.891 694.355 147.015C693.787 147.202 693.179 147.228 692.598 147.092C692.241 147.003 692.051 146.875 692.063 146.824Z" fill="#263238"/>
<path d="M650.256 211.879L673.795 262.191C674.894 264.542 676.571 266.576 678.667 268.105C680.764 269.634 683.213 270.609 685.787 270.937C689.089 271.36 692.439 270.701 695.336 269.06C698.232 267.419 700.519 264.884 701.854 261.835L719.422 221.593L688.868 185.628L685.889 228.824L666.577 201.465L650.256 211.879Z" fill="#FF725E"/>
<path d="M692.764 245.794C691.97 242.753 690.953 239.774 689.721 236.882C688.705 233.928 687.484 231.048 686.068 228.264C686.865 231.283 687.882 234.24 689.11 237.112C690.124 240.088 691.344 242.989 692.764 245.794Z" fill="#263238"/>
<path d="M693.336 301.53L687.837 295.406C686.887 294.356 686.164 293.12 685.715 291.777C685.266 290.434 685.1 289.013 685.227 287.602L688.142 280.218L684.247 192.567C683.852 185.463 683.941 175.227 690.612 172.35L719.447 163.82C719.447 163.82 739.104 168.009 743.751 178.283C747.404 186.341 753.095 240.829 753.095 240.829L761.37 262.943C762.325 267.297 768.639 291.689 769.008 297.316L767.914 301.555L693.336 301.53Z" fill="#FF725E"/>
<path d="M688.142 280.218C688.142 280.218 688.142 280.065 688.142 279.76C688.142 279.454 688.142 278.971 688.142 278.487C688.142 277.214 688.142 275.571 688.142 273.496C688.142 269.155 688.053 263.121 688.002 256.042C687.595 251.103 687.251 245.603 686.92 239.811C686.296 228.646 685.812 218.537 685.29 211.217C685.036 207.563 684.781 204.61 684.59 202.573C684.476 201.605 684.399 200.829 684.336 200.218C684.315 199.942 684.268 199.669 684.196 199.403C684.163 199.678 684.163 199.955 684.196 200.23C684.196 200.841 684.272 201.618 684.323 202.586C684.45 204.712 684.616 207.678 684.819 211.255C685.189 218.639 685.698 228.722 686.258 239.849C686.589 245.641 686.958 251.154 687.404 256.106C687.557 263.184 687.684 269.206 687.786 273.56C687.849 275.635 687.913 277.303 687.951 278.538C687.951 279.06 687.951 279.493 688.015 279.811C688.046 279.95 688.088 280.086 688.142 280.218Z" fill="#263238"/>
<path d="M740.25 318.894L714.202 309.855L736.774 249.142L721.332 196.462C718.976 187.372 723.088 174.59 732.178 172.273C732.573 172.171 733.286 168.912 733.681 169.078C737.258 170.542 746.182 176.589 749.874 182.56C752.676 187.159 754.706 192.187 755.883 197.442L765.253 237.723C767.086 245.599 766.45 253.848 763.433 261.351L740.25 318.894Z" fill="#FF725E"/>
<path d="M764.897 257.099C764.834 257.184 764.787 257.278 764.757 257.379L764.388 258.245L763.025 261.606L757.933 274.273L740.415 318.755L740.81 318.576L714.394 309.512L714.215 310.149C714.508 309.913 714.736 309.606 714.877 309.257L715.145 308.557C715.323 308.099 715.501 307.628 715.692 307.157C716.049 306.215 716.405 305.26 716.774 304.305C717.513 302.383 718.251 300.422 719.002 298.449C725.762 280.448 732.115 263.566 737.513 249.206V249.13V249.041C733.885 233.318 730.855 220.193 728.716 210.95C727.646 206.38 726.793 202.777 726.17 200.282C725.877 199.072 725.648 198.143 725.482 197.481C725.406 197.175 725.342 196.946 725.304 196.755L725.228 196.513C725.213 196.597 725.213 196.684 725.228 196.768C725.228 196.959 725.317 197.188 725.368 197.493C725.52 198.168 725.711 199.11 725.966 200.32C726.526 202.866 727.315 206.443 728.321 211.026L736.889 249.219V249.053C731.478 263.401 725.1 280.269 718.302 298.271L716.087 304.114L714.992 306.979L714.457 308.379L714.19 309.067C714.171 309.092 714.161 309.124 714.161 309.156C714.161 309.188 714.171 309.219 714.19 309.245C714.199 309.287 714.199 309.33 714.19 309.372V309.461V309.525L714.126 309.83L714.012 310.161L740.708 319.175L740.988 319.277L741.09 318.997L758.379 274.439L763.267 261.708L764.54 258.321C764.668 257.952 764.77 257.659 764.859 257.443C764.948 257.227 764.897 257.099 764.897 257.099Z" fill="#263238"/>
<path d="M751.083 250.912C750.586 250.372 749.984 249.938 749.314 249.639C747.756 248.82 746.067 248.282 744.323 248.047C742.581 247.805 740.809 247.873 739.091 248.251C738.366 248.344 737.67 248.596 737.054 248.989C739.425 248.584 741.838 248.485 744.234 248.696C746.601 249.143 748.903 249.888 751.083 250.912Z" fill="#263238"/>
<g opacity="0.3">
<path d="M681.446 222.611L679.307 268.557C681.56 270.263 684.679 270.938 688.219 271.103C688.155 269.664 685.787 228.875 685.787 228.875L681.446 222.611Z" fill="black"/>
</g>
<path d="M684.272 185.628C684.425 185.753 684.591 185.86 684.769 185.947C685.258 186.235 685.764 186.495 686.284 186.723C688.197 187.581 690.206 188.209 692.267 188.595C699.09 189.769 706.094 189.302 712.7 187.232C719.34 185.207 725.394 181.608 730.345 176.742C731.839 175.279 733.214 173.7 734.457 172.019C734.903 171.433 735.208 170.937 735.425 170.619C735.541 170.456 735.639 170.281 735.717 170.097C735.229 170.64 734.77 171.209 734.343 171.803C733.038 173.412 731.626 174.93 730.116 176.348C725.141 181.049 719.146 184.535 712.598 186.532C706.053 188.604 699.121 189.153 692.331 188.136C690.287 187.799 688.286 187.244 686.36 186.481C685.679 186.162 684.982 185.878 684.272 185.628Z" fill="#FAFAFA"/>
<path d="M729.034 210.886C729.455 210.953 729.885 210.953 730.307 210.886C731.444 210.79 732.575 210.629 733.693 210.402C737.389 209.645 740.946 208.318 744.234 206.469C747.506 204.595 750.48 202.244 753.057 199.492C753.837 198.681 754.577 197.831 755.272 196.946C755.545 196.629 755.776 196.278 755.959 195.902C755.87 195.826 754.75 197.175 752.726 199.212C750.09 201.831 747.124 204.095 743.903 205.947C740.667 207.761 737.198 209.123 733.591 209.995C730.791 210.581 729.021 210.772 729.034 210.886Z" fill="#FAFAFA"/>
<path d="M686.806 222.611C687.327 222.873 687.873 223.082 688.435 223.235C689.942 223.76 691.482 224.185 693.044 224.508C695.354 225.014 697.699 225.346 700.059 225.501C702.952 225.681 705.855 225.634 708.741 225.361C713.979 224.767 719.116 223.482 724.018 221.542C725.89 220.803 727.392 220.141 728.385 219.632C728.924 219.403 729.44 219.121 729.925 218.792C729.361 218.941 728.811 219.141 728.283 219.39C727.252 219.836 725.737 220.422 723.853 221.096C718.953 222.877 713.859 224.07 708.677 224.648C705.83 224.921 702.967 224.99 700.11 224.852C697.773 224.71 695.448 224.425 693.146 223.999C689.199 223.286 686.844 222.484 686.806 222.611Z" fill="#FAFAFA"/>
<path d="M688.512 257.316C689.08 257.63 689.677 257.89 690.294 258.092C691.002 258.38 691.724 258.631 692.458 258.843C693.311 259.098 694.266 259.442 695.374 259.683C696.481 259.925 697.653 260.231 698.964 260.435C700.275 260.638 701.675 260.829 703.152 260.995C706.372 261.268 709.608 261.268 712.828 260.995C716.041 260.654 719.218 260.037 722.325 259.149C723.751 258.703 725.1 258.296 726.322 257.799C727.545 257.303 728.69 256.832 729.709 256.361C730.727 255.89 731.618 255.393 732.42 254.986C733.222 254.578 733.859 254.171 734.394 253.827C734.958 253.508 735.495 253.142 735.998 252.732C735.389 252.967 734.805 253.262 734.254 253.611C733.719 253.916 733.044 254.286 732.242 254.655C731.44 255.024 730.562 255.52 729.518 255.928C728.474 256.335 727.379 256.857 726.131 257.277C724.884 257.697 723.585 258.143 722.159 258.55C719.058 259.382 715.895 259.961 712.7 260.282C709.521 260.575 706.324 260.609 703.14 260.384C701.675 260.231 700.288 260.129 698.989 259.887C697.691 259.645 696.507 259.467 695.412 259.225C694.317 258.983 693.35 258.716 692.497 258.487C691.644 258.258 690.905 258.041 690.32 257.85C689.736 257.612 689.131 257.433 688.512 257.316Z" fill="#FAFAFA"/>
<path d="M667.506 251.816C668.672 251.711 669.818 251.437 670.905 251.001C676.284 249.172 681.075 245.937 684.781 241.631C685.585 240.783 686.266 239.828 686.806 238.792C685.965 239.596 685.171 240.446 684.425 241.338C680.59 245.396 675.897 248.545 670.688 250.555C668.766 251.345 667.48 251.714 667.506 251.816Z" fill="#FAFAFA"/>
<path d="M656.684 225.183C657.724 225.041 658.736 224.745 659.689 224.304C662.049 223.384 664.285 222.174 666.347 220.701C668.414 219.238 670.295 217.528 671.948 215.609C672.675 214.852 673.288 213.995 673.769 213.063C671.379 215.657 668.767 218.038 665.965 220.18C663.024 222.117 659.919 223.791 656.684 225.183Z" fill="#FAFAFA"/>
<path d="M736.43 241.822C736.797 241.965 737.183 242.051 737.576 242.077C738.63 242.235 739.693 242.329 740.759 242.357C747.862 242.583 754.877 240.739 760.95 237.048C761.865 236.496 762.745 235.888 763.585 235.227C764.171 234.756 764.489 234.489 764.464 234.451C764.438 234.413 763.05 235.342 760.644 236.641C754.547 240.041 747.689 241.846 740.708 241.886C738.098 241.898 736.443 241.707 736.43 241.822Z" fill="#FAFAFA"/>
<path d="M733.591 261.364C733.591 261.478 735.145 261.453 737.602 261.746C744.048 262.505 750.148 265.073 755.196 269.155C757.131 270.708 758.187 271.841 758.264 271.765C758.34 271.688 758.073 271.421 757.615 270.899C756.962 270.148 756.256 269.446 755.501 268.798C750.524 264.439 744.274 261.801 737.678 261.275C736.686 261.208 735.691 261.208 734.699 261.275C734.327 261.244 733.953 261.274 733.591 261.364Z" fill="#FAFAFA"/>
<path d="M719.855 295.47C719.855 295.597 721.485 295.317 724.095 295.343C725.618 295.368 727.137 295.508 728.639 295.763C732.323 296.388 735.853 297.71 739.041 299.658C740.344 300.446 741.583 301.335 742.745 302.319C744.731 304.012 745.762 305.273 745.864 305.196C745.69 304.852 745.467 304.535 745.202 304.254C744.551 303.439 743.836 302.677 743.063 301.975C741.919 300.923 740.683 299.973 739.372 299.136C737.757 298.131 736.052 297.278 734.279 296.59C732.489 295.933 730.638 295.455 728.754 295.164C727.217 294.924 725.662 294.831 724.107 294.884C723.061 294.899 722.017 295.001 720.988 295.19C720.599 295.228 720.217 295.323 719.855 295.47Z" fill="#FAFAFA"/>
<path d="M753.872 286.278C758.132 286.198 762.372 285.682 766.526 284.738C764.395 284.657 762.261 284.802 760.161 285.17C758.032 285.324 755.925 285.696 753.872 286.278Z" fill="#FAFAFA"/>
<g opacity="0.3">
<path d="M762.821 269.015C762.613 274.935 761.598 280.799 759.804 286.444C758.531 290.62 762.923 297.214 757.755 301.53H747.57C752.522 289.346 757.245 276.565 761.803 265.094" fill="black"/>
</g>
<path d="M689.785 281.122C690.002 281.441 690.259 281.732 690.549 281.988C691.29 282.725 692.086 283.406 692.929 284.025C694.185 284.945 695.518 285.754 696.914 286.444C698.629 287.277 700.419 287.947 702.261 288.442C704.114 288.907 706.006 289.197 707.913 289.308C709.469 289.391 711.028 289.332 712.573 289.13C713.61 289.015 714.636 288.814 715.641 288.531C716.02 288.458 716.385 288.324 716.723 288.137C716.723 288.022 715.119 288.442 712.522 288.672C711.001 288.788 709.473 288.788 707.952 288.672C706.088 288.532 704.239 288.234 702.426 287.78C700.63 287.285 698.876 286.646 697.181 285.871C695.8 285.221 694.472 284.463 693.209 283.605C691.058 282.166 689.912 281.033 689.785 281.122Z" fill="#263238"/>
<path d="M703.292 288.34C704.038 288.868 704.863 289.272 705.737 289.537C707.807 290.286 709.97 290.748 712.166 290.912C714.356 291.069 716.556 290.967 718.722 290.606C719.628 290.523 720.516 290.304 721.357 289.957C721.357 289.728 717.245 290.606 712.217 290.25C709.187 289.905 706.198 289.265 703.292 288.34Z" fill="#FAFAFA"/>
<path d="M644.718 189.18L632.241 188.276C632.241 188.276 629.517 191.739 631.694 194.438C633.871 197.137 638.059 204.228 638.059 204.228L647.773 205.603L651.669 212.643L666.411 203.095L659.714 189.753L648.88 180.269L641.993 180.409L638.174 185.03C638.174 185.03 642.426 187.118 644.463 183.757L647.76 184.406V186.316C647.765 186.708 647.688 187.098 647.534 187.459C647.38 187.821 647.153 188.146 646.867 188.416C646.581 188.685 646.243 188.892 645.873 189.023C645.503 189.155 645.109 189.208 644.718 189.18Z" fill="#FFBE9D"/>
<path d="M632.394 188.747L623.902 186.303C623.377 186.239 622.844 186.304 622.349 186.493C621.854 186.682 621.413 186.988 621.063 187.385L620.809 188.264L631.223 192.77L632.394 188.747Z" fill="#FFBE9D"/>
<path d="M650.943 198.079C650.642 197.417 650.257 196.797 649.797 196.233C648.78 194.867 648.087 193.286 647.773 191.612C647.636 190.706 647.719 189.78 648.015 188.913C648.162 188.499 648.272 188.073 648.346 187.64C648.412 187.252 648.412 186.856 648.346 186.468C648.265 185.735 648.049 185.023 647.709 184.368C647.683 185.093 647.739 185.819 647.875 186.532C647.954 187.276 647.817 188.028 647.48 188.696C647.125 189.651 647.016 190.68 647.162 191.688C647.489 193.468 648.284 195.129 649.466 196.5C650.319 197.557 650.879 198.13 650.943 198.079Z" fill="#EB996E"/>
<path d="M616.29 178.588C616.29 178.83 615.017 181.529 615.017 181.529L649.555 198.677L651.287 195.444L616.29 178.588Z" fill="#263238"/>
<path d="M638.097 203.63C637.913 203.436 637.77 203.207 637.676 202.957C637.582 202.707 637.539 202.44 637.549 202.173C637.56 201.906 637.624 201.644 637.738 201.402C637.852 201.16 638.013 200.944 638.212 200.765C639.053 200.066 640.079 199.624 641.165 199.492C642.892 199.082 644.661 198.873 646.436 198.868C647.019 198.857 647.596 198.988 648.116 199.25C648.375 199.388 648.587 199.599 648.726 199.858C648.864 200.116 648.922 200.41 648.893 200.702C648.753 201.402 648.015 201.784 647.353 202.038C645.563 202.723 643.7 203.201 641.802 203.464" fill="#FFBE9D"/>
<path d="M641.802 203.54C642.949 203.573 644.093 203.418 645.189 203.082C645.698 202.955 646.258 202.789 646.844 202.598C647.523 202.422 648.16 202.111 648.715 201.682C648.88 201.532 649.011 201.349 649.098 201.145C649.186 200.941 649.229 200.72 649.225 200.498C649.187 200.043 648.977 199.62 648.639 199.314C647.953 198.787 647.094 198.537 646.233 198.614C644.707 198.624 643.187 198.803 641.701 199.148C640.429 199.283 639.217 199.753 638.187 200.511C637.847 200.807 637.6 201.196 637.476 201.629C637.352 202.063 637.356 202.523 637.487 202.955C637.716 203.566 638.098 203.693 638.098 203.668C638.098 203.642 637.856 203.426 637.729 202.891C637.666 202.514 637.704 202.128 637.838 201.77C637.972 201.413 638.198 201.097 638.492 200.854C639.494 200.221 640.634 199.841 641.815 199.747C643.265 199.448 644.74 199.29 646.22 199.276C646.918 199.201 647.619 199.382 648.193 199.785C648.308 199.865 648.403 199.97 648.471 200.092C648.539 200.214 648.579 200.35 648.588 200.489C648.596 200.628 648.573 200.768 648.52 200.897C648.468 201.027 648.386 201.143 648.282 201.236C647.802 201.617 647.253 201.903 646.666 202.076C646.093 202.293 645.558 202.471 645.061 202.624C643.075 203.235 641.79 203.426 641.802 203.54Z" fill="#EB996E"/>
<path d="M633.845 196.895C636.57 195.698 638.556 195.062 641.28 193.878C642.124 193.392 643.101 193.191 644.068 193.305C645.023 193.521 645.787 194.667 645.265 195.482C645.05 195.751 644.781 195.972 644.475 196.131L636.557 200.943" fill="#FFBE9D"/>
<path d="M636.557 200.943C637.652 200.503 638.7 199.957 639.689 199.314L642.999 197.391L644.959 196.22C645.173 196.092 645.355 195.918 645.494 195.711C645.633 195.504 645.724 195.27 645.761 195.023C645.772 194.774 645.732 194.525 645.645 194.291C645.557 194.057 645.424 193.843 645.252 193.661C644.925 193.284 644.473 193.035 643.979 192.961C643.559 192.878 643.126 192.878 642.706 192.961C641.966 193.179 641.246 193.46 640.555 193.801L637.028 195.291C635.912 195.677 634.847 196.199 633.858 196.844C635 196.552 636.119 196.177 637.206 195.724C638.225 195.354 639.46 194.922 640.796 194.361C641.462 194.051 642.152 193.795 642.859 193.597C643.187 193.485 643.54 193.467 643.878 193.546C644.215 193.625 644.524 193.797 644.768 194.043C644.991 194.281 645.114 194.595 645.112 194.922C645.088 195.072 645.03 195.214 644.942 195.338C644.853 195.462 644.737 195.563 644.603 195.634L642.693 196.818L639.46 198.868C638.429 199.466 637.457 200.161 636.557 200.943Z" fill="#EB996E"/>
<path d="M631.223 192.77L638.683 190.033C639.56 189.608 640.55 189.474 641.509 189.651C642.438 189.918 643.139 191.115 642.566 191.892C642.339 192.154 642.056 192.363 641.738 192.503L633.527 196.793" fill="#FFBE9D"/>
<path d="M633.54 196.793C634.655 196.417 635.733 195.94 636.761 195.367L640.134 193.661L642.159 192.63C642.381 192.524 642.576 192.369 642.73 192.178C642.885 191.986 642.994 191.762 643.05 191.522C643.087 191.273 643.072 191.019 643.006 190.776C642.94 190.533 642.825 190.306 642.668 190.109C642.382 189.714 641.968 189.43 641.497 189.307C641.076 189.224 640.644 189.224 640.224 189.307C639.467 189.458 638.729 189.688 638.021 189.995L634.457 191.37C633.336 191.737 632.257 192.22 631.236 192.808C632.391 192.575 633.524 192.243 634.622 191.815L638.225 190.542C638.905 190.271 639.608 190.062 640.325 189.918C640.66 189.833 641.012 189.843 641.341 189.949C641.67 190.055 641.962 190.252 642.184 190.517C643.279 191.904 640.987 192.413 639.893 193.139L636.544 194.972C635.487 195.481 634.481 196.091 633.54 196.793Z" fill="#EB996E"/>
<path d="M631.77 179.441C631.846 179.441 631.63 178.69 630.904 177.722C629.936 176.479 628.64 175.531 627.162 174.985C625.68 174.437 624.072 174.323 622.528 174.654C621.356 174.922 620.72 175.329 620.758 175.405C620.796 175.482 621.471 175.253 622.604 175.125C624.065 174.944 625.548 175.11 626.932 175.609C628.307 176.127 629.544 176.955 630.548 178.028C631.312 178.855 631.681 179.441 631.77 179.441Z" fill="#263238"/>
<path d="M634.724 177.875C634.462 176.949 633.972 176.104 633.298 175.418C631.76 173.663 629.735 172.404 627.48 171.802C625.235 171.21 622.879 171.175 620.618 171.701C619.678 171.858 618.775 172.191 617.957 172.681C617.957 172.783 619.014 172.439 620.707 172.172C622.899 171.795 625.147 171.887 627.302 172.439C629.444 173.018 631.395 174.156 632.954 175.736C634.138 176.958 634.622 177.939 634.724 177.875Z" fill="#263238"/>
<path d="M639.002 176.474C639.002 176.474 638.874 176.118 638.505 175.571C637.984 174.8 637.391 174.08 636.736 173.419C634.57 171.193 631.883 169.544 628.919 168.62C625.952 167.716 622.808 167.558 619.765 168.161C618.851 168.34 617.956 168.604 617.092 168.951C616.761 169.046 616.45 169.201 616.175 169.409C616.175 169.523 617.563 168.976 619.842 168.62C622.806 168.147 625.839 168.361 628.708 169.244C631.577 170.126 634.206 171.655 636.392 173.712C638.098 175.329 638.862 176.538 639.002 176.474Z" fill="#263238"/>
<path d="M642.031 175.036C641.959 174.614 641.822 174.206 641.624 173.826C641.143 172.767 640.508 171.785 639.74 170.911C638.607 169.609 637.286 168.485 635.819 167.576C634.027 166.464 632.113 165.563 630.115 164.889C626.475 163.624 622.559 163.369 618.785 164.151C617.652 164.373 616.54 164.693 615.462 165.106C615.053 165.219 614.666 165.4 614.316 165.641C614.316 165.755 616.035 165.08 618.874 164.609C622.567 163.983 626.358 164.294 629.899 165.513C633.48 166.617 636.739 168.574 639.396 171.217C640.408 172.392 641.292 173.672 642.031 175.036Z" fill="#263238"/>
<path d="M712.967 321.059C715.513 320.142 715.297 321.937 714.368 324.051C719.307 327.17 724.705 331.053 730.549 331.091L736.761 317.189L719.065 311.154L718.747 312.045C716.964 313.742 715.03 315.272 712.967 316.616C711.913 317.321 710.746 317.842 709.517 318.156C708.004 318.602 706.436 318.838 704.858 318.856C704.559 318.811 704.253 318.86 703.984 318.997C703.714 319.133 703.494 319.35 703.354 319.618C703.214 319.886 703.16 320.191 703.202 320.49C703.243 320.789 703.377 321.068 703.585 321.288C704.603 322.154 708.575 322.612 712.967 321.059Z" fill="#FFBE9D"/>
<path d="M712.458 322.625C713.069 323.456 713.804 324.19 714.635 324.801C716.554 326.395 718.662 327.747 720.912 328.824C723.159 329.906 725.532 330.701 727.977 331.192C728.978 331.454 730.011 331.57 731.045 331.536C724.215 330.141 717.834 327.079 712.471 322.625H712.458Z" fill="#455A64"/>
</svg>
